<?plantuml 1.2026.1?><svg xmlns="http://www.w3.org/2000/svg" xmlns:xlink="http://www.w3.org/1999/xlink" contentStyleType="text/css" data-diagram-type="CLASS" height="312px" preserveAspectRatio="none" style="width:259px;height:312px;background:#FFFFFF;" version="1.1" viewBox="0 0 259 312" width="259px" zoomAndPan="magnify"><defs/><g><!--class AbstractObservationCollection--><g class="entity" data-qualified-name="AbstractObservationCollection" data-source-line="2" id="ent0002"><rect fill="#F1F1F1" height="48" rx="2.5" ry="2.5" style="stroke:#181818;stroke-width:0.5;" width="245.2676" x="7" y="7"/><ellipse cx="22" cy="23" fill="#A9DCDF" rx="11" ry="11" style="stroke:#181818;stroke-width:1;"/><path d="M22.1094,18.3438 L20.9531,23.4219 L23.2813,23.4219 L22.1094,18.3438 Z M20.625,16.1094 L23.6094,16.1094 L26.9688,28.5 L24.5156,28.5 L23.75,25.4375 L20.4688,25.4375 L19.7188,28.5 L17.2813,28.5 L20.625,16.1094 Z " fill="#000000"/><text fill="#000000" font-family="sans-serif" font-size="14" font-style="italic" lengthAdjust="spacing" textLength="213.2676" x="36" y="27.8467">AbstractObservationCollection</text><line style="stroke:#181818;stroke-width:0.5;" x1="8" x2="251.2676" y1="39" y2="39"/><line style="stroke:#181818;stroke-width:0.5;" x1="8" x2="251.2676" y1="47" y2="47"/></g><!--class EPNObservationCollection--><g class="entity" data-qualified-name="EPNObservationCollection" data-source-line="4" id="ent0003"><rect fill="#F1F1F1" height="48" rx="2.5" ry="2.5" style="stroke:#181818;stroke-width:0.5;" width="214.2598" x="22.5" y="116"/><ellipse cx="37.5" cy="132" fill="#ADD1B2" rx="11" ry="11" style="stroke:#181818;stroke-width:1;"/><path d="M40.4688,137.6406 Q39.8906,137.9375 39.25,138.0781 Q38.6094,138.2344 37.9063,138.2344 Q35.4063,138.2344 34.0781,136.5938 Q32.7656,134.9375 32.7656,131.8125 Q32.7656,128.6875 34.0781,127.0313 Q35.4063,125.375 37.9063,125.375 Q38.6094,125.375 39.25,125.5313 Q39.9063,125.6875 40.4688,125.9844 L40.4688,128.7031 Q39.8438,128.125 39.25,127.8594 Q38.6563,127.5781 38.0313,127.5781 Q36.6875,127.5781 36,128.6563 Q35.3125,129.7188 35.3125,131.8125 Q35.3125,133.9063 36,134.9844 Q36.6875,136.0469 38.0313,136.0469 Q38.6563,136.0469 39.25,135.7813 Q39.8438,135.5 40.4688,134.9219 L40.4688,137.6406 Z " fill="#000000"/><text fill="#000000" font-family="sans-serif" font-size="14" lengthAdjust="spacing" textLength="182.2598" x="51.5" y="136.8467">EPNObservationCollection</text><line style="stroke:#181818;stroke-width:0.5;" x1="23.5" x2="235.7598" y1="148" y2="148"/><line style="stroke:#181818;stroke-width:0.5;" x1="23.5" x2="235.7598" y1="156" y2="156"/></g><!--class GranuleReference--><g class="entity" data-qualified-name="GranuleReference" data-source-line="6" id="ent0004"><rect fill="#F1F1F1" height="64.2969" rx="2.5" ry="2.5" style="stroke:#181818;stroke-width:0.5;" width="158.8682" x="50.2" y="241"/><ellipse cx="65.2" cy="257" fill="#ADD1B2" rx="11" ry="11" style="stroke:#181818;stroke-width:1;"/><path d="M68.1688,262.6406 Q67.5906,262.9375 66.95,263.0781 Q66.3094,263.2344 65.6063,263.2344 Q63.1063,263.2344 61.7781,261.5938 Q60.4656,259.9375 60.4656,256.8125 Q60.4656,253.6875 61.7781,252.0313 Q63.1063,250.375 65.6063,250.375 Q66.3094,250.375 66.95,250.5313 Q67.6063,250.6875 68.1688,250.9844 L68.1688,253.7031 Q67.5438,253.125 66.95,252.8594 Q66.3563,252.5781 65.7313,252.5781 Q64.3875,252.5781 63.7,253.6563 Q63.0125,254.7188 63.0125,256.8125 Q63.0125,258.9063 63.7,259.9844 Q64.3875,261.0469 65.7313,261.0469 Q66.3563,261.0469 66.95,260.7813 Q67.5438,260.5 68.1688,259.9219 L68.1688,262.6406 Z " fill="#000000"/><text fill="#000000" font-family="sans-serif" font-size="14" lengthAdjust="spacing" textLength="126.8682" x="79.2" y="261.8467">GranuleReference</text><line style="stroke:#181818;stroke-width:0.5;" x1="51.2" x2="208.0682" y1="273" y2="273"/><g data-visibility-modifier="PUBLIC_FIELD"><ellipse cx="61.2" cy="286.6484" fill="none" rx="3" ry="3" style="stroke:#038048;stroke-width:1;"/></g><text fill="#000000" font-family="sans-serif" font-size="14" lengthAdjust="spacing" textLength="82.1338" x="70.2" y="289.9951">granule_gid</text><line style="stroke:#181818;stroke-width:0.5;" x1="51.2" x2="208.0682" y1="297.2969" y2="297.2969"/></g><!--reverse link AbstractObservationCollection to EPNObservationCollection--><g class="link" data-entity-1="ent0002" data-entity-2="ent0003" data-link-type="extension" data-source-line="10" id="lnk5"><path codeLine="10" d="M129.63,73.48 C129.63,91.32 129.63,97.75 129.63,115.58" fill="none" id="AbstractObservationCollection-backto-EPNObservationCollection" style="stroke:#181818;stroke-width:1;stroke-dasharray:7,7;"/><polygon fill="none" points="129.63,55.48,123.63,73.48,135.63,73.48,129.63,55.48" style="stroke:#181818;stroke-width:1;"/></g><!--reverse link EPNObservationCollection to GranuleReference--><g class="link" data-entity-1="ent0003" data-entity-2="ent0004" data-link-type="aggregation" data-source-line="11" id="lnk6"><path codeLine="11" d="M129.63,176.45 C129.63,197.67 129.63,217.09 129.63,240.53" fill="none" id="EPNObservationCollection-backto-GranuleReference" style="stroke:#181818;stroke-width:1;"/><polygon fill="none" points="129.63,164.45,125.63,170.45,129.63,176.45,133.63,170.45,129.63,164.45" style="stroke:#181818;stroke-width:1;"/><text fill="#000000" font-family="sans-serif" font-size="13" lengthAdjust="spacing" textLength="24.8066" x="130.63" y="207.0669">0..1</text></g><?plantuml-src IqmgBYbAJ2vHICv9B2vMS8Ho_PEAKulA4aioy_ESytDoKfD1B2ukY2BN03-yykv5YNcbEQb1gMcfHQbvoQaArLmAGA2ja0wHY4_FJE6gvUB2Qvc2JOsU7cwhS4aevElgOZh0Ii50Jy-GYmi0?></g></svg>