<?plantuml 1.2026.1?><svg xmlns="http://www.w3.org/2000/svg" xmlns:xlink="http://www.w3.org/1999/xlink" contentStyleType="text/css" data-diagram-type="CLASS" height="848px" preserveAspectRatio="none" style="width:553px;height:848px;background:#FFFFFF;" version="1.1" viewBox="0 0 553 848" width="553px" zoomAndPan="magnify"><defs/><g><!--class FeatureOfInterest--><g class="entity" data-qualified-name="FeatureOfInterest" data-source-line="1" id="ent0002"><rect fill="#F1F1F1" height="48" rx="2.5" ry="2.5" style="stroke:#181818;stroke-width:0.5;" width="156.1816" x="195.24" y="7"/><ellipse cx="210.24" cy="23" fill="#B4A7E5" rx="11" ry="11" style="stroke:#181818;stroke-width:1;"/><path d="M206.1619,18.7656 L206.1619,16.6094 L213.5525,16.6094 L213.5525,18.7656 L211.0838,18.7656 L211.0838,26.8438 L213.5525,26.8438 L213.5525,29 L206.1619,29 L206.1619,26.8438 L208.6306,26.8438 L208.6306,18.7656 L206.1619,18.7656 Z " fill="#000000"/><text fill="#000000" font-family="sans-serif" font-size="14" font-style="italic" lengthAdjust="spacing" textLength="124.1816" x="224.24" y="27.8467">FeatureOfInterest</text><line style="stroke:#181818;stroke-width:0.5;" x1="196.24" x2="350.4216" y1="39" y2="39"/><line style="stroke:#181818;stroke-width:0.5;" x1="196.24" x2="350.4216" y1="47" y2="47"/></g><!--class ODEUltimateFeatureOfInterest--><g class="entity" data-qualified-name="ODEUltimateFeatureOfInterest" data-source-line="3" id="ent0003"><rect fill="#F1F1F1" height="48" rx="2.5" ry="2.5" style="stroke:#181818;stroke-width:0.5;" width="246.6621" x="7" y="115"/><ellipse cx="22" cy="131" fill="#ADD1B2" rx="11" ry="11" style="stroke:#181818;stroke-width:1;"/><path d="M24.9688,136.6406 Q24.3906,136.9375 23.75,137.0781 Q23.1094,137.2344 22.4063,137.2344 Q19.9063,137.2344 18.5781,135.5938 Q17.2656,133.9375 17.2656,130.8125 Q17.2656,127.6875 18.5781,126.0313 Q19.9063,124.375 22.4063,124.375 Q23.1094,124.375 23.75,124.5313 Q24.4063,124.6875 24.9688,124.9844 L24.9688,127.7031 Q24.3438,127.125 23.75,126.8594 Q23.1563,126.5781 22.5313,126.5781 Q21.1875,126.5781 20.5,127.6563 Q19.8125,128.7188 19.8125,130.8125 Q19.8125,132.9063 20.5,133.9844 Q21.1875,135.0469 22.5313,135.0469 Q23.1563,135.0469 23.75,134.7813 Q24.3438,134.5 24.9688,133.9219 L24.9688,136.6406 Z " fill="#000000"/><text fill="#000000" font-family="sans-serif" font-size="14" lengthAdjust="spacing" textLength="214.6621" x="36" y="135.8467">ODEUltimateFeatureOfInterest</text><line style="stroke:#181818;stroke-width:0.5;" x1="8" x2="252.6621" y1="147" y2="147"/><line style="stroke:#181818;stroke-width:0.5;" x1="8" x2="252.6621" y1="155" y2="155"/></g><!--class ODEProximateFeatureOfInterest--><g class="entity" data-qualified-name="ODEProximateFeatureOfInterest" data-source-line="5" id="ent0004"><rect fill="#F1F1F1" height="48" rx="2.5" ry="2.5" style="stroke:#181818;stroke-width:0.5;" width="258.085" x="288.29" y="115"/><ellipse cx="303.29" cy="131" fill="#ADD1B2" rx="11" ry="11" style="stroke:#181818;stroke-width:1;"/><path d="M306.2588,136.6406 Q305.6806,136.9375 305.04,137.0781 Q304.3994,137.2344 303.6963,137.2344 Q301.1963,137.2344 299.8681,135.5938 Q298.5556,133.9375 298.5556,130.8125 Q298.5556,127.6875 299.8681,126.0313 Q301.1963,124.375 303.6963,124.375 Q304.3994,124.375 305.04,124.5313 Q305.6963,124.6875 306.2588,124.9844 L306.2588,127.7031 Q305.6338,127.125 305.04,126.8594 Q304.4463,126.5781 303.8213,126.5781 Q302.4775,126.5781 301.79,127.6563 Q301.1025,128.7188 301.1025,130.8125 Q301.1025,132.9063 301.79,133.9844 Q302.4775,135.0469 303.8213,135.0469 Q304.4463,135.0469 305.04,134.7813 Q305.6338,134.5 306.2588,133.9219 L306.2588,136.6406 Z " fill="#000000"/><text fill="#000000" font-family="sans-serif" font-size="14" lengthAdjust="spacing" textLength="226.085" x="317.29" y="135.8467">ODEProximateFeatureOfInterest</text><line style="stroke:#181818;stroke-width:0.5;" x1="289.29" x2="545.375" y1="147" y2="147"/><line style="stroke:#181818;stroke-width:0.5;" x1="289.29" x2="545.375" y1="155" y2="155"/></g><!--class PdsRecordModel--><g class="entity" data-qualified-name="PdsRecordModel" data-source-line="7" id="ent0005"><rect fill="#F1F1F1" height="618.3906" rx="2.5" ry="2.5" style="stroke:#181818;stroke-width:0.5;" width="269.4004" x="138.63" y="223"/><ellipse cx="211.1285" cy="239" fill="#ADD1B2" rx="11" ry="11" style="stroke:#181818;stroke-width:1;"/><path d="M214.0973,244.6406 Q213.5192,244.9375 212.8785,245.0781 Q212.2379,245.2344 211.5348,245.2344 Q209.0348,245.2344 207.7067,243.5938 Q206.3942,241.9375 206.3942,238.8125 Q206.3942,235.6875 207.7067,234.0313 Q209.0348,232.375 211.5348,232.375 Q212.2379,232.375 212.8785,232.5313 Q213.5348,232.6875 214.0973,232.9844 L214.0973,235.7031 Q213.4723,235.125 212.8785,234.8594 Q212.2848,234.5781 211.6598,234.5781 Q210.316,234.5781 209.6285,235.6563 Q208.941,236.7188 208.941,238.8125 Q208.941,240.9063 209.6285,241.9844 Q210.316,243.0469 211.6598,243.0469 Q212.2848,243.0469 212.8785,242.7813 Q213.4723,242.5 214.0973,241.9219 L214.0973,244.6406 Z " fill="#000000"/><text fill="#000000" font-family="sans-serif" font-size="14" lengthAdjust="spacing" textLength="115.9033" x="231.6285" y="243.8467">PdsRecordModel</text><line style="stroke:#181818;stroke-width:0.5;" x1="139.63" x2="407.0304" y1="255" y2="255"/><g data-visibility-modifier="PUBLIC_FIELD"><ellipse cx="149.63" cy="268.6484" fill="none" rx="3" ry="3" style="stroke:#038048;stroke-width:1;"/></g><text fill="#000000" font-family="sans-serif" font-size="14" lengthAdjust="spacing" textLength="92.5791" x="158.63" y="271.9951">Target_name</text><g data-visibility-modifier="PUBLIC_FIELD"><ellipse cx="149.63" cy="284.9453" fill="none" rx="3" ry="3" style="stroke:#038048;stroke-width:1;"/></g><text fill="#000000" font-family="sans-serif" font-size="14" lengthAdjust="spacing" textLength="121.8232" x="158.63" y="288.292">Description [0..1]</text><g data-visibility-modifier="PUBLIC_FIELD"><ellipse cx="149.63" cy="301.2422" fill="none" rx="3" ry="3" style="stroke:#038048;stroke-width:1;"/></g><text fill="#000000" font-family="sans-serif" font-size="14" lengthAdjust="spacing" textLength="150.2197" x="158.63" y="304.5889">Emission_angle [0..1]</text><g data-visibility-modifier="PUBLIC_FIELD"><ellipse cx="149.63" cy="317.5391" fill="none" rx="3" ry="3" style="stroke:#038048;stroke-width:1;"/></g><text fill="#000000" font-family="sans-serif" font-size="14" lengthAdjust="spacing" textLength="185.0967" x="158.63" y="320.8857">Emission_angle_text [0..1]</text><g data-visibility-modifier="PUBLIC_FIELD"><ellipse cx="149.63" cy="333.8359" fill="none" rx="3" ry="3" style="stroke:#038048;stroke-width:1;"/></g><text fill="#000000" font-family="sans-serif" font-size="14" lengthAdjust="spacing" textLength="129.7324" x="158.63" y="337.1826">Phase_angle [0..1]</text><g data-visibility-modifier="PUBLIC_FIELD"><ellipse cx="149.63" cy="350.1328" fill="none" rx="3" ry="3" style="stroke:#038048;stroke-width:1;"/></g><text fill="#000000" font-family="sans-serif" font-size="14" lengthAdjust="spacing" textLength="164.6094" x="158.63" y="353.4795">Phase_angle_text [0..1]</text><g data-visibility-modifier="PUBLIC_FIELD"><ellipse cx="149.63" cy="366.4297" fill="none" rx="3" ry="3" style="stroke:#038048;stroke-width:1;"/></g><text fill="#000000" font-family="sans-serif" font-size="14" lengthAdjust="spacing" textLength="155.2031" x="158.63" y="369.7764">Incidence_angle [0..1]</text><g data-visibility-modifier="PUBLIC_FIELD"><ellipse cx="149.63" cy="382.7266" fill="none" rx="3" ry="3" style="stroke:#038048;stroke-width:1;"/></g><text fill="#000000" font-family="sans-serif" font-size="14" lengthAdjust="spacing" textLength="190.0801" x="158.63" y="386.0732">Incidence_angle_text [0..1]</text><g data-visibility-modifier="PUBLIC_FIELD"><ellipse cx="149.63" cy="399.0234" fill="none" rx="3" ry="3" style="stroke:#038048;stroke-width:1;"/></g><text fill="#000000" font-family="sans-serif" font-size="14" lengthAdjust="spacing" textLength="144.0879" x="158.63" y="402.3701">Solar_distance [0..1]</text><g data-visibility-modifier="PUBLIC_FIELD"><ellipse cx="149.63" cy="415.3203" fill="none" rx="3" ry="3" style="stroke:#038048;stroke-width:1;"/></g><text fill="#000000" font-family="sans-serif" font-size="14" lengthAdjust="spacing" textLength="178.9648" x="158.63" y="418.667">Solar_distance_text [0..1]</text><g data-visibility-modifier="PUBLIC_FIELD"><ellipse cx="149.63" cy="431.6172" fill="none" rx="3" ry="3" style="stroke:#038048;stroke-width:1;"/></g><text fill="#000000" font-family="sans-serif" font-size="14" lengthAdjust="spacing" textLength="150.7324" x="158.63" y="434.9639">Solar_longitude [0..1]</text><g data-visibility-modifier="PUBLIC_FIELD"><ellipse cx="149.63" cy="447.9141" fill="none" rx="3" ry="3" style="stroke:#038048;stroke-width:1;"/></g><text fill="#000000" font-family="sans-serif" font-size="14" lengthAdjust="spacing" textLength="204.2988" x="158.63" y="451.2607">Predicted_dust_opacity [0..1]</text><g data-visibility-modifier="PUBLIC_FIELD"><ellipse cx="149.63" cy="464.2109" fill="none" rx="3" ry="3" style="stroke:#038048;stroke-width:1;"/></g><text fill="#000000" font-family="sans-serif" font-size="14" lengthAdjust="spacing" textLength="239.1758" x="158.63" y="467.5576">Predicted_dust_opacity_text [0..1]</text><g data-visibility-modifier="PUBLIC_FIELD"><ellipse cx="149.63" cy="480.5078" fill="none" rx="3" ry="3" style="stroke:#038048;stroke-width:1;"/></g><text fill="#000000" font-family="sans-serif" font-size="14" lengthAdjust="spacing" textLength="203.4922" x="158.63" y="483.8545">Easternmost_longitude [0..1]</text><g data-visibility-modifier="PUBLIC_FIELD"><ellipse cx="149.63" cy="496.8047" fill="none" rx="3" ry="3" style="stroke:#038048;stroke-width:1;"/></g><text fill="#000000" font-family="sans-serif" font-size="14" lengthAdjust="spacing" textLength="238.3691" x="158.63" y="500.1514">Easternmost_longitude_text [0..1]</text><g data-visibility-modifier="PUBLIC_FIELD"><ellipse cx="149.63" cy="513.1016" fill="none" rx="3" ry="3" style="stroke:#038048;stroke-width:1;"/></g><text fill="#000000" font-family="sans-serif" font-size="14" lengthAdjust="spacing" textLength="208.5234" x="158.63" y="516.4482">Westernmost_longitude [0..1]</text><g data-visibility-modifier="PUBLIC_FIELD"><ellipse cx="149.63" cy="529.3984" fill="none" rx="3" ry="3" style="stroke:#038048;stroke-width:1;"/></g><text fill="#000000" font-family="sans-serif" font-size="14" lengthAdjust="spacing" textLength="243.4004" x="158.63" y="532.7451">Westernmost_longitude_text [0..1]</text><g data-visibility-modifier="PUBLIC_FIELD"><ellipse cx="149.63" cy="545.6953" fill="none" rx="3" ry="3" style="stroke:#038048;stroke-width:1;"/></g><text fill="#000000" font-family="sans-serif" font-size="14" lengthAdjust="spacing" textLength="189.3076" x="158.63" y="549.042">Maximimum_latitude [0..1]</text><g data-visibility-modifier="PUBLIC_FIELD"><ellipse cx="149.63" cy="561.9922" fill="none" rx="3" ry="3" style="stroke:#038048;stroke-width:1;"/></g><text fill="#000000" font-family="sans-serif" font-size="14" lengthAdjust="spacing" textLength="224.1846" x="158.63" y="565.3389">Maximimum_latitude_text [0..1]</text><g data-visibility-modifier="PUBLIC_FIELD"><ellipse cx="149.63" cy="578.2891" fill="none" rx="3" ry="3" style="stroke:#038048;stroke-width:1;"/></g><text fill="#000000" font-family="sans-serif" font-size="14" lengthAdjust="spacing" textLength="167.6787" x="158.63" y="581.6357">Minimum_latitude [0..1]</text><g data-visibility-modifier="PUBLIC_FIELD"><ellipse cx="149.63" cy="594.5859" fill="none" rx="3" ry="3" style="stroke:#038048;stroke-width:1;"/></g><text fill="#000000" font-family="sans-serif" font-size="14" lengthAdjust="spacing" textLength="202.5557" x="158.63" y="597.9326">Minimum_latitude_text [0..1]</text><g data-visibility-modifier="PUBLIC_FIELD"><ellipse cx="149.63" cy="610.8828" fill="none" rx="3" ry="3" style="stroke:#038048;stroke-width:1;"/></g><text fill="#000000" font-family="sans-serif" font-size="14" lengthAdjust="spacing" textLength="180.5029" x="158.63" y="614.2295">Footprint_geometry [0..1]</text><g data-visibility-modifier="PUBLIC_FIELD"><ellipse cx="149.63" cy="627.1797" fill="none" rx="3" ry="3" style="stroke:#038048;stroke-width:1;"/></g><text fill="#000000" font-family="sans-serif" font-size="14" lengthAdjust="spacing" textLength="206.1855" x="158.63" y="630.5264">Footprint_C0_geometry [0..1]</text><g data-visibility-modifier="PUBLIC_FIELD"><ellipse cx="149.63" cy="643.4766" fill="none" rx="3" ry="3" style="stroke:#038048;stroke-width:1;"/></g><text fill="#000000" font-family="sans-serif" font-size="14" lengthAdjust="spacing" textLength="206.1514" x="158.63" y="646.8232">Footprint_GL_geometry [0..1]</text><g data-visibility-modifier="PUBLIC_FIELD"><ellipse cx="149.63" cy="659.7734" fill="none" rx="3" ry="3" style="stroke:#038048;stroke-width:1;"/></g><text fill="#000000" font-family="sans-serif" font-size="14" lengthAdjust="spacing" textLength="208.3799" x="158.63" y="663.1201">Footprint_NP_Geometry [0..1]</text><g data-visibility-modifier="PUBLIC_FIELD"><ellipse cx="149.63" cy="676.0703" fill="none" rx="3" ry="3" style="stroke:#038048;stroke-width:1;"/></g><text fill="#000000" font-family="sans-serif" font-size="14" lengthAdjust="spacing" textLength="206.7939" x="158.63" y="679.417">Footprint_SP_Geometry [0..1]</text><g data-visibility-modifier="PUBLIC_FIELD"><ellipse cx="149.63" cy="692.3672" fill="none" rx="3" ry="3" style="stroke:#038048;stroke-width:1;"/></g><text fill="#000000" font-family="sans-serif" font-size="14" lengthAdjust="spacing" textLength="153.6992" x="158.63" y="695.7139">Footprint_souce [0..1]</text><g data-visibility-modifier="PUBLIC_FIELD"><ellipse cx="149.63" cy="708.6641" fill="none" rx="3" ry="3" style="stroke:#038048;stroke-width:1;"/></g><text fill="#000000" font-family="sans-serif" font-size="14" lengthAdjust="spacing" textLength="218.3877" x="158.63" y="712.0107">Footprint_cross_meridian [0..1]</text><g data-visibility-modifier="PUBLIC_FIELD"><ellipse cx="149.63" cy="724.9609" fill="none" rx="3" ry="3" style="stroke:#038048;stroke-width:1;"/></g><text fill="#000000" font-family="sans-serif" font-size="14" lengthAdjust="spacing" textLength="114.0645" x="158.63" y="728.3076">Pole_state [0..1]</text><g data-visibility-modifier="PUBLIC_FIELD"><ellipse cx="149.63" cy="741.2578" fill="none" rx="3" ry="3" style="stroke:#038048;stroke-width:1;"/></g><text fill="#000000" font-family="sans-serif" font-size="14" lengthAdjust="spacing" textLength="198.625" x="158.63" y="744.6045">Center_georeferenced [0..1]</text><g data-visibility-modifier="PUBLIC_FIELD"><ellipse cx="149.63" cy="757.5547" fill="none" rx="3" ry="3" style="stroke:#038048;stroke-width:1;"/></g><text fill="#000000" font-family="sans-serif" font-size="14" lengthAdjust="spacing" textLength="149.9189" x="158.63" y="760.9014">Center_latitude [0..1]</text><g data-visibility-modifier="PUBLIC_FIELD"><ellipse cx="149.63" cy="773.8516" fill="none" rx="3" ry="3" style="stroke:#038048;stroke-width:1;"/></g><text fill="#000000" font-family="sans-serif" font-size="14" lengthAdjust="spacing" textLength="162.1758" x="158.63" y="777.1982">Center_longitude [0..1]</text><g data-visibility-modifier="PUBLIC_FIELD"><ellipse cx="149.63" cy="790.1484" fill="none" rx="3" ry="3" style="stroke:#038048;stroke-width:1;"/></g><text fill="#000000" font-family="sans-serif" font-size="14" lengthAdjust="spacing" textLength="184.7959" x="158.63" y="793.4951">Center_latitude_text [0..1]</text><g data-visibility-modifier="PUBLIC_FIELD"><ellipse cx="149.63" cy="806.4453" fill="none" rx="3" ry="3" style="stroke:#038048;stroke-width:1;"/></g><text fill="#000000" font-family="sans-serif" font-size="14" lengthAdjust="spacing" textLength="197.0527" x="158.63" y="809.792">Center_longitude_text [0..1]</text><g data-visibility-modifier="PUBLIC_FIELD"><ellipse cx="149.63" cy="822.7422" fill="none" rx="3" ry="3" style="stroke:#038048;stroke-width:1;"/></g><text fill="#000000" font-family="sans-serif" font-size="14" lengthAdjust="spacing" textLength="170.7139" x="158.63" y="826.0889">BB_georeferenced [0..1]</text><line style="stroke:#181818;stroke-width:0.5;" x1="139.63" x2="407.0304" y1="833.3906" y2="833.3906"/></g><!--reverse link FeatureOfInterest to ODEUltimateFeatureOfInterest--><g class="link" data-entity-1="ent0002" data-entity-2="ent0003" data-link-type="extension" data-source-line="45" id="lnk6"><path codeLine="45" d="M227.4891,65.9783 C203.6491,83.6483 185.46,97.13 161.64,114.79" fill="none" id="FeatureOfInterest-backto-ODEUltimateFeatureOfInterest" style="stroke:#181818;stroke-width:1;stroke-dasharray:7,7;"/><polygon fill="none" points="241.95,55.26,223.9163,61.158,231.0619,70.7986,241.95,55.26" style="stroke:#181818;stroke-width:1;"/></g><!--reverse link FeatureOfInterest to ODEProximateFeatureOfInterest--><g class="link" data-entity-1="ent0002" data-entity-2="ent0004" data-link-type="extension" data-source-line="46" id="lnk7"><path codeLine="46" d="M319.4272,65.9291 C343.4372,83.5991 361.81,97.13 385.8,114.79" fill="none" id="FeatureOfInterest-backto-ODEProximateFeatureOfInterest" style="stroke:#181818;stroke-width:1;stroke-dasharray:7,7;"/><polygon fill="none" points="304.93,55.26,315.8708,70.7615,322.9836,61.0967,304.93,55.26" style="stroke:#181818;stroke-width:1;"/></g><!--link ODEUltimateFeatureOfInterest to PdsRecordModel--><g class="link" data-entity-1="ent0003" data-entity-2="ent0005" data-link-type="association" data-source-line="47" id="lnk8"><path codeLine="47" d="M138.85,163.3 C144.2,177.94 151.75,198.6 160.58,222.76" fill="none" id="ODEUltimateFeatureOfInterest-PdsRecordModel" style="stroke:#181818;stroke-width:1;"/></g><!--link ODEProximateFeatureOfInterest to PdsRecordModel--><g class="link" data-entity-1="ent0004" data-entity-2="ent0005" data-link-type="association" data-source-line="48" id="lnk9"><path codeLine="48" d="M408.75,163.3 C403.37,177.94 395.76,198.6 386.87,222.76" fill="none" id="ODEProximateFeatureOfInterest-PdsRecordModel" style="stroke:#181818;stroke-width:1;"/></g><?plantuml-src XPJBQiCm44Nt_WhjIqowxofF0arZcfOkIX63D745UWHf30bj_xrAe3IsP7kfkUTU2MaqoXBw0mXaAmHgFEuEcqi90nM5q102sosMhvgK0S8XflBkD0nLCZoZS5vkdKJDlWh6xjWB-1g9Mp1uNIym2A-Ef9nbxzEolF-ubfT6XH1h76ojiL_XX2UwbQjF29YwRig9PME5acX5njQH4klUQV1Sga0GeNwbnwYThHKridrKZr89Gibb4uYx8mX5vt4YsMC98Jw8DIuosPsoG1BpXYCnMI29sK9i5sKQmpLGaf6gQO2o_VQEbfXNpj7HAqkyHcUG_3clpgSZmFfn17Yg-7eGs8y1mJNjNlgNX7SXS8DUIGMj3rEvs9wnsQZbdEFbJrvExF4GFsTiHPdHSrVw9-LUl6DBRhlhJO3PB7-cdw98nWbx-2xBuQdKxncOKaE9R3BfZAzYC2p3_m80?></g></svg>