<?plantuml 1.2026.1?><svg xmlns="http://www.w3.org/2000/svg" xmlns:xlink="http://www.w3.org/1999/xlink" contentStyleType="text/css" data-diagram-type="CLASS" height="310px" preserveAspectRatio="none" style="width:219px;height:310px;background:#FFFFFF;" version="1.1" viewBox="0 0 219 310" width="219px" zoomAndPan="magnify"><defs/><g><!--class ObservingProcedure--><g class="entity" data-qualified-name="ObservingProcedure" data-source-line="1" id="ent0002"><rect fill="#F1F1F1" height="48" rx="2.5" ry="2.5" style="stroke:#181818;stroke-width:0.5;" width="174.707" x="22.32" y="7"/><ellipse cx="37.32" cy="23" fill="#B4A7E5" rx="11" ry="11" style="stroke:#181818;stroke-width:1;"/><path d="M33.2419,18.7656 L33.2419,16.6094 L40.6325,16.6094 L40.6325,18.7656 L38.1638,18.7656 L38.1638,26.8438 L40.6325,26.8438 L40.6325,29 L33.2419,29 L33.2419,26.8438 L35.7106,26.8438 L35.7106,18.7656 L33.2419,18.7656 Z " fill="#000000"/><text fill="#000000" font-family="sans-serif" font-size="14" font-style="italic" lengthAdjust="spacing" textLength="142.707" x="51.32" y="27.8467">ObservingProcedure</text><line style="stroke:#181818;stroke-width:0.5;" x1="23.32" x2="196.027" y1="39" y2="39"/><line style="stroke:#181818;stroke-width:0.5;" x1="23.32" x2="196.027" y1="47" y2="47"/></g><!--class ODEObservingProcedure--><g class="entity" data-qualified-name="ODEObservingProcedure" data-source-line="3" id="ent0003"><rect fill="#F1F1F1" height="48" rx="2.5" ry="2.5" style="stroke:#181818;stroke-width:0.5;" width="205.3525" x="7" y="115"/><ellipse cx="22" cy="131" fill="#ADD1B2" rx="11" ry="11" style="stroke:#181818;stroke-width:1;"/><path d="M24.9688,136.6406 Q24.3906,136.9375 23.75,137.0781 Q23.1094,137.2344 22.4063,137.2344 Q19.9063,137.2344 18.5781,135.5937 Q17.2656,133.9375 17.2656,130.8125 Q17.2656,127.6875 18.5781,126.0312 Q19.9063,124.375 22.4063,124.375 Q23.1094,124.375 23.75,124.5312 Q24.4063,124.6875 24.9688,124.9844 L24.9688,127.7031 Q24.3438,127.125 23.75,126.8594 Q23.1563,126.5781 22.5313,126.5781 Q21.1875,126.5781 20.5,127.6562 Q19.8125,128.7187 19.8125,130.8125 Q19.8125,132.9062 20.5,133.9844 Q21.1875,135.0469 22.5313,135.0469 Q23.1563,135.0469 23.75,134.7812 Q24.3438,134.5 24.9688,133.9219 L24.9688,136.6406 Z " fill="#000000"/><text fill="#000000" font-family="sans-serif" font-size="14" lengthAdjust="spacing" textLength="173.3525" x="36" y="135.8467">ODEObservingProcedure</text><line style="stroke:#181818;stroke-width:0.5;" x1="8" x2="211.3525" y1="147" y2="147"/><line style="stroke:#181818;stroke-width:0.5;" x1="8" x2="211.3525" y1="155" y2="155"/></g><!--class PdsRecordModel--><g class="entity" data-qualified-name="PdsRecordModel" data-source-line="5" id="ent0004"><rect fill="#F1F1F1" height="80.5938" rx="2.5" ry="2.5" style="stroke:#181818;stroke-width:0.5;" width="150.4551" x="34.45" y="223"/><ellipse cx="50.5983" cy="239" fill="#ADD1B2" rx="11" ry="11" style="stroke:#181818;stroke-width:1;"/><path d="M53.567,244.6406 Q52.9889,244.9375 52.3483,245.0781 Q51.7077,245.2344 51.0045,245.2344 Q48.5045,245.2344 47.1764,243.5937 Q45.8639,241.9375 45.8639,238.8125 Q45.8639,235.6875 47.1764,234.0312 Q48.5045,232.375 51.0045,232.375 Q51.7077,232.375 52.3483,232.5312 Q53.0045,232.6875 53.567,232.9844 L53.567,235.7031 Q52.942,235.125 52.3483,234.8594 Q51.7545,234.5781 51.1295,234.5781 Q49.7858,234.5781 49.0983,235.6562 Q48.4108,236.7187 48.4108,238.8125 Q48.4108,240.9062 49.0983,241.9844 Q49.7858,243.0469 51.1295,243.0469 Q51.7545,243.0469 52.3483,242.7812 Q52.942,242.5 53.567,241.9219 L53.567,244.6406 Z " fill="#000000"/><text fill="#000000" font-family="sans-serif" font-size="14" lengthAdjust="spacing" textLength="115.9033" x="64.8535" y="243.8467">PdsRecordModel</text><line style="stroke:#181818;stroke-width:0.5;" x1="35.45" x2="183.9051" y1="255" y2="255"/><g data-visibility-modifier="PUBLIC_FIELD"><ellipse cx="45.45" cy="268.6484" fill="none" rx="3" ry="3" style="stroke:#038048;stroke-width:1;"/></g><text fill="#000000" font-family="sans-serif" font-size="14" lengthAdjust="spacing" textLength="114.4678" x="54.45" y="271.9951">Activity_id [0..1]</text><g data-visibility-modifier="PUBLIC_FIELD"><ellipse cx="45.45" cy="284.9453" fill="none" rx="3" ry="3" style="stroke:#038048;stroke-width:1;"/></g><text fill="#000000" font-family="sans-serif" font-size="14" lengthAdjust="spacing" textLength="124.4551" x="54.45" y="288.292">Producer_id [0..1]</text><line style="stroke:#181818;stroke-width:0.5;" x1="35.45" x2="183.9051" y1="295.5938" y2="295.5938"/></g><!--reverse link ObservingProcedure to ODEObservingProcedure--><g class="link" data-entity-1="ent0002" data-entity-2="ent0003" data-link-type="extension" data-source-line="10" id="lnk5"><path codeLine="10" d="M109.68,73.26 C109.68,90.93 109.68,97.13 109.68,114.79" fill="none" id="ObservingProcedure-backto-ODEObservingProcedure" style="stroke:#181818;stroke-width:1;stroke-dasharray:7,7;"/><polygon fill="none" points="109.68,55.26,103.68,73.26,115.68,73.26,109.68,55.26" style="stroke:#181818;stroke-width:1;"/></g><!--link ODEObservingProcedure to PdsRecordModel--><g class="link" data-entity-1="ent0003" data-entity-2="ent0004" data-link-type="association" data-source-line="11" id="lnk6"><path codeLine="11" d="M109.68,163.29 C109.68,180.06 109.68,203.09 109.68,222.73" fill="none" id="ODEObservingProcedure-PdsRecordModel" style="stroke:#181818;stroke-width:1;"/></g><?plantuml-src oymhIIrAIqnELL3mJofEBIhBp4iFACfFJaqfBKhbuahEIImkLl1tSSKj6P1I79IQd5-KufkVafgZKCsbeA2ju9XSabcMML8PdvcY46sWfsSO2nO6QaufJKujGXAkvUB2D5l1faPF3uUrM4KLT7NH7080?></g></svg>