<svg xmlns="http://www.w3.org/2000/svg" xmlns:xlink="http://www.w3.org/1999/xlink" contentStyleType="text/css" data-diagram-type="CLASS" height="1641px" preserveAspectRatio="none" style="width:421px;height:1641px;background:#FEFEFE;" version="1.1" viewBox="0 0 421 1641" width="421px" zoomAndPan="magnify"><?plantuml 1.2026.6?><defs/><g><rect fill="#FEFEFE" height="1641" style="stroke:none;stroke-width:1;" width="421" x="0" y="0"/><!--cluster O&M--><g class="cluster" data-qualified-name="O.M" data-source-line="29" id="ent0001"><path d="M8.5,554 L42.1074,554 A3.75,3.75 0 0 1 44.6074,556.5 L51.6074,573.9688 L173.93,573.9688 A2.5,2.5 0 0 1 176.43,576.4688 L176.43,1075.5 A2.5,2.5 0 0 1 173.93,1078 L8.5,1078 A2.5,2.5 0 0 1 6,1075.5 L6,556.5 A2.5,2.5 0 0 1 8.5,554" fill="none" style="stroke:#555555;stroke-width:1.5;"/><line style="stroke:#555555;stroke-width:1.5;" x1="6" x2="51.6074" y1="573.9688" y2="573.9688"/><text fill="#000000" font-family="sans-serif" font-size="12" font-weight="700" lengthAdjust="spacing" textLength="32.6074" x="10" y="567.1387">O&amp;M</text></g><!--cluster EPN-TAP--><g class="cluster" data-qualified-name="EPN-TAP" data-source-line="39" id="ent0009"><path d="M210.8,6 L270.0832,6 A3.75,3.75 0 0 1 272.5832,8.5 L279.5832,25.9688 L400.02,25.9688 A2.5,2.5 0 0 1 402.52,28.4688 L402.52,527.5 A2.5,2.5 0 0 1 400.02,530 L210.8,530 A2.5,2.5 0 0 1 208.3,527.5 L208.3,8.5 A2.5,2.5 0 0 1 210.8,6" fill="none" style="stroke:#555555;stroke-width:1.5;"/><line style="stroke:#555555;stroke-width:1.5;" x1="208.3" x2="279.5832" y1="25.9688" y2="25.9688"/><text fill="#000000" font-family="sans-serif" font-size="12" font-weight="700" lengthAdjust="spacing" textLength="58.2832" x="212.3" y="19.1387">EPN-TAP</text></g><!--cluster NASA ODE--><g class="cluster" data-qualified-name="NASA ODE" data-source-line="49" id="ent0017"><path d="M209.56,554 L280.3569,554 A3.75,3.75 0 0 1 282.8569,556.5 L289.8569,573.9688 L401.26,573.9688 A2.5,2.5 0 0 1 403.76,576.4688 L403.76,1075.5 A2.5,2.5 0 0 1 401.26,1078 L209.56,1078 A2.5,2.5 0 0 1 207.06,1075.5 L207.06,556.5 A2.5,2.5 0 0 1 209.56,554" fill="none" style="stroke:#555555;stroke-width:1.5;"/><line style="stroke:#555555;stroke-width:1.5;" x1="207.06" x2="289.8569" y1="573.9688" y2="573.9688"/><text fill="#000000" font-family="sans-serif" font-size="12" font-weight="700" lengthAdjust="spacing" textLength="69.7969" x="211.06" y="567.1387">NASA ODE</text></g><!--cluster STAC--><g class="cluster" data-qualified-name="STAC" data-source-line="59" id="ent0025"><path d="M206.93,1102 L242.8519,1102 A3.75,3.75 0 0 1 245.3519,1104.5 L252.3519,1121.9688 L403.89,1121.9688 A2.5,2.5 0 0 1 406.39,1124.4688 L406.39,1623.5 A2.5,2.5 0 0 1 403.89,1626 L206.93,1626 A2.5,2.5 0 0 1 204.43,1623.5 L204.43,1104.5 A2.5,2.5 0 0 1 206.93,1102" fill="none" style="stroke:#555555;stroke-width:1.5;"/><line style="stroke:#555555;stroke-width:1.5;" x1="204.43" x2="252.3519" y1="1121.9688" y2="1121.9688"/><text fill="#000000" font-family="sans-serif" font-size="12" font-weight="700" lengthAdjust="spacing" textLength="34.9219" x="208.43" y="1115.1387">STAC</text></g><!--class Observation--><g class="entity" data-qualified-name="O.M.Observation" data-source-line="30" id="ent0002"><rect fill="#EEEEEE" height="37.9375" rx="2.5" ry="2.5" style="stroke:#555555;stroke-width:0.5;" width="79.0723" x="51.68" y="1024.03"/><text fill="#000000" font-family="sans-serif" font-size="12" font-style="italic" lengthAdjust="spacing" textLength="34.4824" x="73.9749" y="1040.1687">&#171;OM&#187;</text><text fill="#000000" font-family="sans-serif" font-size="12" lengthAdjust="spacing" textLength="73.0723" x="54.68" y="1054.1374">Observation</text></g><!--class FeatureOfInterest--><g class="entity" data-qualified-name="O.M.FeatureOfInterest" data-source-line="31" id="ent0003"><rect fill="#EEEEEE" height="37.9375" rx="2.5" ry="2.5" style="stroke:#555555;stroke-width:0.5;" width="112.4414" x="34.99" y="951.03"/><text fill="#000000" font-family="sans-serif" font-size="12" font-style="italic" lengthAdjust="spacing" textLength="34.4824" x="73.9695" y="967.1687">&#171;OM&#187;</text><text fill="#000000" font-family="sans-serif" font-size="12" lengthAdjust="spacing" textLength="106.4414" x="37.99" y="981.1374">FeatureOfInterest</text></g><!--class Observer--><g class="entity" data-qualified-name="O.M.Observer" data-source-line="32" id="ent0004"><rect fill="#EEEEEE" height="37.9375" rx="2.5" ry="2.5" style="stroke:#555555;stroke-width:0.5;" width="61.0488" x="60.69" y="878.03"/><text fill="#000000" font-family="sans-serif" font-size="12" font-style="italic" lengthAdjust="spacing" textLength="34.4824" x="73.9732" y="894.1687">&#171;OM&#187;</text><text fill="#000000" font-family="sans-serif" font-size="12" lengthAdjust="spacing" textLength="55.0488" x="63.69" y="908.1374">Observer</text></g><!--class ObservingProcedure--><g class="entity" data-qualified-name="O.M.ObservingProcedure" data-source-line="33" id="ent0005"><rect fill="#EEEEEE" height="37.9375" rx="2.5" ry="2.5" style="stroke:#555555;stroke-width:0.5;" width="128.3203" x="27.05" y="805.03"/><text fill="#000000" font-family="sans-serif" font-size="12" font-style="italic" lengthAdjust="spacing" textLength="34.4824" x="73.9689" y="821.1687">&#171;OM&#187;</text><text fill="#000000" font-family="sans-serif" font-size="12" lengthAdjust="spacing" textLength="122.3203" x="30.05" y="835.1374">ObservingProcedure</text></g><!--class ObservableProperty--><g class="entity" data-qualified-name="O.M.ObservableProperty" data-source-line="34" id="ent0006"><rect fill="#EEEEEE" height="37.9375" rx="2.5" ry="2.5" style="stroke:#555555;stroke-width:0.5;" width="125.6719" x="28.38" y="732.03"/><text fill="#000000" font-family="sans-serif" font-size="12" font-style="italic" lengthAdjust="spacing" textLength="34.4824" x="73.9747" y="748.1687">&#171;OM&#187;</text><text fill="#000000" font-family="sans-serif" font-size="12" lengthAdjust="spacing" textLength="119.6719" x="31.38" y="762.1374">ObservableProperty</text></g><!--class Result--><g class="entity" data-qualified-name="O.M.Result" data-source-line="35" id="ent0007"><rect fill="#EEEEEE" height="37.9375" rx="2.5" ry="2.5" style="stroke:#555555;stroke-width:0.5;" width="43.6172" x="69.41" y="659.03"/><text fill="#000000" font-family="sans-serif" font-size="12" font-style="italic" lengthAdjust="spacing" textLength="34.4824" x="73.9774" y="675.1687">&#171;OM&#187;</text><text fill="#000000" font-family="sans-serif" font-size="12" lengthAdjust="spacing" textLength="37.6172" x="72.41" y="689.1374">Result</text></g><!--class ObservationCollection--><g class="entity" data-qualified-name="O.M.ObservationCollection" data-source-line="36" id="ent0008"><rect fill="#EEEEEE" height="37.9375" rx="2.5" ry="2.5" style="stroke:#555555;stroke-width:0.5;" width="138.4277" x="22" y="586.03"/><text fill="#000000" font-family="sans-serif" font-size="12" font-style="italic" lengthAdjust="spacing" textLength="34.4824" x="73.9727" y="602.1687">&#171;OM&#187;</text><text fill="#000000" font-family="sans-serif" font-size="12" lengthAdjust="spacing" textLength="132.4277" x="25" y="616.1374">ObservationCollection</text></g><!--class EPNObservation--><g class="entity" data-qualified-name="EPN-TAP.EPNObservation" data-source-line="40" id="ent0010"><rect fill="#D6EAF8" height="37.9375" rx="2.5" ry="2.5" style="stroke:#555555;stroke-width:0.5;" width="102.8672" x="253.98" y="476.03"/><text fill="#000000" font-family="sans-serif" font-size="12" font-style="italic" lengthAdjust="spacing" textLength="38.4785" x="286.1743" y="492.1687">&#171;EPN&#187;</text><text fill="#000000" font-family="sans-serif" font-size="12" lengthAdjust="spacing" textLength="96.8672" x="256.98" y="506.1374">EPNObservation</text></g><!--class EPNFeatureOfInterest--><g class="entity" data-qualified-name="EPN-TAP.EPNFeatureOfInterest" data-source-line="41" id="ent0011"><rect fill="#D6EAF8" height="37.9375" rx="2.5" ry="2.5" style="stroke:#555555;stroke-width:0.5;" width="136.2363" x="237.29" y="403.03"/><text fill="#000000" font-family="sans-serif" font-size="12" font-style="italic" lengthAdjust="spacing" textLength="38.4785" x="286.1689" y="419.1687">&#171;EPN&#187;</text><text fill="#000000" font-family="sans-serif" font-size="12" lengthAdjust="spacing" textLength="130.2363" x="240.29" y="433.1374">EPNFeatureOfInterest</text></g><!--class EPNObserver--><g class="entity" data-qualified-name="EPN-TAP.EPNObserver" data-source-line="42" id="ent0012"><rect fill="#D6EAF8" height="37.9375" rx="2.5" ry="2.5" style="stroke:#555555;stroke-width:0.5;" width="84.8438" x="262.99" y="330.03"/><text fill="#000000" font-family="sans-serif" font-size="12" font-style="italic" lengthAdjust="spacing" textLength="38.4785" x="286.1726" y="346.1687">&#171;EPN&#187;</text><text fill="#000000" font-family="sans-serif" font-size="12" lengthAdjust="spacing" textLength="78.8438" x="265.99" y="360.1374">EPNObserver</text></g><!--class EPNObservingProcedure--><g class="entity" data-qualified-name="EPN-TAP.EPNObservingProcedure" data-source-line="43" id="ent0013"><rect fill="#D6EAF8" height="37.9375" rx="2.5" ry="2.5" style="stroke:#555555;stroke-width:0.5;" width="152.1152" x="229.35" y="257.03"/><text fill="#000000" font-family="sans-serif" font-size="12" font-style="italic" lengthAdjust="spacing" textLength="38.4785" x="286.1684" y="273.1687">&#171;EPN&#187;</text><text fill="#000000" font-family="sans-serif" font-size="12" lengthAdjust="spacing" textLength="146.1152" x="232.35" y="287.1374">EPNObservingProcedure</text></g><!--class EPNObservableProperty--><g class="entity" data-qualified-name="EPN-TAP.EPNObservableProperty" data-source-line="44" id="ent0014"><rect fill="#D6EAF8" height="37.9375" rx="2.5" ry="2.5" style="stroke:#555555;stroke-width:0.5;" width="149.4668" x="230.68" y="184.03"/><text fill="#000000" font-family="sans-serif" font-size="12" font-style="italic" lengthAdjust="spacing" textLength="38.4785" x="286.1741" y="200.1687">&#171;EPN&#187;</text><text fill="#000000" font-family="sans-serif" font-size="12" lengthAdjust="spacing" textLength="143.4668" x="233.68" y="214.1374">EPNObservableProperty</text></g><!--class EPNResult--><g class="entity" data-qualified-name="EPN-TAP.EPNResult" data-source-line="45" id="ent0015"><rect fill="#D6EAF8" height="37.9375" rx="2.5" ry="2.5" style="stroke:#555555;stroke-width:0.5;" width="67.4121" x="271.7" y="111.03"/><text fill="#000000" font-family="sans-serif" font-size="12" font-style="italic" lengthAdjust="spacing" textLength="38.4785" x="286.1668" y="127.1687">&#171;EPN&#187;</text><text fill="#000000" font-family="sans-serif" font-size="12" lengthAdjust="spacing" textLength="61.4121" x="274.7" y="141.1374">EPNResult</text></g><!--class EPNObservationCollection--><g class="entity" data-qualified-name="EPN-TAP.EPNObservationCollection" data-source-line="46" id="ent0016"><rect fill="#D6EAF8" height="37.9375" rx="2.5" ry="2.5" style="stroke:#555555;stroke-width:0.5;" width="162.2227" x="224.3" y="38.03"/><text fill="#000000" font-family="sans-serif" font-size="12" font-style="italic" lengthAdjust="spacing" textLength="38.4785" x="286.1721" y="54.1687">&#171;EPN&#187;</text><text fill="#000000" font-family="sans-serif" font-size="12" lengthAdjust="spacing" textLength="156.2227" x="227.3" y="68.1374">EPNObservationCollection</text></g><!--class ODEObservation--><g class="entity" data-qualified-name="NASA ODE.ODEObservation" data-source-line="50" id="ent0018"><rect fill="#D5F5E3" height="37.9375" rx="2.5" ry="2.5" style="stroke:#555555;stroke-width:0.5;" width="105.3398" x="252.74" y="1024.03"/><text fill="#000000" font-family="sans-serif" font-size="12" font-style="italic" lengthAdjust="spacing" textLength="40.9512" x="284.9343" y="1040.1687">&#171;ODE&#187;</text><text fill="#000000" font-family="sans-serif" font-size="12" lengthAdjust="spacing" textLength="99.3398" x="255.74" y="1054.1374">ODEObservation</text></g><!--class ODEFeatureOfInterest--><g class="entity" data-qualified-name="NASA ODE.ODEFeatureOfInterest" data-source-line="51" id="ent0019"><rect fill="#D5F5E3" height="37.9375" rx="2.5" ry="2.5" style="stroke:#555555;stroke-width:0.5;" width="138.709" x="236.05" y="951.03"/><text fill="#000000" font-family="sans-serif" font-size="12" font-style="italic" lengthAdjust="spacing" textLength="40.9512" x="284.9289" y="967.1687">&#171;ODE&#187;</text><text fill="#000000" font-family="sans-serif" font-size="12" lengthAdjust="spacing" textLength="132.709" x="239.05" y="981.1374">ODEFeatureOfInterest</text></g><!--class ODEObserver--><g class="entity" data-qualified-name="NASA ODE.ODEObserver" data-source-line="52" id="ent0020"><rect fill="#D5F5E3" height="37.9375" rx="2.5" ry="2.5" style="stroke:#555555;stroke-width:0.5;" width="87.3164" x="261.75" y="878.03"/><text fill="#000000" font-family="sans-serif" font-size="12" font-style="italic" lengthAdjust="spacing" textLength="40.9512" x="284.9326" y="894.1687">&#171;ODE&#187;</text><text fill="#000000" font-family="sans-serif" font-size="12" lengthAdjust="spacing" textLength="81.3164" x="264.75" y="908.1374">ODEObserver</text></g><!--class ODEObservingProcedure--><g class="entity" data-qualified-name="NASA ODE.ODEObservingProcedure" data-source-line="53" id="ent0021"><rect fill="#D5F5E3" height="37.9375" rx="2.5" ry="2.5" style="stroke:#555555;stroke-width:0.5;" width="154.5879" x="228.12" y="805.03"/><text fill="#000000" font-family="sans-serif" font-size="12" font-style="italic" lengthAdjust="spacing" textLength="40.9512" x="284.9384" y="821.1687">&#171;ODE&#187;</text><text fill="#000000" font-family="sans-serif" font-size="12" lengthAdjust="spacing" textLength="148.5879" x="231.12" y="835.1374">ODEObservingProcedure</text></g><!--class ODEObservableProperty--><g class="entity" data-qualified-name="NASA ODE.ODEObservableProperty" data-source-line="54" id="ent0022"><rect fill="#D5F5E3" height="37.9375" rx="2.5" ry="2.5" style="stroke:#555555;stroke-width:0.5;" width="151.9395" x="229.44" y="732.03"/><text fill="#000000" font-family="sans-serif" font-size="12" font-style="italic" lengthAdjust="spacing" textLength="40.9512" x="284.9341" y="748.1687">&#171;ODE&#187;</text><text fill="#000000" font-family="sans-serif" font-size="12" lengthAdjust="spacing" textLength="145.9395" x="232.44" y="762.1374">ODEObservableProperty</text></g><!--class ODEResult--><g class="entity" data-qualified-name="NASA ODE.ODEResult" data-source-line="55" id="ent0023"><rect fill="#D5F5E3" height="37.9375" rx="2.5" ry="2.5" style="stroke:#555555;stroke-width:0.5;" width="69.8848" x="270.47" y="659.03"/><text fill="#000000" font-family="sans-serif" font-size="12" font-style="italic" lengthAdjust="spacing" textLength="40.9512" x="284.9368" y="675.1687">&#171;ODE&#187;</text><text fill="#000000" font-family="sans-serif" font-size="12" lengthAdjust="spacing" textLength="63.8848" x="273.47" y="689.1374">ODEResult</text></g><!--class ODEObservationCollection--><g class="entity" data-qualified-name="NASA ODE.ODEObservationCollection" data-source-line="56" id="ent0024"><rect fill="#D5F5E3" height="37.9375" rx="2.5" ry="2.5" style="stroke:#555555;stroke-width:0.5;" width="164.6953" x="223.06" y="586.03"/><text fill="#000000" font-family="sans-serif" font-size="12" font-style="italic" lengthAdjust="spacing" textLength="40.9512" x="284.9321" y="602.1687">&#171;ODE&#187;</text><text fill="#000000" font-family="sans-serif" font-size="12" lengthAdjust="spacing" textLength="158.6953" x="226.06" y="616.1374">ODEObservationCollection</text></g><!--class STACObservation--><g class="entity" data-qualified-name="STAC.STACObservation" data-source-line="60" id="ent0026"><rect fill="#FEF9E7" height="37.9375" rx="2.5" ry="2.5" style="stroke:#555555;stroke-width:0.5;" width="110.6074" x="250.11" y="1572.03"/><text fill="#000000" font-family="sans-serif" font-size="12" font-style="italic" lengthAdjust="spacing" textLength="46.2188" x="282.3043" y="1588.1687">&#171;STAC&#187;</text><text fill="#000000" font-family="sans-serif" font-size="12" lengthAdjust="spacing" textLength="104.6074" x="253.11" y="1602.1374">STACObservation</text></g><!--class STACFeatureOfInterest--><g class="entity" data-qualified-name="STAC.STACFeatureOfInterest" data-source-line="61" id="ent0027"><rect fill="#FEF9E7" height="37.9375" rx="2.5" ry="2.5" style="stroke:#555555;stroke-width:0.5;" width="143.9766" x="233.42" y="1499.03"/><text fill="#000000" font-family="sans-serif" font-size="12" font-style="italic" lengthAdjust="spacing" textLength="46.2188" x="282.2989" y="1515.1687">&#171;STAC&#187;</text><text fill="#000000" font-family="sans-serif" font-size="12" lengthAdjust="spacing" textLength="137.9766" x="236.42" y="1529.1374">STACFeatureOfInterest</text></g><!--class STACObserver--><g class="entity" data-qualified-name="STAC.STACObserver" data-source-line="62" id="ent0028"><rect fill="#FEF9E7" height="37.9375" rx="2.5" ry="2.5" style="stroke:#555555;stroke-width:0.5;" width="92.584" x="259.12" y="1426.03"/><text fill="#000000" font-family="sans-serif" font-size="12" font-style="italic" lengthAdjust="spacing" textLength="46.2188" x="282.3026" y="1442.1687">&#171;STAC&#187;</text><text fill="#000000" font-family="sans-serif" font-size="12" lengthAdjust="spacing" textLength="86.584" x="262.12" y="1456.1374">STACObserver</text></g><!--class STACObservingProcedure--><g class="entity" data-qualified-name="STAC.STACObservingProcedure" data-source-line="63" id="ent0029"><rect fill="#FEF9E7" height="37.9375" rx="2.5" ry="2.5" style="stroke:#555555;stroke-width:0.5;" width="159.8555" x="225.48" y="1353.03"/><text fill="#000000" font-family="sans-serif" font-size="12" font-style="italic" lengthAdjust="spacing" textLength="46.2188" x="282.2984" y="1369.1687">&#171;STAC&#187;</text><text fill="#000000" font-family="sans-serif" font-size="12" lengthAdjust="spacing" textLength="153.8555" x="228.48" y="1383.1374">STACObservingProcedure</text></g><!--class STACObservableProperty--><g class="entity" data-qualified-name="STAC.STACObservableProperty" data-source-line="64" id="ent0030"><rect fill="#FEF9E7" height="37.9375" rx="2.5" ry="2.5" style="stroke:#555555;stroke-width:0.5;" width="157.207" x="226.81" y="1280.03"/><text fill="#000000" font-family="sans-serif" font-size="12" font-style="italic" lengthAdjust="spacing" textLength="46.2188" x="282.3041" y="1296.1687">&#171;STAC&#187;</text><text fill="#000000" font-family="sans-serif" font-size="12" lengthAdjust="spacing" textLength="151.207" x="229.81" y="1310.1374">STACObservableProperty</text></g><!--class STACResult--><g class="entity" data-qualified-name="STAC.STACResult" data-source-line="65" id="ent0031"><rect fill="#FEF9E7" height="37.9375" rx="2.5" ry="2.5" style="stroke:#555555;stroke-width:0.5;" width="75.1523" x="267.83" y="1207.03"/><text fill="#000000" font-family="sans-serif" font-size="12" font-style="italic" lengthAdjust="spacing" textLength="46.2188" x="282.2968" y="1223.1687">&#171;STAC&#187;</text><text fill="#000000" font-family="sans-serif" font-size="12" lengthAdjust="spacing" textLength="69.1523" x="270.83" y="1237.1374">STACResult</text></g><!--class STACObservationCollection--><g class="entity" data-qualified-name="STAC.STACObservationCollection" data-source-line="66" id="ent0032"><rect fill="#FEF9E7" height="37.9375" rx="2.5" ry="2.5" style="stroke:#555555;stroke-width:0.5;" width="169.9629" x="220.43" y="1134.03"/><text fill="#000000" font-family="sans-serif" font-size="12" font-style="italic" lengthAdjust="spacing" textLength="46.2188" x="282.3021" y="1150.1687">&#171;STAC&#187;</text><text fill="#000000" font-family="sans-serif" font-size="12" lengthAdjust="spacing" textLength="163.9629" x="223.43" y="1164.1374">STACObservationCollection</text></g><!--reverse link Observation to EPNObservation--><g class="link" data-entity-1="ent0002" data-entity-2="ent0010" data-link-type="extension" data-source-line="69" id="lnk33"><path codeLine="69" d="M148.653,1033.1061 C167.993,1028.2261 172.3,1023.41 184.43,1006 C212.13,966.23 173.38,612.63 196.43,570 C209.89,545.1 235.64,526.73 258.62,514.4" fill="none" id="Observation-backto-EPNObservation" style="stroke:#181818;stroke-width:1;stroke-dasharray:7,7;"/><polygon fill="none" points="131.2,1037.51,150.1209,1038.9238,147.185,1027.2885,131.2,1037.51" style="stroke:#181818;stroke-width:1;stroke-linejoin:miter;stroke-miterlimit:10;"/></g><!--reverse link Observation to ODEObservation--><g class="link" data-entity-1="ent0002" data-entity-2="ent0018" data-link-type="extension" data-source-line="70" id="lnk34"><path codeLine="70" d="M149.13,1043 C183.23,1043 215.06,1043 252.54,1043" fill="none" id="Observation-backto-ODEObservation" style="stroke:#181818;stroke-width:1;stroke-dasharray:7,7;"/><polygon fill="none" points="131.13,1043,149.13,1049,149.13,1037,131.13,1043" style="stroke:#181818;stroke-width:1;stroke-linejoin:miter;stroke-miterlimit:10;"/></g><!--reverse link Observation to STACObservation--><g class="link" data-entity-1="ent0002" data-entity-2="ent0026" data-link-type="extension" data-source-line="71" id="lnk35"><path codeLine="71" d="M95.0087,1080.1663 C101.4887,1163.9063 129.71,1478.08 196.43,1554 C210.03,1569.48 230.4,1578.49 249.8,1583.73" fill="none" id="Observation-backto-STACObservation" style="stroke:#181818;stroke-width:1;stroke-dasharray:7,7;"/><polygon fill="none" points="93.62,1062.22,89.0266,1080.6293,100.9908,1079.7034,93.62,1062.22" style="stroke:#181818;stroke-width:1;stroke-linejoin:miter;stroke-miterlimit:10;"/></g><!--reverse link FeatureOfInterest to EPNFeatureOfInterest--><g class="link" data-entity-1="ent0003" data-entity-2="ent0011" data-link-type="extension" data-source-line="73" id="lnk36"><path codeLine="73" d="M164.3666,952.9549 C178.6566,947.4749 175.67,945.61 184.43,933 C214.49,889.74 165.26,501.48 196.43,459 C206.27,445.58 221.29,436.98 237.01,431.49" fill="none" id="FeatureOfInterest-backto-EPNFeatureOfInterest" style="stroke:#181818;stroke-width:1;stroke-dasharray:7,7;"/><polygon fill="none" points="147.56,959.4,166.5149,958.5571,162.2182,947.3527,147.56,959.4" style="stroke:#181818;stroke-width:1;stroke-linejoin:miter;stroke-miterlimit:10;"/></g><!--reverse link FeatureOfInterest to ODEFeatureOfInterest--><g class="link" data-entity-1="ent0003" data-entity-2="ent0019" data-link-type="extension" data-source-line="74" id="lnk37"><path codeLine="74" d="M165.69,970 C192.58,970 207.14,970 235.6,970" fill="none" id="FeatureOfInterest-backto-ODEFeatureOfInterest" style="stroke:#181818;stroke-width:1;stroke-dasharray:7,7;"/><polygon fill="none" points="147.69,970,165.69,976,165.69,964,147.69,970" style="stroke:#181818;stroke-width:1;stroke-linejoin:miter;stroke-miterlimit:10;"/></g><!--reverse link FeatureOfInterest to STACFeatureOfInterest--><g class="link" data-entity-1="ent0003" data-entity-2="ent0027" data-link-type="extension" data-source-line="75" id="lnk38"><path codeLine="75" d="M164.3666,987.0451 C178.6566,992.5251 175.67,994.39 184.43,1007 C214.49,1050.26 165.26,1438.52 196.43,1481 C205.45,1493.3 218.82,1501.55 233.1,1507.07" fill="none" id="FeatureOfInterest-backto-STACFeatureOfInterest" style="stroke:#181818;stroke-width:1;stroke-dasharray:7,7;"/><polygon fill="none" points="147.56,980.6,162.2182,992.6473,166.5149,981.4429,147.56,980.6" style="stroke:#181818;stroke-width:1;stroke-linejoin:miter;stroke-miterlimit:10;"/></g><!--reverse link Observer to EPNObserver--><g class="link" data-entity-1="ent0004" data-entity-2="ent0012" data-link-type="extension" data-source-line="77" id="lnk39"><path codeLine="77" d="M139.6947,890.122 C160.8947,885.972 170.35,880.26 184.43,860 C214.49,816.74 165.26,428.48 196.43,386 C211.61,365.31 239.06,356.08 262.49,352.02" fill="none" id="Observer-backto-EPNObserver" style="stroke:#181818;stroke-width:1;stroke-dasharray:7,7;"/><polygon fill="none" points="122.03,893.58,140.8474,896.0103,138.5421,884.2338,122.03,893.58" style="stroke:#181818;stroke-width:1;stroke-linejoin:miter;stroke-miterlimit:10;"/></g><!--reverse link Observer to ODEObserver--><g class="link" data-entity-1="ent0004" data-entity-2="ent0020" data-link-type="extension" data-source-line="78" id="lnk40"><path codeLine="78" d="M140.17,897 C176.5,897 220,897 261.39,897" fill="none" id="Observer-backto-ODEObserver" style="stroke:#181818;stroke-width:1;stroke-dasharray:7,7;"/><polygon fill="none" points="122.17,897,140.17,903,140.17,891,122.17,897" style="stroke:#181818;stroke-width:1;stroke-linejoin:miter;stroke-miterlimit:10;"/></g><!--reverse link Observer to STACObserver--><g class="link" data-entity-1="ent0004" data-entity-2="ent0028" data-link-type="extension" data-source-line="79" id="lnk41"><path codeLine="79" d="M139.6947,903.878 C160.8947,908.028 170.35,913.74 184.43,934 C214.49,977.26 165.26,1365.52 196.43,1408 C210.79,1427.57 236.13,1436.89 258.66,1441.28" fill="none" id="Observer-backto-STACObserver" style="stroke:#181818;stroke-width:1;stroke-dasharray:7,7;"/><polygon fill="none" points="122.03,900.42,138.5421,909.7662,140.8474,897.9897,122.03,900.42" style="stroke:#181818;stroke-width:1;stroke-linejoin:miter;stroke-miterlimit:10;"/></g><!--reverse link ObservingProcedure to EPNObservingProcedure--><g class="link" data-entity-1="ent0005" data-entity-2="ent0013" data-link-type="extension" data-source-line="81" id="lnk42"><path codeLine="81" d="M171.9261,802.232 C183.2161,796.882 177.34,797.2 184.43,787 C214.49,743.74 165.26,355.48 196.43,313 C204.58,301.9 216.26,294.09 228.95,288.62" fill="none" id="ObservingProcedure-backto-EPNObservingProcedure" style="stroke:#181818;stroke-width:1;stroke-dasharray:7,7;"/><polygon fill="none" points="155.66,809.94,174.4955,807.654,169.3568,796.8099,155.66,809.94" style="stroke:#181818;stroke-width:1;stroke-linejoin:miter;stroke-miterlimit:10;"/></g><!--reverse link ObservingProcedure to ODEObservingProcedure--><g class="link" data-entity-1="ent0005" data-entity-2="ent0021" data-link-type="extension" data-source-line="82" id="lnk43"><path codeLine="82" d="M173.59,824 C196.31,824 204.16,824 227.87,824" fill="none" id="ObservingProcedure-backto-ODEObservingProcedure" style="stroke:#181818;stroke-width:1;stroke-dasharray:7,7;"/><polygon fill="none" points="155.59,824,173.59,830,173.59,818,155.59,824" style="stroke:#181818;stroke-width:1;stroke-linejoin:miter;stroke-miterlimit:10;"/></g><!--reverse link ObservingProcedure to STACObservingProcedure--><g class="link" data-entity-1="ent0005" data-entity-2="ent0029" data-link-type="extension" data-source-line="83" id="lnk44"><path codeLine="83" d="M171.9261,845.768 C183.2161,851.118 177.34,850.8 184.43,861 C214.49,904.26 165.26,1292.52 196.43,1335 C203.75,1344.99 213.94,1352.3 225.15,1357.65" fill="none" id="ObservingProcedure-backto-STACObservingProcedure" style="stroke:#181818;stroke-width:1;stroke-dasharray:7,7;"/><polygon fill="none" points="155.66,838.06,169.3568,851.1901,174.4955,840.346,155.66,838.06" style="stroke:#181818;stroke-width:1;stroke-linejoin:miter;stroke-miterlimit:10;"/></g><!--reverse link ObservableProperty to EPNObservableProperty--><g class="link" data-entity-1="ent0006" data-entity-2="ent0014" data-link-type="extension" data-source-line="85" id="lnk45"><path codeLine="85" d="M170.6223,730.1203 C182.4423,724.7203 177.05,724.62 184.43,714 C214.49,670.74 165.26,282.48 196.43,240 C204.87,228.5 217.1,220.54 230.33,215.04" fill="none" id="ObservableProperty-backto-EPNObservableProperty" style="stroke:#181818;stroke-width:1;stroke-dasharray:7,7;"/><polygon fill="none" points="154.25,737.6,173.1156,735.5777,168.1291,724.6628,154.25,737.6" style="stroke:#181818;stroke-width:1;stroke-linejoin:miter;stroke-miterlimit:10;"/></g><!--reverse link ObservableProperty to ODEObservableProperty--><g class="link" data-entity-1="ent0006" data-entity-2="ent0022" data-link-type="extension" data-source-line="86" id="lnk46"><path codeLine="86" d="M172.45,751 C195.8,751 204.6,751 229.03,751" fill="none" id="ObservableProperty-backto-ODEObservableProperty" style="stroke:#181818;stroke-width:1;stroke-dasharray:7,7;"/><polygon fill="none" points="154.45,751,172.45,757,172.45,745,154.45,751" style="stroke:#181818;stroke-width:1;stroke-linejoin:miter;stroke-miterlimit:10;"/></g><!--reverse link ObservableProperty to STACObservableProperty--><g class="link" data-entity-1="ent0006" data-entity-2="ent0030" data-link-type="extension" data-source-line="87" id="lnk47"><path codeLine="87" d="M170.6223,771.8797 C182.4423,777.2797 177.05,777.38 184.43,788 C214.49,831.26 165.26,1219.52 196.43,1262 C204.05,1272.39 214.76,1279.88 226.5,1285.29" fill="none" id="ObservableProperty-backto-STACObservableProperty" style="stroke:#181818;stroke-width:1;stroke-dasharray:7,7;"/><polygon fill="none" points="154.25,764.4,168.1291,777.3372,173.1156,766.4223,154.25,764.4" style="stroke:#181818;stroke-width:1;stroke-linejoin:miter;stroke-miterlimit:10;"/></g><!--reverse link Result to EPNResult--><g class="link" data-entity-1="ent0007" data-entity-2="ent0015" data-link-type="extension" data-source-line="89" id="lnk48"><path codeLine="89" d="M130.9377,673.4757 C152.7877,670.2557 168.28,664.23 184.43,641 C214.49,597.74 165.26,209.48 196.43,167 C213.54,143.67 246.26,134.92 271.21,131.7" fill="none" id="Result-backto-EPNResult" style="stroke:#181818;stroke-width:1;stroke-dasharray:7,7;"/><polygon fill="none" points="113.13,676.1,131.8124,679.4116,130.0629,667.5398,113.13,676.1" style="stroke:#181818;stroke-width:1;stroke-linejoin:miter;stroke-miterlimit:10;"/></g><!--reverse link Result to ODEResult--><g class="link" data-entity-1="ent0007" data-entity-2="ent0023" data-link-type="extension" data-source-line="90" id="lnk49"><path codeLine="90" d="M131.34,678 C168.03,678 225.84,678 270.15,678" fill="none" id="Result-backto-ODEResult" style="stroke:#181818;stroke-width:1;stroke-dasharray:7,7;"/><polygon fill="none" points="113.34,678,131.34,684,131.34,672,113.34,678" style="stroke:#181818;stroke-width:1;stroke-linejoin:miter;stroke-miterlimit:10;"/></g><!--reverse link Result to STACResult--><g class="link" data-entity-1="ent0007" data-entity-2="ent0031" data-link-type="extension" data-source-line="91" id="lnk50"><path codeLine="91" d="M130.9377,682.5243 C152.7877,685.7443 168.28,691.77 184.43,715 C214.49,758.26 165.26,1146.52 196.43,1189 C212.72,1211.21 243.16,1220.21 267.57,1223.8" fill="none" id="Result-backto-STACResult" style="stroke:#181818;stroke-width:1;stroke-dasharray:7,7;"/><polygon fill="none" points="113.13,679.9,130.0629,688.4602,131.8124,676.5884,113.13,679.9" style="stroke:#181818;stroke-width:1;stroke-linejoin:miter;stroke-miterlimit:10;"/></g><!--reverse link ObservationCollection to EPNObservationCollection--><g class="link" data-entity-1="ent0008" data-entity-2="ent0016" data-link-type="extension" data-source-line="93" id="lnk51"><path codeLine="93" d="M95.0087,567.8337 C101.4887,484.0937 129.71,169.92 196.43,94 C203.95,85.44 213.54,78.86 223.89,73.8" fill="none" id="ObservationCollection-backto-EPNObservationCollection" style="stroke:#181818;stroke-width:1;stroke-dasharray:7,7;"/><polygon fill="none" points="93.62,585.78,100.9908,568.2966,89.0266,567.3707,93.62,585.78" style="stroke:#181818;stroke-width:1;stroke-linejoin:miter;stroke-miterlimit:10;"/></g><!--reverse link ObservationCollection to ODEObservationCollection--><g class="link" data-entity-1="ent0008" data-entity-2="ent0024" data-link-type="extension" data-source-line="94" id="lnk52"><path codeLine="94" d="M178.81,605 C198.55,605 202.28,605 222.72,605" fill="none" id="ObservationCollection-backto-ODEObservationCollection" style="stroke:#181818;stroke-width:1;stroke-dasharray:7,7;"/><polygon fill="none" points="160.81,605,178.81,611,178.81,599,160.81,605" style="stroke:#181818;stroke-width:1;stroke-linejoin:miter;stroke-miterlimit:10;"/></g><!--reverse link ObservationCollection to STACObservationCollection--><g class="link" data-entity-1="ent0008" data-entity-2="ent0032" data-link-type="extension" data-source-line="95" id="lnk53"><path codeLine="95" d="M176.5463,630.3001 C185.8263,635.3701 178.41,633.37 184.43,642 C212.13,681.77 173.38,1035.37 196.43,1078 C209.89,1102.9 235.64,1121.27 258.62,1133.6" fill="none" id="ObservationCollection-backto-STACObservationCollection" style="stroke:#181818;stroke-width:1;stroke-dasharray:7,7;"/><polygon fill="none" points="160.75,621.67,173.6696,635.5655,179.423,625.0346,160.75,621.67" style="stroke:#181818;stroke-width:1;stroke-linejoin:miter;stroke-miterlimit:10;"/></g><?plantuml-src ZLJPReCm47pdAwnKwbiZjLLwI54ase3KXnngyWCEB8bLYYFZLEhrxpMGWAyb9I_1CpksPsSftrYnfuA-amrDthQ27uhqcUTSa8iugdv1sJ9IoEWXbp4lv8fz0Rc-2NB8996S2BRTIP8o0Obal0XsB0No3dB7qx9voHZaf_y94qaEWIQzLvlJBP3lW90dBb8GnqECwYVurSb9JijoF5xC9fEcm3vvL3-ebACKBUUOrFGk2kE7_qijfX4gDOf7qUt_fLRhy1dJKfrvZEvniqv-3XQNiq4jKOkgzqq9ueDMJHgGniCEZ87AWu15zb98451AbzBKWy0GLcoNWYUGAXsCGpSvAD8UXFnqEQzGgf2XjTN9rNNp9cWjJR-pQkVLEbmQzrPhrjNhfXi4x_LTccu1XjesO3pR2fVNsO5gk9OqLDsJURWAYGgd6OPfPEUXYgz1y6V2eHcvG50d6mZFoOV3qpA2QNXoKbDrKwe9Cmof5Yn7cYaqALvFV4JT5HotVS6PjZC-PkTDZuxhpf6ixB6-4J_3eJC-NewL9Y_7DbZjvZFpjAUBzV2zOUtX-plPth_kcdbvjUIYUlXTr4X1gsrrtDp50Fig_8FLLu5ahkkvcI-hzJhOL-4VvBuA9E7gN6sQJsSvBjX8zr6m4Mqcp6mR-VUaNCFFrA5VdJDr-43-0G00?></g></svg>