<svg xmlns="http://www.w3.org/2000/svg" xmlns:xlink="http://www.w3.org/1999/xlink" contentStyleType="text/css" data-diagram-type="CLASS" height="756px" preserveAspectRatio="none" style="width:1664px;height:756px;background:#FFFFFF;" version="1.1" viewBox="0 0 1664 756" width="1664px" zoomAndPan="magnify"><?plantuml 1.2026.6?><defs/><g><!--cluster STAC core (generic, unchanged)--><g class="cluster" data-qualified-name="STAC core .generic. unchanged." data-source-line="2" id="ent0001"><path d="M8.5,14.15 L263.4277,14.15 A3.75,3.75 0 0 1 265.9277,16.65 L272.9277,36.4469 L272.5,36.4469 A2.5,2.5 0 0 1 275,38.9469 L275,738.55 A2.5,2.5 0 0 1 272.5,741.05 L8.5,741.05 A2.5,2.5 0 0 1 6,738.55 L6,16.65 A2.5,2.5 0 0 1 8.5,14.15" fill="none" style="stroke:#000000;stroke-width:1.5;"/><line style="stroke:#000000;stroke-width:1.5;" x1="6" x2="272.9277" y1="36.4469" y2="36.4469"/><text fill="#000000" font-family="sans-serif" font-size="14" font-weight="700" lengthAdjust="spacing" textLength="253.9277" x="10" y="29.1451">STAC core (generic, unchanged)</text></g><!--cluster Vocabulary--><g class="cluster" data-qualified-name="Vocabulary" data-source-line="33" id="ent0007"><path d="M1278.5,411.12 L1367.9639,411.12 A3.75,3.75 0 0 1 1370.4639,413.62 L1377.4639,433.4169 L1646.5,433.4169 A2.5,2.5 0 0 1 1649,435.9169 L1649,540.21 A2.5,2.5 0 0 1 1646.5,542.71 L1278.5,542.71 A2.5,2.5 0 0 1 1276,540.21 L1276,413.62 A2.5,2.5 0 0 1 1278.5,411.12" fill="none" style="stroke:#000000;stroke-width:1.5;"/><line style="stroke:#000000;stroke-width:1.5;" x1="1276" x2="1377.4639" y1="433.4169" y2="433.4169"/><text fill="#000000" font-family="sans-serif" font-size="14" font-weight="700" lengthAdjust="spacing" textLength="88.4639" x="1280" y="426.1151">Vocabulary</text></g><!--cluster PDSSP Profile (configurable, additive)--><g class="cluster" data-qualified-name="PDSSP Profile .configurable. additive." data-source-line="44" id="ent0010"><path d="M301.5,6 L603.3428,6 A3.75,3.75 0 0 1 605.8428,8.5 L612.8428,28.2969 L1249.5,28.2969 A2.5,2.5 0 0 1 1252,30.7969 L1252,556.51 A2.5,2.5 0 0 1 1249.5,559.01 L301.5,559.01 A2.5,2.5 0 0 1 299,556.51 L299,8.5 A2.5,2.5 0 0 1 301.5,6" fill="none" style="stroke:#000000;stroke-width:1.5;"/><line style="stroke:#000000;stroke-width:1.5;" x1="299" x2="612.8428" y1="28.2969" y2="28.2969"/><text fill="#000000" font-family="sans-serif" font-size="14" font-weight="700" lengthAdjust="spacing" textLength="300.8428" x="303" y="20.9951">PDSSP Profile (configurable, additive)</text></g><!--class Catalog--><g class="entity" data-qualified-name="STAC core .generic. unchanged..Catalog" data-source-line="3" id="ent0002"><rect fill="#F1F1F1" height="96.8906" rx="2.5" ry="2.5" style="stroke:#181818;stroke-width:0.5;" width="137.8496" x="103.08" y="49.15"/><ellipse cx="141.5182" cy="65.15" fill="#ADD1B2" rx="11" ry="11" style="stroke:#181818;stroke-width:1;"/><path d="M144.487,70.7906 Q143.9089,71.0875 143.2682,71.2281 Q142.6276,71.3844 141.9245,71.3844 Q139.4245,71.3844 138.0964,69.7437 Q136.7839,68.0875 136.7839,64.9625 Q136.7839,61.8375 138.0964,60.1812 Q139.4245,58.525 141.9245,58.525 Q142.6276,58.525 143.2682,58.6812 Q143.9245,58.8375 144.487,59.1344 L144.487,61.8531 Q143.862,61.275 143.2682,61.0094 Q142.6745,60.7281 142.0495,60.7281 Q140.7057,60.7281 140.0182,61.8062 Q139.3307,62.8687 139.3307,64.9625 Q139.3307,67.0562 140.0182,68.1344 Q140.7057,69.1969 142.0495,69.1969 Q142.6745,69.1969 143.2682,68.9312 Q143.862,68.65 144.487,68.0719 L144.487,70.7906 Z " fill="#000000"/><text fill="#000000" font-family="sans-serif" font-size="14" lengthAdjust="spacing" textLength="53.7646" x="160.7267" y="69.9967">Catalog</text><line style="stroke:#181818;stroke-width:0.5;" x1="104.08" x2="239.9296" y1="81.15" y2="81.15"/><g data-visibility-modifier="PUBLIC_FIELD"><ellipse cx="114.08" cy="94.7984" fill="none" rx="3" ry="3" style="stroke:#038048;stroke-width:1;"/></g><text fill="#000000" font-family="sans-serif" font-size="14" lengthAdjust="spacing" textLength="12.7764" x="123.08" y="98.1451">id</text><g data-visibility-modifier="PUBLIC_FIELD"><ellipse cx="114.08" cy="111.0953" fill="none" rx="3" ry="3" style="stroke:#038048;stroke-width:1;"/></g><text fill="#000000" font-family="sans-serif" font-size="14" lengthAdjust="spacing" textLength="87.3359" x="123.08" y="114.442">stac_version</text><g data-visibility-modifier="PUBLIC_FIELD"><ellipse cx="114.08" cy="127.3922" fill="none" rx="3" ry="3" style="stroke:#038048;stroke-width:1;"/></g><text fill="#000000" font-family="sans-serif" font-size="14" lengthAdjust="spacing" textLength="111.8496" x="123.08" y="130.7389">stac_extensions</text><line style="stroke:#181818;stroke-width:0.5;" x1="104.08" x2="239.9296" y1="138.0406" y2="138.0406"/></g><!--class Collection--><g class="entity" data-qualified-name="STAC core .generic. unchanged..Collection" data-source-line="8" id="ent0003"><rect fill="#F1F1F1" height="129.4844" rx="2.5" ry="2.5" style="stroke:#181818;stroke-width:0.5;" width="109.1934" x="145.4" y="231.19"/><ellipse cx="163.9754" cy="247.19" fill="#ADD1B2" rx="11" ry="11" style="stroke:#181818;stroke-width:1;"/><path d="M166.9441,252.8306 Q166.366,253.1275 165.7254,253.2681 Q165.0848,253.4244 164.3816,253.4244 Q161.8816,253.4244 160.5535,251.7837 Q159.241,250.1275 159.241,247.0025 Q159.241,243.8775 160.5535,242.2212 Q161.8816,240.565 164.3816,240.565 Q165.0848,240.565 165.7254,240.7212 Q166.3816,240.8775 166.9441,241.1744 L166.9441,243.8931 Q166.3191,243.315 165.7254,243.0494 Q165.1316,242.7681 164.5066,242.7681 Q163.1629,242.7681 162.4754,243.8462 Q161.7879,244.9087 161.7879,247.0025 Q161.7879,249.0962 162.4754,250.1744 Q163.1629,251.2369 164.5066,251.2369 Q165.1316,251.2369 165.7254,250.9712 Q166.3191,250.69 166.9441,250.1119 L166.9441,252.8306 Z " fill="#000000"/><text fill="#000000" font-family="sans-serif" font-size="14" lengthAdjust="spacing" textLength="69.248" x="178.7699" y="252.0367">Collection</text><line style="stroke:#181818;stroke-width:0.5;" x1="146.4" x2="253.5934" y1="263.19" y2="263.19"/><g data-visibility-modifier="PUBLIC_FIELD"><ellipse cx="156.4" cy="276.8384" fill="none" rx="3" ry="3" style="stroke:#038048;stroke-width:1;"/></g><text fill="#000000" font-family="sans-serif" font-size="14" lengthAdjust="spacing" textLength="12.7764" x="165.4" y="280.1851">id</text><g data-visibility-modifier="PUBLIC_FIELD"><ellipse cx="156.4" cy="293.1353" fill="none" rx="3" ry="3" style="stroke:#038048;stroke-width:1;"/></g><text fill="#000000" font-family="sans-serif" font-size="14" lengthAdjust="spacing" textLength="45.3633" x="165.4" y="296.482">extent</text><g data-visibility-modifier="PUBLIC_FIELD"><ellipse cx="156.4" cy="309.4322" fill="none" rx="3" ry="3" style="stroke:#038048;stroke-width:1;"/></g><text fill="#000000" font-family="sans-serif" font-size="14" lengthAdjust="spacing" textLength="77.5742" x="165.4" y="312.7789">summaries</text><g data-visibility-modifier="PUBLIC_FIELD"><ellipse cx="156.4" cy="325.7291" fill="none" rx="3" ry="3" style="stroke:#038048;stroke-width:1;"/></g><text fill="#000000" font-family="sans-serif" font-size="14" lengthAdjust="spacing" textLength="83.1934" x="165.4" y="329.0757">item_assets</text><g data-visibility-modifier="PUBLIC_FIELD"><ellipse cx="156.4" cy="342.0259" fill="none" rx="3" ry="3" style="stroke:#038048;stroke-width:1;"/></g><text fill="#000000" font-family="sans-serif" font-size="14" lengthAdjust="spacing" textLength="48.8701" x="165.4" y="345.3726">license</text><line style="stroke:#181818;stroke-width:0.5;" x1="146.4" x2="253.5934" y1="352.6744" y2="352.6744"/></g><!--class Item--><g class="entity" data-qualified-name="STAC core .generic. unchanged..Item" data-source-line="15" id="ent0004"><rect fill="#F1F1F1" height="129.4844" rx="2.5" ry="2.5" style="stroke:#181818;stroke-width:0.5;" width="137.8496" x="121.08" y="421.68"/><ellipse cx="169.8202" cy="437.68" fill="#ADD1B2" rx="11" ry="11" style="stroke:#181818;stroke-width:1;"/><path d="M172.789,443.3206 Q172.2109,443.6175 171.5702,443.7581 Q170.9296,443.9144 170.2265,443.9144 Q167.7265,443.9144 166.3984,442.2737 Q165.0859,440.6175 165.0859,437.4925 Q165.0859,434.3675 166.3984,432.7112 Q167.7265,431.055 170.2265,431.055 Q170.9296,431.055 171.5702,431.2112 Q172.2265,431.3675 172.789,431.6644 L172.789,434.3831 Q172.164,433.805 171.5702,433.5394 Q170.9765,433.2581 170.3515,433.2581 Q169.0077,433.2581 168.3202,434.3362 Q167.6327,435.3987 167.6327,437.4925 Q167.6327,439.5862 168.3202,440.6644 Q169.0077,441.7269 170.3515,441.7269 Q170.9765,441.7269 171.5702,441.4612 Q172.164,441.18 172.789,440.6019 L172.789,443.3206 Z " fill="#000000"/><text fill="#000000" font-family="sans-serif" font-size="14" lengthAdjust="spacing" textLength="31.8691" x="190.3202" y="442.5267">Item</text><line style="stroke:#181818;stroke-width:0.5;" x1="122.08" x2="257.9296" y1="453.68" y2="453.68"/><g data-visibility-modifier="PUBLIC_FIELD"><ellipse cx="132.08" cy="467.3284" fill="none" rx="3" ry="3" style="stroke:#038048;stroke-width:1;"/></g><text fill="#000000" font-family="sans-serif" font-size="14" lengthAdjust="spacing" textLength="12.7764" x="141.08" y="470.6751">id</text><g data-visibility-modifier="PUBLIC_FIELD"><ellipse cx="132.08" cy="483.6253" fill="none" rx="3" ry="3" style="stroke:#038048;stroke-width:1;"/></g><text fill="#000000" font-family="sans-serif" font-size="14" lengthAdjust="spacing" textLength="109.9355" x="141.08" y="486.972">geometry [0..1]</text><g data-visibility-modifier="PUBLIC_FIELD"><ellipse cx="132.08" cy="499.9222" fill="none" rx="3" ry="3" style="stroke:#038048;stroke-width:1;"/></g><text fill="#000000" font-family="sans-serif" font-size="14" lengthAdjust="spacing" textLength="76.7129" x="141.08" y="503.2689">bbox [0..1]</text><g data-visibility-modifier="PUBLIC_FIELD"><ellipse cx="132.08" cy="516.2191" fill="none" rx="3" ry="3" style="stroke:#038048;stroke-width:1;"/></g><text fill="#000000" font-family="sans-serif" font-size="14" lengthAdjust="spacing" textLength="71.75" x="141.08" y="519.5657">properties</text><g data-visibility-modifier="PUBLIC_FIELD"><ellipse cx="132.08" cy="532.5159" fill="none" rx="3" ry="3" style="stroke:#038048;stroke-width:1;"/></g><text fill="#000000" font-family="sans-serif" font-size="14" lengthAdjust="spacing" textLength="111.8496" x="141.08" y="535.8626">stac_extensions</text><line style="stroke:#181818;stroke-width:0.5;" x1="122.08" x2="257.9296" y1="543.1644" y2="543.1644"/></g><!--class Asset--><g class="entity" data-qualified-name="STAC core .generic. unchanged..Asset" data-source-line="22" id="ent0005"><rect fill="#F1F1F1" height="96.8906" rx="2.5" ry="2.5" style="stroke:#181818;stroke-width:0.5;" width="70.2676" x="188.87" y="628.16"/><ellipse cx="203.87" cy="644.16" fill="#ADD1B2" rx="11" ry="11" style="stroke:#181818;stroke-width:1;"/><path d="M206.8388,649.8006 Q206.2606,650.0975 205.62,650.2381 Q204.9794,650.3944 204.2763,650.3944 Q201.7763,650.3944 200.4481,648.7538 Q199.1356,647.0975 199.1356,643.9725 Q199.1356,640.8475 200.4481,639.1913 Q201.7763,637.535 204.2763,637.535 Q204.9794,637.535 205.62,637.6913 Q206.2763,637.8475 206.8388,638.1444 L206.8388,640.8631 Q206.2138,640.285 205.62,640.0194 Q205.0263,639.7381 204.4013,639.7381 Q203.0575,639.7381 202.37,640.8163 Q201.6825,641.8788 201.6825,643.9725 Q201.6825,646.0663 202.37,647.1444 Q203.0575,648.2069 204.4013,648.2069 Q205.0263,648.2069 205.62,647.9413 Q206.2138,647.66 206.8388,647.0819 L206.8388,649.8006 Z " fill="#000000"/><text fill="#000000" font-family="sans-serif" font-size="14" lengthAdjust="spacing" textLength="38.2676" x="217.87" y="649.0067">Asset</text><line style="stroke:#181818;stroke-width:0.5;" x1="189.87" x2="258.1376" y1="660.16" y2="660.16"/><g data-visibility-modifier="PUBLIC_FIELD"><ellipse cx="199.87" cy="673.8084" fill="none" rx="3" ry="3" style="stroke:#038048;stroke-width:1;"/></g><text fill="#000000" font-family="sans-serif" font-size="14" lengthAdjust="spacing" textLength="28.1709" x="208.87" y="677.1551">href</text><g data-visibility-modifier="PUBLIC_FIELD"><ellipse cx="199.87" cy="690.1053" fill="none" rx="3" ry="3" style="stroke:#038048;stroke-width:1;"/></g><text fill="#000000" font-family="sans-serif" font-size="14" lengthAdjust="spacing" textLength="31.2744" x="208.87" y="693.452">type</text><g data-visibility-modifier="PUBLIC_FIELD"><ellipse cx="199.87" cy="706.4022" fill="none" rx="3" ry="3" style="stroke:#038048;stroke-width:1;"/></g><text fill="#000000" font-family="sans-serif" font-size="14" lengthAdjust="spacing" textLength="34.1182" x="208.87" y="709.7489">roles</text><line style="stroke:#181818;stroke-width:0.5;" x1="189.87" x2="258.1376" y1="717.0506" y2="717.0506"/></g><!--class Link--><g class="entity" data-qualified-name="STAC core .generic. unchanged..Link" data-source-line="27" id="ent0006"><rect fill="#F1F1F1" height="80.5938" rx="2.5" ry="2.5" style="stroke:#181818;stroke-width:0.5;" width="60.6699" x="93.67" y="636.31"/><ellipse cx="108.67" cy="652.31" fill="#ADD1B2" rx="11" ry="11" style="stroke:#181818;stroke-width:1;"/><path d="M111.6388,657.9506 Q111.0606,658.2475 110.42,658.3881 Q109.7794,658.5444 109.0763,658.5444 Q106.5763,658.5444 105.2481,656.9038 Q103.9356,655.2475 103.9356,652.1225 Q103.9356,648.9975 105.2481,647.3413 Q106.5763,645.685 109.0763,645.685 Q109.7794,645.685 110.42,645.8413 Q111.0763,645.9975 111.6388,646.2944 L111.6388,649.0131 Q111.0138,648.435 110.42,648.1694 Q109.8263,647.8881 109.2013,647.8881 Q107.8575,647.8881 107.17,648.9663 Q106.4825,650.0288 106.4825,652.1225 Q106.4825,654.2163 107.17,655.2944 Q107.8575,656.3569 109.2013,656.3569 Q109.8263,656.3569 110.42,656.0913 Q111.0138,655.81 111.6388,655.2319 L111.6388,657.9506 Z " fill="#000000"/><text fill="#000000" font-family="sans-serif" font-size="14" lengthAdjust="spacing" textLength="28.6699" x="122.67" y="657.1567">Link</text><line style="stroke:#181818;stroke-width:0.5;" x1="94.67" x2="153.3399" y1="668.31" y2="668.31"/><g data-visibility-modifier="PUBLIC_FIELD"><ellipse cx="104.67" cy="681.9584" fill="none" rx="3" ry="3" style="stroke:#038048;stroke-width:1;"/></g><text fill="#000000" font-family="sans-serif" font-size="14" lengthAdjust="spacing" textLength="18.2588" x="113.67" y="685.3051">rel</text><g data-visibility-modifier="PUBLIC_FIELD"><ellipse cx="104.67" cy="698.2553" fill="none" rx="3" ry="3" style="stroke:#038048;stroke-width:1;"/></g><text fill="#000000" font-family="sans-serif" font-size="14" lengthAdjust="spacing" textLength="28.1709" x="113.67" y="701.602">href</text><line style="stroke:#181818;stroke-width:0.5;" x1="94.67" x2="153.3399" y1="708.9038" y2="708.9038"/></g><!--class StandardExtension--><g class="entity" data-qualified-name="Vocabulary.StandardExtension" data-source-line="34" id="ent0008"><rect fill="#F1F1F1" height="80.5938" rx="2.5" ry="2.5" style="stroke:#181818;stroke-width:0.5;" width="164.665" x="1291.67" y="446.12"/><ellipse cx="1306.67" cy="462.12" fill="#ADD1B2" rx="11" ry="11" style="stroke:#181818;stroke-width:1;"/><path d="M1309.6388,467.7606 Q1309.0606,468.0575 1308.42,468.1981 Q1307.7794,468.3544 1307.0763,468.3544 Q1304.5763,468.3544 1303.2481,466.7137 Q1301.9356,465.0575 1301.9356,461.9325 Q1301.9356,458.8075 1303.2481,457.1512 Q1304.5763,455.495 1307.0763,455.495 Q1307.7794,455.495 1308.42,455.6512 Q1309.0763,455.8075 1309.6388,456.1044 L1309.6388,458.8231 Q1309.0138,458.245 1308.42,457.9794 Q1307.8263,457.6981 1307.2013,457.6981 Q1305.8575,457.6981 1305.17,458.7762 Q1304.4825,459.8387 1304.4825,461.9325 Q1304.4825,464.0262 1305.17,465.1044 Q1305.8575,466.1669 1307.2013,466.1669 Q1307.8263,466.1669 1308.42,465.9012 Q1309.0138,465.62 1309.6388,465.0419 L1309.6388,467.7606 Z " fill="#000000"/><text fill="#000000" font-family="sans-serif" font-size="14" lengthAdjust="spacing" textLength="132.665" x="1320.67" y="466.9667">StandardExtension</text><line style="stroke:#181818;stroke-width:0.5;" x1="1292.67" x2="1455.335" y1="478.12" y2="478.12"/><g data-visibility-modifier="PUBLIC_FIELD"><ellipse cx="1302.67" cy="491.7684" fill="none" rx="3" ry="3" style="stroke:#038048;stroke-width:1;"/></g><text fill="#000000" font-family="sans-serif" font-size="14" lengthAdjust="spacing" textLength="74.5869" x="1311.67" y="495.1151">schemaUri</text><g data-visibility-modifier="PUBLIC_FIELD"><ellipse cx="1302.67" cy="508.0653" fill="none" rx="3" ry="3" style="stroke:#038048;stroke-width:1;"/></g><text fill="#000000" font-family="sans-serif" font-size="14" lengthAdjust="spacing" textLength="40.3594" x="1311.67" y="511.412">prefix</text><line style="stroke:#181818;stroke-width:0.5;" x1="1292.67" x2="1455.335" y1="518.7137" y2="518.7137"/></g><!--class PdsspExtension--><g class="entity" data-qualified-name="Vocabulary.PdsspExtension" data-source-line="38" id="ent0009"><rect fill="#F1F1F1" height="80.5938" rx="2.5" ry="2.5" style="stroke:#181818;stroke-width:0.5;" width="141.5322" x="1491.23" y="446.12"/><ellipse cx="1506.23" cy="462.12" fill="#ADD1B2" rx="11" ry="11" style="stroke:#181818;stroke-width:1;"/><path d="M1509.1988,467.7606 Q1508.6206,468.0575 1507.98,468.1981 Q1507.3394,468.3544 1506.6363,468.3544 Q1504.1363,468.3544 1502.8081,466.7137 Q1501.4956,465.0575 1501.4956,461.9325 Q1501.4956,458.8075 1502.8081,457.1512 Q1504.1363,455.495 1506.6363,455.495 Q1507.3394,455.495 1507.98,455.6512 Q1508.6363,455.8075 1509.1988,456.1044 L1509.1988,458.8231 Q1508.5738,458.245 1507.98,457.9794 Q1507.3863,457.6981 1506.7613,457.6981 Q1505.4175,457.6981 1504.73,458.7762 Q1504.0425,459.8387 1504.0425,461.9325 Q1504.0425,464.0262 1504.73,465.1044 Q1505.4175,466.1669 1506.7613,466.1669 Q1507.3863,466.1669 1507.98,465.9012 Q1508.5738,465.62 1509.1988,465.0419 L1509.1988,467.7606 Z " fill="#000000"/><text fill="#000000" font-family="sans-serif" font-size="14" lengthAdjust="spacing" textLength="109.5322" x="1520.23" y="466.9667">PdsspExtension</text><line style="stroke:#181818;stroke-width:0.5;" x1="1492.23" x2="1631.7622" y1="478.12" y2="478.12"/><g data-visibility-modifier="PUBLIC_FIELD"><ellipse cx="1502.23" cy="491.7684" fill="none" rx="3" ry="3" style="stroke:#038048;stroke-width:1;"/></g><text fill="#000000" font-family="sans-serif" font-size="14" lengthAdjust="spacing" textLength="74.5869" x="1511.23" y="495.1151">schemaUri</text><g data-visibility-modifier="PUBLIC_FIELD"><ellipse cx="1502.23" cy="508.0653" fill="none" rx="3" ry="3" style="stroke:#038048;stroke-width:1;"/></g><text fill="#000000" font-family="sans-serif" font-size="14" lengthAdjust="spacing" textLength="115.1172" x="1511.23" y="511.412">prefix = "pdssp"</text><line style="stroke:#181818;stroke-width:0.5;" x1="1492.23" x2="1631.7622" y1="518.7137" y2="518.7137"/></g><!--class PDSSPProfile--><g class="entity" data-qualified-name="PDSSP Profile .configurable. additive..PDSSPProfile" data-source-line="45" id="ent0011"><rect fill="#F1F1F1" height="113.1875" rx="2.5" ry="2.5" style="stroke:#181818;stroke-width:0.5;" width="121.5234" x="315.24" y="41"/><ellipse cx="330.24" cy="57" fill="#ADD1B2" rx="11" ry="11" style="stroke:#181818;stroke-width:1;"/><path d="M333.2088,62.6406 Q332.6306,62.9375 331.99,63.0781 Q331.3494,63.2344 330.6463,63.2344 Q328.1463,63.2344 326.8181,61.5938 Q325.5056,59.9375 325.5056,56.8125 Q325.5056,53.6875 326.8181,52.0313 Q328.1463,50.375 330.6463,50.375 Q331.3494,50.375 331.99,50.5313 Q332.6463,50.6875 333.2088,50.9844 L333.2088,53.7031 Q332.5838,53.125 331.99,52.8594 Q331.3963,52.5781 330.7713,52.5781 Q329.4275,52.5781 328.74,53.6563 Q328.0525,54.7188 328.0525,56.8125 Q328.0525,58.9063 328.74,59.9844 Q329.4275,61.0469 330.7713,61.0469 Q331.3963,61.0469 331.99,60.7813 Q332.5838,60.5 333.2088,59.9219 L333.2088,62.6406 Z " fill="#000000"/><text fill="#000000" font-family="sans-serif" font-size="14" lengthAdjust="spacing" textLength="89.5234" x="344.24" y="61.8467">PDSSPProfile</text><line style="stroke:#181818;stroke-width:0.5;" x1="316.24" x2="435.7634" y1="73" y2="73"/><g data-visibility-modifier="PUBLIC_FIELD"><ellipse cx="326.24" cy="86.6484" fill="none" rx="3" ry="3" style="stroke:#038048;stroke-width:1;"/></g><text fill="#000000" font-family="sans-serif" font-size="14" lengthAdjust="spacing" textLength="12.7764" x="335.24" y="89.9951">id</text><g data-visibility-modifier="PUBLIC_FIELD"><ellipse cx="326.24" cy="102.9453" fill="none" rx="3" ry="3" style="stroke:#038048;stroke-width:1;"/></g><text fill="#000000" font-family="sans-serif" font-size="14" lengthAdjust="spacing" textLength="27.3711" x="335.24" y="106.292">title</text><g data-visibility-modifier="PUBLIC_FIELD"><ellipse cx="326.24" cy="119.2422" fill="none" rx="3" ry="3" style="stroke:#038048;stroke-width:1;"/></g><text fill="#000000" font-family="sans-serif" font-size="14" lengthAdjust="spacing" textLength="87.3359" x="335.24" y="122.5889">stac_version</text><g data-visibility-modifier="PUBLIC_FIELD"><ellipse cx="326.24" cy="135.5391" fill="none" rx="3" ry="3" style="stroke:#038048;stroke-width:1;"/></g><text fill="#000000" font-family="sans-serif" font-size="14" lengthAdjust="spacing" textLength="82.4346" x="335.24" y="138.8857">conformsTo</text><line style="stroke:#181818;stroke-width:0.5;" x1="316.24" x2="435.7634" y1="146.1875" y2="146.1875"/></g><!--class ExtensionBinding--><g class="entity" data-qualified-name="PDSSP Profile .configurable. additive..ExtensionBinding" data-source-line="51" id="ent0012"><rect fill="#F1F1F1" height="80.5938" rx="2.5" ry="2.5" style="stroke:#181818;stroke-width:0.5;" width="362.4922" x="873.75" y="255.64"/><ellipse cx="989.9302" cy="271.64" fill="#ADD1B2" rx="11" ry="11" style="stroke:#181818;stroke-width:1;"/><path d="M992.8989,277.2806 Q992.3208,277.5775 991.6802,277.7181 Q991.0396,277.8744 990.3364,277.8744 Q987.8364,277.8744 986.5083,276.2337 Q985.1958,274.5775 985.1958,271.4525 Q985.1958,268.3275 986.5083,266.6712 Q987.8364,265.015 990.3364,265.015 Q991.0396,265.015 991.6802,265.1712 Q992.3364,265.3275 992.8989,265.6244 L992.8989,268.3431 Q992.2739,267.765 991.6802,267.4994 Q991.0864,267.2181 990.4614,267.2181 Q989.1177,267.2181 988.4302,268.2962 Q987.7427,269.3587 987.7427,271.4525 Q987.7427,273.5462 988.4302,274.6244 Q989.1177,275.6869 990.4614,275.6869 Q991.0864,275.6869 991.6802,275.4212 Q992.2739,275.14 992.8989,274.5619 L992.8989,277.2806 Z " fill="#000000"/><text fill="#000000" font-family="sans-serif" font-size="14" lengthAdjust="spacing" textLength="121.6318" x="1010.4302" y="276.4867">ExtensionBinding</text><line style="stroke:#181818;stroke-width:0.5;" x1="874.75" x2="1235.2422" y1="287.64" y2="287.64"/><g data-visibility-modifier="PUBLIC_FIELD"><ellipse cx="884.75" cy="301.2884" fill="none" rx="3" ry="3" style="stroke:#038048;stroke-width:1;"/></g><text fill="#000000" font-family="sans-serif" font-size="14" lengthAdjust="spacing" textLength="74.5869" x="893.75" y="304.6351">schemaUri</text><g data-visibility-modifier="PUBLIC_FIELD"><ellipse cx="884.75" cy="317.5853" fill="none" rx="3" ry="3" style="stroke:#038048;stroke-width:1;"/></g><text fill="#000000" font-family="sans-serif" font-size="14" lengthAdjust="spacing" textLength="336.4922" x="893.75" y="320.932">requirement {required|recommended|optional}</text><line style="stroke:#181818;stroke-width:0.5;" x1="874.75" x2="1235.2422" y1="328.2337" y2="328.2337"/></g><!--class ConstraintRule--><g class="entity" data-qualified-name="PDSSP Profile .configurable. additive..ConstraintRule" data-source-line="55" id="ent0013"><rect fill="#F1F1F1" height="64.2969" rx="2.5" ry="2.5" style="stroke:#181818;stroke-width:0.5;" width="135.6875" x="621.16" y="263.78"/><ellipse cx="636.16" cy="279.78" fill="#A9DCDF" rx="11" ry="11" style="stroke:#181818;stroke-width:1;"/><path d="M636.2694,275.1238 L635.1131,280.2019 L637.4413,280.2019 L636.2694,275.1238 Z M634.785,272.8894 L637.7694,272.8894 L641.1288,285.28 L638.6756,285.28 L637.91,282.2175 L634.6288,282.2175 L633.8788,285.28 L631.4413,285.28 L634.785,272.8894 Z " fill="#000000"/><text fill="#000000" font-family="sans-serif" font-size="14" font-style="italic" lengthAdjust="spacing" textLength="103.6875" x="650.16" y="284.6267">ConstraintRule</text><line style="stroke:#181818;stroke-width:0.5;" x1="622.16" x2="755.8475" y1="295.78" y2="295.78"/><g data-visibility-modifier="PUBLIC_FIELD"><ellipse cx="632.16" cy="309.4284" fill="none" rx="3" ry="3" style="stroke:#038048;stroke-width:1;"/></g><text fill="#000000" font-family="sans-serif" font-size="14" lengthAdjust="spacing" textLength="76.1455" x="641.16" y="312.7751">targetField</text><line style="stroke:#181818;stroke-width:0.5;" x1="622.16" x2="755.8475" y1="320.0769" y2="320.0769"/></g><!--class RequirednessRule--><g class="entity" data-qualified-name="PDSSP Profile .configurable. additive..RequirednessRule" data-source-line="58" id="ent0014"><rect fill="#F1F1F1" height="80.5938" rx="2.5" ry="2.5" style="stroke:#181818;stroke-width:0.5;" width="255.9951" x="315" y="446.12"/><ellipse cx="375.5356" cy="462.12" fill="#ADD1B2" rx="11" ry="11" style="stroke:#181818;stroke-width:1;"/><path d="M378.5044,467.7606 Q377.9263,468.0575 377.2856,468.1981 Q376.645,468.3544 375.9419,468.3544 Q373.4419,468.3544 372.1138,466.7137 Q370.8013,465.0575 370.8013,461.9325 Q370.8013,458.8075 372.1138,457.1512 Q373.4419,455.495 375.9419,455.495 Q376.645,455.495 377.2856,455.6512 Q377.9419,455.8075 378.5044,456.1044 L378.5044,458.8231 Q377.8794,458.245 377.2856,457.9794 Q376.6919,457.6981 376.0669,457.6981 Q374.7231,457.6981 374.0356,458.7762 Q373.3481,459.8387 373.3481,461.9325 Q373.3481,464.0262 374.0356,465.1044 Q374.7231,466.1669 376.0669,466.1669 Q376.6919,466.1669 377.2856,465.9012 Q377.8794,465.62 378.5044,465.0419 L378.5044,467.7606 Z " fill="#000000"/><text fill="#000000" font-family="sans-serif" font-size="14" lengthAdjust="spacing" textLength="126.4238" x="396.0356" y="466.9667">RequirednessRule</text><line style="stroke:#181818;stroke-width:0.5;" x1="316" x2="569.9951" y1="478.12" y2="478.12"/><g data-visibility-modifier="PUBLIC_FIELD"><ellipse cx="326" cy="491.7684" fill="none" rx="3" ry="3" style="stroke:#038048;stroke-width:1;"/></g><text fill="#000000" font-family="sans-serif" font-size="14" lengthAdjust="spacing" textLength="229.9951" x="335" y="495.1151">requirement {required|optional}</text><g data-visibility-modifier="PUBLIC_FIELD"><ellipse cx="326" cy="508.0653" fill="none" rx="3" ry="3" style="stroke:#038048;stroke-width:1;"/></g><text fill="#000000" font-family="sans-serif" font-size="14" lengthAdjust="spacing" textLength="106.8184" x="335" y="511.412">condition [0..1]</text><line style="stroke:#181818;stroke-width:0.5;" x1="316" x2="569.9951" y1="518.7137" y2="518.7137"/></g><!--class ValueConstraint--><g class="entity" data-qualified-name="PDSSP Profile .configurable. additive..ValueConstraint" data-source-line="62" id="ent0015"><rect fill="#F1F1F1" height="113.1875" rx="2.5" ry="2.5" style="stroke:#181818;stroke-width:0.5;" width="166.8818" x="605.56" y="429.82"/><ellipse cx="630.8045" cy="445.82" fill="#ADD1B2" rx="11" ry="11" style="stroke:#181818;stroke-width:1;"/><path d="M633.7733,451.4606 Q633.1952,451.7575 632.5545,451.8981 Q631.9139,452.0544 631.2108,452.0544 Q628.7108,452.0544 627.3827,450.4137 Q626.0702,448.7575 626.0702,445.6325 Q626.0702,442.5075 627.3827,440.8512 Q628.7108,439.195 631.2108,439.195 Q631.9139,439.195 632.5545,439.3512 Q633.2108,439.5075 633.7733,439.8044 L633.7733,442.5231 Q633.1483,441.945 632.5545,441.6794 Q631.9608,441.3981 631.3358,441.3981 Q629.992,441.3981 629.3045,442.4762 Q628.617,443.5387 628.617,445.6325 Q628.617,447.7262 629.3045,448.8044 Q629.992,449.8669 631.3358,449.8669 Q631.9608,449.8669 632.5545,449.6012 Q633.1483,449.32 633.7733,448.7419 L633.7733,451.4606 Z " fill="#000000"/><text fill="#000000" font-family="sans-serif" font-size="14" lengthAdjust="spacing" textLength="112.1162" x="647.0811" y="450.6667">ValueConstraint</text><line style="stroke:#181818;stroke-width:0.5;" x1="606.56" x2="771.4418" y1="461.82" y2="461.82"/><g data-visibility-modifier="PUBLIC_FIELD"><ellipse cx="616.56" cy="475.4684" fill="none" rx="3" ry="3" style="stroke:#038048;stroke-width:1;"/></g><text fill="#000000" font-family="sans-serif" font-size="14" lengthAdjust="spacing" textLength="140.8818" x="625.56" y="478.8151">allowedValues [0..*]</text><g data-visibility-modifier="PUBLIC_FIELD"><ellipse cx="616.56" cy="491.7653" fill="none" rx="3" ry="3" style="stroke:#038048;stroke-width:1;"/></g><text fill="#000000" font-family="sans-serif" font-size="14" lengthAdjust="spacing" textLength="93.7754" x="625.56" y="495.112">pattern [0..1]</text><g data-visibility-modifier="PUBLIC_FIELD"><ellipse cx="616.56" cy="508.0622" fill="none" rx="3" ry="3" style="stroke:#038048;stroke-width:1;"/></g><text fill="#000000" font-family="sans-serif" font-size="14" lengthAdjust="spacing" textLength="108.5273" x="625.56" y="511.4089">minimum [0..1]</text><g data-visibility-modifier="PUBLIC_FIELD"><ellipse cx="616.56" cy="524.3591" fill="none" rx="3" ry="3" style="stroke:#038048;stroke-width:1;"/></g><text fill="#000000" font-family="sans-serif" font-size="14" lengthAdjust="spacing" textLength="112.6289" x="625.56" y="527.7057">maximum [0..1]</text><line style="stroke:#181818;stroke-width:0.5;" x1="606.56" x2="771.4418" y1="535.0075" y2="535.0075"/></g><!--class ObjectRestriction--><g class="entity" data-qualified-name="PDSSP Profile .configurable. additive..ObjectRestriction" data-source-line="68" id="ent0016"><rect fill="#F1F1F1" height="64.2969" rx="2.5" ry="2.5" style="stroke:#181818;stroke-width:0.5;" width="172.9453" x="807.53" y="454.27"/><ellipse cx="831.5594" cy="470.27" fill="#ADD1B2" rx="11" ry="11" style="stroke:#181818;stroke-width:1;"/><path d="M834.5282,475.9106 Q833.9501,476.2075 833.3094,476.3481 Q832.6688,476.5044 831.9657,476.5044 Q829.4657,476.5044 828.1376,474.8638 Q826.8251,473.2075 826.8251,470.0825 Q826.8251,466.9575 828.1376,465.3013 Q829.4657,463.645 831.9657,463.645 Q832.6688,463.645 833.3094,463.8013 Q833.9657,463.9575 834.5282,464.2544 L834.5282,466.9731 Q833.9032,466.395 833.3094,466.1294 Q832.7157,465.8481 832.0907,465.8481 Q830.7469,465.8481 830.0594,466.9263 Q829.3719,467.9888 829.3719,470.0825 Q829.3719,472.1763 830.0594,473.2544 Q830.7469,474.3169 832.0907,474.3169 Q832.7157,474.3169 833.3094,474.0513 Q833.9032,473.77 834.5282,473.1919 L834.5282,475.9106 Z " fill="#000000"/><text fill="#000000" font-family="sans-serif" font-size="14" lengthAdjust="spacing" textLength="120.8799" x="847.566" y="475.1167">ObjectRestriction</text><line style="stroke:#181818;stroke-width:0.5;" x1="808.53" x2="979.4753" y1="486.27" y2="486.27"/><g data-visibility-modifier="PUBLIC_FIELD"><ellipse cx="818.53" cy="499.9184" fill="none" rx="3" ry="3" style="stroke:#038048;stroke-width:1;"/></g><text fill="#000000" font-family="sans-serif" font-size="14" lengthAdjust="spacing" textLength="146.9453" x="827.53" y="503.2651">allowedObjects [1..*]</text><line style="stroke:#181818;stroke-width:0.5;" x1="808.53" x2="979.4753" y1="510.5669" y2="510.5669"/></g><!--class FileValidationRule--><g class="entity" data-qualified-name="PDSSP Profile .configurable. additive..FileValidationRule" data-source-line="71" id="ent0017"><rect fill="#F1F1F1" height="113.1875" rx="2.5" ry="2.5" style="stroke:#181818;stroke-width:0.5;" width="220.5234" x="1015.74" y="429.82"/><ellipse cx="1058.9801" cy="445.82" fill="#ADD1B2" rx="11" ry="11" style="stroke:#181818;stroke-width:1;"/><path d="M1061.9489,451.4606 Q1061.3708,451.7575 1060.7301,451.8981 Q1060.0895,452.0544 1059.3864,452.0544 Q1056.8864,452.0544 1055.5583,450.4137 Q1054.2458,448.7575 1054.2458,445.6325 Q1054.2458,442.5075 1055.5583,440.8512 Q1056.8864,439.195 1059.3864,439.195 Q1060.0895,439.195 1060.7301,439.3512 Q1061.3864,439.5075 1061.9489,439.8044 L1061.9489,442.5231 Q1061.3239,441.945 1060.7301,441.6794 Q1060.1364,441.3981 1059.5114,441.3981 Q1058.1676,441.3981 1057.4801,442.4762 Q1056.7926,443.5387 1056.7926,445.6325 Q1056.7926,447.7262 1057.4801,448.8044 Q1058.1676,449.8669 1059.5114,449.8669 Q1060.1364,449.8669 1060.7301,449.6012 Q1061.3239,449.32 1061.9489,448.7419 L1061.9489,451.4606 Z " fill="#000000"/><text fill="#000000" font-family="sans-serif" font-size="14" lengthAdjust="spacing" textLength="125.7676" x="1079.2557" y="450.6667">FileValidationRule</text><line style="stroke:#181818;stroke-width:0.5;" x1="1016.74" x2="1235.2634" y1="461.82" y2="461.82"/><g data-visibility-modifier="PUBLIC_FIELD"><ellipse cx="1026.74" cy="475.4684" fill="none" rx="3" ry="3" style="stroke:#038048;stroke-width:1;"/></g><text fill="#000000" font-family="sans-serif" font-size="14" lengthAdjust="spacing" textLength="68.0654" x="1035.74" y="478.8151">assetRole</text><g data-visibility-modifier="PUBLIC_FIELD"><ellipse cx="1026.74" cy="491.7653" fill="none" rx="3" ry="3" style="stroke:#038048;stroke-width:1;"/></g><text fill="#000000" font-family="sans-serif" font-size="14" lengthAdjust="spacing" textLength="177.7344" x="1035.74" y="495.112">allowedMediaTypes [1..*]</text><g data-visibility-modifier="PUBLIC_FIELD"><ellipse cx="1026.74" cy="508.0622" fill="none" rx="3" ry="3" style="stroke:#038048;stroke-width:1;"/></g><text fill="#000000" font-family="sans-serif" font-size="14" lengthAdjust="spacing" textLength="194.5234" x="1035.74" y="511.4089">allowedFileExtensions [1..*]</text><g data-visibility-modifier="PUBLIC_FIELD"><ellipse cx="1026.74" cy="524.3591" fill="none" rx="3" ry="3" style="stroke:#038048;stroke-width:1;"/></g><text fill="#000000" font-family="sans-serif" font-size="14" lengthAdjust="spacing" textLength="134.0391" x="1035.74" y="527.7057">checksumRequired</text><line style="stroke:#181818;stroke-width:0.5;" x1="1016.74" x2="1235.2634" y1="535.0075" y2="535.0075"/></g><!--reverse link Catalog to Catalog--><g class="link" data-entity-1="ent0002" data-entity-2="ent0002" data-link-type="aggregation" data-source-line="79" id="lnk18"><path codeLine="79" d="M252.9527,80.2592 C272.6927,80.9492 275.92,86.45 275.92,97.6 C275.92,108.74 260.7,114.66 240.96,115.36" fill="none" id="Catalog-backto-Catalog" style="stroke:#181818;stroke-width:1;"/><polygon fill="none" points="240.96,79.84,246.8166,84.0472,252.9527,80.2592,247.0961,76.052,240.96,79.84" style="stroke:#181818;stroke-width:1;stroke-linejoin:miter;stroke-miterlimit:10;"/><text fill="#000000" font-family="sans-serif" font-size="13" lengthAdjust="spacing" textLength="8.271" x="248.9543" y="74.1519">1</text><text fill="#000000" font-family="sans-serif" font-size="13" lengthAdjust="spacing" textLength="6.5" x="248.8574" y="113.5569">*</text></g><!--reverse link Catalog to Collection--><g class="link" data-entity-1="ent0002" data-entity-2="ent0003" data-link-type="aggregation" data-source-line="80" id="lnk19"><path codeLine="80" d="M180.5057,158.2496 C184.1357,183.6796 186.95,203.41 190.87,230.93" fill="none" id="Catalog-backto-Collection" style="stroke:#181818;stroke-width:1;"/><polygon fill="none" points="178.81,146.37,175.698,152.875,180.5057,158.2496,183.6177,151.7445,178.81,146.37" style="stroke:#181818;stroke-width:1;stroke-linejoin:miter;stroke-miterlimit:10;"/><text fill="#000000" font-family="sans-serif" font-size="13" lengthAdjust="spacing" textLength="8.271" x="171.2052" y="166.0077">1</text><text fill="#000000" font-family="sans-serif" font-size="13" lengthAdjust="spacing" textLength="6.5" x="183.571" y="220.0742">*</text></g><!--reverse link Collection to Item--><g class="link" data-entity-1="ent0003" data-entity-2="ent0004" data-link-type="aggregation" data-source-line="81" id="lnk20"><path codeLine="81" d="M195.9644,372.9932 C194.9344,392.4132 194.44,401.77 193.41,421.2" fill="none" id="Collection-backto-Item" style="stroke:#181818;stroke-width:1;"/><polygon fill="none" points="196.6,361.01,192.2878,366.7897,195.9644,372.9932,200.2766,367.2134,196.6,361.01" style="stroke:#181818;stroke-width:1;stroke-linejoin:miter;stroke-miterlimit:10;"/><text fill="#000000" font-family="sans-serif" font-size="13" lengthAdjust="spacing" textLength="8.271" x="187.8512" y="380.5683">1</text><text fill="#000000" font-family="sans-serif" font-size="13" lengthAdjust="spacing" textLength="6.5" x="187.4776" y="410.7743">*</text></g><!--reverse link Item to Asset--><g class="link" data-entity-1="ent0004" data-entity-2="ent0005" data-link-type="composition" data-source-line="82" id="lnk21"><path codeLine="82" d="M203.7424,563.459 C208.2424,588.379 211.17,604.6 215.34,627.7" fill="none" id="Item-backto-Asset" style="stroke:#181818;stroke-width:1;"/><polygon fill="#181818" points="201.61,551.65,198.7399,558.2653,203.7424,563.459,206.6126,556.8437,201.61,551.65" style="stroke:#181818;stroke-width:1;stroke-linejoin:miter;stroke-miterlimit:10;"/><text fill="#000000" font-family="sans-serif" font-size="13" lengthAdjust="spacing" textLength="8.271" x="194.4083" y="571.2238">1</text><text fill="#000000" font-family="sans-serif" font-size="13" lengthAdjust="spacing" textLength="6.5" x="207.8063" y="617.1964">*</text></g><!--link Item to Link--><g class="link" data-entity-1="ent0004" data-entity-2="ent0006" data-link-type="association" data-source-line="83" id="lnk22"><path codeLine="83" d="M167.47,551.65 C157.65,579.66 146.45,611.6 137.88,636.04" fill="none" id="Item-Link" style="stroke:#181818;stroke-width:1;"/><text fill="#000000" font-family="sans-serif" font-size="13" lengthAdjust="spacing" textLength="8.271" x="156.7476" y="571.2238">1</text><text fill="#000000" font-family="sans-serif" font-size="13" lengthAdjust="spacing" textLength="6.5" x="133.7226" y="625.1568">*</text></g><!--link Collection to PDSSPProfile--><g class="link" data-entity-1="ent0003" data-entity-2="ent0011" data-link-type="association" data-source-line="84" id="lnk23"><path codeLine="84" d="M211.82,230.75 C217,214.41 224.42,197.67 235,184.19 C240.95,176.62 279.57,153.38 314.88,133.02" fill="none" id="Collection-PDSSPProfile" style="stroke:#181818;stroke-width:1;"/><text fill="#000000" font-family="sans-serif" font-size="13" lengthAdjust="spacing" textLength="8.271" x="204.6408" y="220.3284">1</text><text fill="#000000" font-family="sans-serif" font-size="13" lengthAdjust="spacing" textLength="24.8066" x="282.4719" y="133.3235">0..1</text></g><!--link PDSSPProfile to Collection--><g class="link" data-entity-1="ent0011" data-entity-2="ent0003" data-link-type="dependency" data-source-line="96" id="lnk33"><path codeLine="96" d="M314.95,146.42 C301.5,158.15 287.76,171.1 276,184.19 C263.22,198.41 253.6727,210.7667 242.7327,226.5967" fill="none" id="PDSSPProfile-to-Collection" style="stroke:#181818;stroke-width:1;stroke-dasharray:7,7;"/><polygon fill="#181818" points="239.89,230.71,248.2974,225.5802,242.7327,226.5967,241.7162,221.0319,239.89,230.71" style="stroke:#181818;stroke-width:1;stroke-linejoin:miter;stroke-miterlimit:10;"/><text fill="#000000" font-family="sans-serif" font-size="13" lengthAdjust="spacing" textLength="58.9697" x="277" y="197.2569">validates</text></g><!--reverse link PDSSPProfile to ExtensionBinding--><g class="link" data-entity-1="ent0011" data-entity-2="ent0012" data-link-type="composition" data-source-line="86" id="lnk24"><path codeLine="86" d="M448.6778,119.6133 C556.3378,150.7433 770.64,212.71 917.41,255.15" fill="none" id="PDSSPProfile-backto-ExtensionBinding" style="stroke:#181818;stroke-width:1;"/><polygon fill="#181818" points="437.15,116.28,441.8028,121.7892,448.6778,119.6133,444.025,114.104,437.15,116.28" style="stroke:#181818;stroke-width:1;stroke-linejoin:miter;stroke-miterlimit:10;"/><text fill="#000000" font-family="sans-serif" font-size="13" lengthAdjust="spacing" textLength="8.271" x="444.6984" y="114.648">1</text><text fill="#000000" font-family="sans-serif" font-size="13" lengthAdjust="spacing" textLength="6.5" x="889.0439" y="244.5318">*</text></g><!--reverse link PDSSPProfile to ConstraintRule--><g class="link" data-entity-1="ent0011" data-entity-2="ent0013" data-link-type="composition" data-source-line="87" id="lnk25"><path codeLine="87" d="M447.2556,143.2966 C506.1456,180.2366 584.01,229.08 638.89,263.5" fill="none" id="PDSSPProfile-backto-ConstraintRule" style="stroke:#181818;stroke-width:1;"/><polygon fill="#181818" points="437.09,136.92,440.0473,143.4968,447.2556,143.2966,444.2983,136.7198,437.09,136.92" style="stroke:#181818;stroke-width:1;stroke-linejoin:miter;stroke-miterlimit:10;"/><text fill="#000000" font-family="sans-serif" font-size="13" lengthAdjust="spacing" textLength="8.271" x="444.6315" y="137.6745">1</text><text fill="#000000" font-family="sans-serif" font-size="13" lengthAdjust="spacing" textLength="6.5" x="622.4824" y="252.7191">*</text></g><!--reverse link ConstraintRule to RequirednessRule--><g class="link" data-entity-1="ent0013" data-entity-2="ent0014" data-link-type="extension" data-source-line="88" id="lnk26"><path codeLine="88" d="M633.5419,339.4276 C591.4119,371.7076 540.13,410.99 494.57,445.9" fill="none" id="ConstraintRule-backto-RequirednessRule" style="stroke:#181818;stroke-width:1;"/><polygon fill="none" points="647.83,328.48,629.8927,334.6649,637.1911,344.1903,647.83,328.48" style="stroke:#181818;stroke-width:1;stroke-linejoin:miter;stroke-miterlimit:10;"/></g><!--reverse link ConstraintRule to ValueConstraint--><g class="link" data-entity-1="ent0013" data-entity-2="ent0015" data-link-type="extension" data-source-line="89" id="lnk27"><path codeLine="89" d="M689,346.48 C689,373.94 689,396.39 689,429.35" fill="none" id="ConstraintRule-backto-ValueConstraint" style="stroke:#181818;stroke-width:1;"/><polygon fill="none" points="689,328.48,683,346.48,695,346.48,689,328.48" style="stroke:#181818;stroke-width:1;stroke-linejoin:miter;stroke-miterlimit:10;"/></g><!--reverse link ConstraintRule to ObjectRestriction--><g class="link" data-entity-1="ent0013" data-entity-2="ent0016" data-link-type="extension" data-source-line="90" id="lnk28"><path codeLine="90" d="M736.5608,340.6626 C774.5208,375.5626 822.05,419.27 859.92,454.08" fill="none" id="ConstraintRule-backto-ObjectRestriction" style="stroke:#181818;stroke-width:1;"/><polygon fill="none" points="723.31,328.48,732.4999,345.0796,740.6217,336.2457,723.31,328.48" style="stroke:#181818;stroke-width:1;stroke-linejoin:miter;stroke-miterlimit:10;"/></g><!--reverse link ConstraintRule to FileValidationRule--><g class="link" data-entity-1="ent0013" data-entity-2="ent0017" data-link-type="extension" data-source-line="91" id="lnk29"><path codeLine="91" d="M774.0107,330.8277 C804.1007,342.5577 823.24,349.54 856,360.68 C918.37,381.87 938.15,375.61 998,403.12 C1014.2,410.57 1030.76,419.81 1046.36,429.38" fill="none" id="ConstraintRule-backto-FileValidationRule" style="stroke:#181818;stroke-width:1;"/><polygon fill="none" points="757.24,324.29,771.8315,336.418,776.19,325.2375,757.24,324.29" style="stroke:#181818;stroke-width:1;stroke-linejoin:miter;stroke-miterlimit:10;"/></g><!--link ExtensionBinding to StandardExtension--><g class="link" data-entity-1="ent0012" data-entity-2="ent0008" data-link-type="dependency" data-source-line="93" id="lnk30"><path codeLine="93" d="M1132.71,336.54 C1169.37,355.81 1213.43,379.8 1252,403.12 C1273.86,416.34 1293.1299,428.9718 1313.5299,442.8918" fill="none" id="ExtensionBinding-to-StandardExtension" style="stroke:#181818;stroke-width:1;stroke-dasharray:7,7;"/><polygon fill="#181818" points="1317.66,445.71,1312.4804,437.3332,1313.5299,442.8918,1307.9713,443.9413,1317.66,445.71" style="stroke:#181818;stroke-width:1;stroke-linejoin:miter;stroke-miterlimit:10;"/></g><!--link ExtensionBinding to PdsspExtension--><g class="link" data-entity-1="ent0012" data-entity-2="ent0009" data-link-type="dependency" data-source-line="94" id="lnk31"><path codeLine="94" d="M1236.68,322.32 C1313.22,338.14 1401.23,363.36 1474,403.12 C1494.01,414.05 1509.4247,427.0245 1524.5647,442.4245" fill="none" id="ExtensionBinding-to-PdsspExtension" style="stroke:#181818;stroke-width:1;stroke-dasharray:7,7;"/><polygon fill="#181818" points="1528.07,445.99,1524.6129,436.7678,1524.5647,442.4245,1518.908,442.3763,1528.07,445.99" style="stroke:#181818;stroke-width:1;stroke-linejoin:miter;stroke-miterlimit:10;"/></g><!--link PDSSPProfile to Item--><g class="link" data-entity-1="ent0011" data-entity-2="ent0004" data-link-type="dependency" data-source-line="95" id="lnk32"><path codeLine="95" d="M357.14,154.48 C351.79,169.71 345.84,186.15 340,201.19 C312.12,273.03 308.42,292.77 272,360.68 C261.1,381 250.6279,398.0994 237.9979,417.1994" fill="none" id="PDSSPProfile-to-Item" style="stroke:#181818;stroke-width:1;stroke-dasharray:7,7;"/><polygon fill="#181818" points="235.24,421.37,243.5407,416.0691,237.9979,417.1994,236.8676,411.6566,235.24,421.37" style="stroke:#181818;stroke-width:1;stroke-linejoin:miter;stroke-miterlimit:10;"/><text fill="#000000" font-family="sans-serif" font-size="13" lengthAdjust="spacing" textLength="58.9697" x="329.53" y="300.4969">validates</text></g><!--link FileValidationRule to Asset--><g class="link" data-entity-1="ent0017" data-entity-2="ent0005" data-link-type="dependency" data-source-line="97" id="lnk34"><path codeLine="97" d="M1047.36,543.33 C1031.6,552.49 1014.73,560.95 998,567.01 C726.61,665.42 376.7299,675.2368 264.5699,675.7568" fill="none" id="FileValidationRule-to-Asset" style="stroke:#181818;stroke-width:1;stroke-dasharray:7,7;"/><polygon fill="#181818" points="259.57,675.78,268.5884,679.7382,264.5699,675.7568,268.5514,671.7383,259.57,675.78" style="stroke:#181818;stroke-width:1;stroke-linejoin:miter;stroke-miterlimit:10;"/><text fill="#000000" font-family="sans-serif" font-size="13" lengthAdjust="spacing" textLength="58.9697" x="939.04" y="594.2269">validates</text></g><?plantuml-src ZLHDZzCm4BtdLrWvGTcjw1K1qhAm4XA8gbtsWj1gOazJKySEjbDQxVQ_OwVEXvCKSKkUtxmPUzvC2NG7EP9qVNzpIwZII5xaA55pUaKgIRSWSsGlK_AK448564DkmO9GUOqGyefm5ZwC1VguHssuadq83nQb1ur3JvsE4WAfTVXOgWwnZKXL5A0vcePbiNXq2cWRH73gCc0a_zcnni8vgWAjFf8Vh-VpnS-0Pfawn4YfLOdQTad_TPCRNqkRQwjn4pxjiSJmgPN0EEeBbxisIAE8mq_9AKdAfZiFYa9M2T37VYVM5YG3pJurPRLoXcwnWE-QjzV13Jz4wPVCcF9_8yaxafO-81sLjlouNY_9KgiD5yuyLCaDpoiDcS0h0enno_SO6QYEQ0967RBS2hpiAA-lT67kLNIRzY8Vk6HSvXVle_5tnJKMpbxaAVomPurK5GvZxbkLtfCWJY41PCPgeBQrhVJ_NDfLrQlVWixHtd4KB2fi5L98D2OAc2wadpnSrx-WQr1hpqxx0KI5NJsjD0YX_Y2hZqqTE6jz3TQYbh7P2ovvKHK340unsENzblroWxj2bvV70nmodmakzIAaxcBlNDDTOPo13unUf1xfbMgx7yI-8kDmxoQffzSxze9jzmSKrtkwS-kZQK9ZtcQ5fOkKgEjhaixIPgrDdxMhAkbjhJx3RvkaNZaUdGMqNWmT750_-4CTV-GVEesc8qcYMUbB3mr_cHaRDXduz-spemrDEaaQk6sICtB696liWIGP3V1y_dwyuAPfyIgBNyAVrmruG_Rdb6uDZnYzRlHv4sRrxFE-xnF_0W00?></g></svg>