<svg xmlns="http://www.w3.org/2000/svg" xmlns:xlink="http://www.w3.org/1999/xlink" contentStyleType="text/css" data-diagram-type="CLASS" height="1293px" preserveAspectRatio="none" style="width:1710px;height:1293px;background:#FFFFFF;" version="1.1" viewBox="0 0 1710 1293" width="1710px" zoomAndPan="magnify"><?plantuml 1.2026.6?><defs/><g><!--cluster STAC Core--><g class="cluster" data-qualified-name="STAC Core" data-source-line="7" id="ent0001"><path d="M699.42,386.48 L782.3282,386.48 A3.75,3.75 0 0 1 784.8282,388.98 L791.8282,408.7769 L1281.97,408.7769 A2.5,2.5 0 0 1 1284.47,411.2769 L1284.47,694.98 A2.5,2.5 0 0 1 1281.97,697.48 L699.42,697.48 A2.5,2.5 0 0 1 696.92,694.98 L696.92,388.98 A2.5,2.5 0 0 1 699.42,386.48" fill="none" style="stroke:#000000;stroke-width:1.5;"/><line style="stroke:#000000;stroke-width:1.5;" x1="696.92" x2="791.8282" y1="408.7769" y2="408.7769"/><text fill="#000000" font-family="sans-serif" font-size="14" font-weight="700" lengthAdjust="spacing" textLength="81.9082" x="700.92" y="401.4751">STAC Core</text></g><!--cluster PDSSP Profile--><g class="cluster" data-qualified-name="PDSSP Profile" data-source-line="29" id="ent0006"><path d="M128.72,684.48 L238.8694,684.48 A3.75,3.75 0 0 1 241.3694,686.98 L248.3694,706.7769 L275.24,706.7769 A2.5,2.5 0 0 1 277.74,709.2769 L277.74,844.98 A2.5,2.5 0 0 1 275.24,847.48 L128.72,847.48 A2.5,2.5 0 0 1 126.22,844.98 L126.22,686.98 A2.5,2.5 0 0 1 128.72,684.48" fill="#ADD8E6" style="stroke:#000000;stroke-width:1.5;"/><line style="stroke:#000000;stroke-width:1.5;" x1="126.22" x2="248.3694" y1="706.7769" y2="706.7769"/><text fill="#000000" font-family="sans-serif" font-size="14" font-weight="700" lengthAdjust="spacing" textLength="109.1494" x="130.22" y="699.4751">PDSSP Profile</text></g><!--cluster Mandatory Extensions--><g class="cluster" data-qualified-name="Mandatory Extensions" data-source-line="38" id="ent0008"><path d="M1077.95,835.48 L1254.7771,835.48 A3.75,3.75 0 0 1 1257.2771,837.98 L1264.2771,857.7769 L1693.2,857.7769 A2.5,2.5 0 0 1 1695.7,860.2769 L1695.7,1191.98 A2.5,2.5 0 0 1 1693.2,1194.48 L1077.95,1194.48 A2.5,2.5 0 0 1 1075.45,1191.98 L1075.45,837.98 A2.5,2.5 0 0 1 1077.95,835.48" fill="#90EE90" style="stroke:#000000;stroke-width:1.5;"/><line style="stroke:#000000;stroke-width:1.5;" x1="1075.45" x2="1264.2771" y1="857.7769" y2="857.7769"/><text fill="#000000" font-family="sans-serif" font-size="14" font-weight="700" lengthAdjust="spacing" textLength="175.8271" x="1079.45" y="850.4751">Mandatory Extensions</text></g><!--class Item--><g class="entity" data-qualified-name="STAC Core.Item" data-source-line="8" id="ent0002"><rect fill="#F1F1F1" height="94.8906" rx="2.5" ry="2.5" style="stroke:#181818;stroke-width:0.5;" width="96.75" x="723.83" y="559.03"/><ellipse cx="753.5264" cy="574.03" fill="#ADD1B2" rx="10" ry="10" style="stroke:#181818;stroke-width:1;"/><path d="M755.917,578.7331 Q755.4326,578.9831 754.9014,579.1081 Q754.3858,579.2331 753.8076,579.2331 Q751.7451,579.2331 750.6514,577.8738 Q749.5733,576.5144 749.5733,573.9363 Q749.5733,571.3581 750.6514,569.9988 Q751.7451,568.6394 753.8076,568.6394 Q754.3858,568.6394 754.917,568.7644 Q755.4483,568.8894 755.917,569.1238 L755.917,571.3738 Q755.4014,570.8894 754.9014,570.6706 Q754.417,570.4519 753.9014,570.4519 Q752.792,570.4519 752.2295,571.3269 Q751.667,572.2019 751.667,573.9363 Q751.667,575.655 752.2295,576.5456 Q752.792,577.4206 753.9014,577.4206 Q754.417,577.4206 754.9014,577.2019 Q755.4014,576.9675 755.917,576.4988 L755.917,578.7331 Z " fill="#000000"/><text fill="#000000" font-family="sans-serif" font-size="14" lengthAdjust="spacing" textLength="31.8691" x="770.0145" y="578.8767">Item</text><line style="stroke:#181818;stroke-width:0.5;" x1="724.83" x2="819.58" y1="589.03" y2="589.03"/><g data-visibility-modifier="PUBLIC_FIELD"><ellipse cx="734.83" cy="602.6784" fill="none" rx="3" ry="3" style="stroke:#038048;stroke-width:1;"/></g><text fill="#000000" font-family="sans-serif" font-size="14" lengthAdjust="spacing" textLength="12.7764" x="742.83" y="606.0251">id</text><g data-visibility-modifier="PUBLIC_FIELD"><ellipse cx="734.83" cy="618.9753" fill="none" rx="3" ry="3" style="stroke:#038048;stroke-width:1;"/></g><text fill="#000000" font-family="sans-serif" font-size="14" lengthAdjust="spacing" textLength="67.8467" x="742.83" y="622.322">geometry</text><g data-visibility-modifier="PUBLIC_FIELD"><ellipse cx="734.83" cy="635.2722" fill="none" rx="3" ry="3" style="stroke:#038048;stroke-width:1;"/></g><text fill="#000000" font-family="sans-serif" font-size="14" lengthAdjust="spacing" textLength="71.75" x="742.83" y="638.6189">properties</text><line style="stroke:#181818;stroke-width:0.5;" x1="724.83" x2="819.58" y1="645.9206" y2="645.9206"/></g><!--class Collection--><g class="entity" data-qualified-name="STAC Core.Collection" data-source-line="14" id="ent0003"><rect fill="#F1F1F1" height="94.8906" rx="2.5" ry="2.5" style="stroke:#181818;stroke-width:0.5;" width="102.5742" x="720.92" y="429.03"/><ellipse cx="736.4168" cy="444.03" fill="#ADD1B2" rx="10" ry="10" style="stroke:#181818;stroke-width:1;"/><path d="M738.8074,448.7331 Q738.323,448.9831 737.7918,449.1081 Q737.2762,449.2331 736.698,449.2331 Q734.6355,449.2331 733.5418,447.8738 Q732.4637,446.5144 732.4637,443.9363 Q732.4637,441.3581 733.5418,439.9988 Q734.6355,438.6394 736.698,438.6394 Q737.2762,438.6394 737.8074,438.7644 Q738.3387,438.8894 738.8074,439.1238 L738.8074,441.3738 Q738.2918,440.8894 737.7918,440.6706 Q737.3074,440.4519 736.7918,440.4519 Q735.6824,440.4519 735.1199,441.3269 Q734.5574,442.2019 734.5574,443.9363 Q734.5574,445.655 735.1199,446.5456 Q735.6824,447.4206 736.7918,447.4206 Q737.3074,447.4206 737.7918,447.2019 Q738.2918,446.9675 738.8074,446.4988 L738.8074,448.7331 Z " fill="#000000"/><text fill="#000000" font-family="sans-serif" font-size="14" lengthAdjust="spacing" textLength="69.248" x="749.7494" y="448.8767">Collection</text><line style="stroke:#181818;stroke-width:0.5;" x1="721.92" x2="822.4942" y1="459.03" y2="459.03"/><g data-visibility-modifier="PUBLIC_FIELD"><ellipse cx="731.92" cy="472.6784" fill="none" rx="3" ry="3" style="stroke:#038048;stroke-width:1;"/></g><text fill="#000000" font-family="sans-serif" font-size="14" lengthAdjust="spacing" textLength="12.7764" x="739.92" y="476.0251">id</text><g data-visibility-modifier="PUBLIC_FIELD"><ellipse cx="731.92" cy="488.9753" fill="none" rx="3" ry="3" style="stroke:#038048;stroke-width:1;"/></g><text fill="#000000" font-family="sans-serif" font-size="14" lengthAdjust="spacing" textLength="45.3633" x="739.92" y="492.322">extent</text><g data-visibility-modifier="PUBLIC_FIELD"><ellipse cx="731.92" cy="505.2722" fill="none" rx="3" ry="3" style="stroke:#038048;stroke-width:1;"/></g><text fill="#000000" font-family="sans-serif" font-size="14" lengthAdjust="spacing" textLength="77.5742" x="739.92" y="508.6189">summaries</text><line style="stroke:#181818;stroke-width:0.5;" x1="721.92" x2="822.4942" y1="515.9206" y2="515.9206"/></g><!--class Asset--><g class="entity" data-qualified-name="STAC Core.Asset" data-source-line="20" id="ent0004"><rect fill="#F1F1F1" height="94.8906" rx="2.5" ry="2.5" style="stroke:#181818;stroke-width:0.5;" width="68.2676" x="1192.2" y="559.03"/><ellipse cx="1206.2" cy="574.03" fill="#ADD1B2" rx="10" ry="10" style="stroke:#181818;stroke-width:1;"/><path d="M1208.5906,578.7331 Q1208.1063,578.9831 1207.575,579.1081 Q1207.0594,579.2331 1206.4813,579.2331 Q1204.4188,579.2331 1203.325,577.8738 Q1202.2469,576.5144 1202.2469,573.9363 Q1202.2469,571.3581 1203.325,569.9988 Q1204.4188,568.6394 1206.4813,568.6394 Q1207.0594,568.6394 1207.5906,568.7644 Q1208.1219,568.8894 1208.5906,569.1238 L1208.5906,571.3738 Q1208.075,570.8894 1207.575,570.6706 Q1207.0906,570.4519 1206.575,570.4519 Q1205.4656,570.4519 1204.9031,571.3269 Q1204.3406,572.2019 1204.3406,573.9363 Q1204.3406,575.655 1204.9031,576.5456 Q1205.4656,577.4206 1206.575,577.4206 Q1207.0906,577.4206 1207.575,577.2019 Q1208.075,576.9675 1208.5906,576.4988 L1208.5906,578.7331 Z " fill="#000000"/><text fill="#000000" font-family="sans-serif" font-size="14" lengthAdjust="spacing" textLength="38.2676" x="1219.2" y="578.8767">Asset</text><line style="stroke:#181818;stroke-width:0.5;" x1="1193.2" x2="1259.4676" y1="589.03" y2="589.03"/><g data-visibility-modifier="PUBLIC_FIELD"><ellipse cx="1203.2" cy="602.6784" fill="none" rx="3" ry="3" style="stroke:#038048;stroke-width:1;"/></g><text fill="#000000" font-family="sans-serif" font-size="14" lengthAdjust="spacing" textLength="28.1709" x="1211.2" y="606.0251">href</text><g data-visibility-modifier="PUBLIC_FIELD"><ellipse cx="1203.2" cy="618.9753" fill="none" rx="3" ry="3" style="stroke:#038048;stroke-width:1;"/></g><text fill="#000000" font-family="sans-serif" font-size="14" lengthAdjust="spacing" textLength="31.2744" x="1211.2" y="622.322">type</text><g data-visibility-modifier="PUBLIC_FIELD"><ellipse cx="1203.2" cy="635.2722" fill="none" rx="3" ry="3" style="stroke:#038048;stroke-width:1;"/></g><text fill="#000000" font-family="sans-serif" font-size="14" lengthAdjust="spacing" textLength="34.1182" x="1211.2" y="638.6189">roles</text><line style="stroke:#181818;stroke-width:0.5;" x1="1193.2" x2="1259.4676" y1="645.9206" y2="645.9206"/></g><!--class PDSSPProfile--><g class="entity" data-qualified-name="PDSSP Profile.PDSSPProfile" data-source-line="30" id="ent0007"><rect fill="#F1F1F1" height="111.1875" rx="2.5" ry="2.5" style="stroke:#181818;stroke-width:0.5;" width="119.5234" x="142.22" y="719.89"/><ellipse cx="156.22" cy="734.89" fill="#ADD1B2" rx="10" ry="10" style="stroke:#181818;stroke-width:1;"/><path d="M158.6106,739.5931 Q158.1263,739.8431 157.595,739.9681 Q157.0794,740.0931 156.5013,740.0931 Q154.4388,740.0931 153.345,738.7338 Q152.2669,737.3744 152.2669,734.7963 Q152.2669,732.2181 153.345,730.8588 Q154.4388,729.4994 156.5013,729.4994 Q157.0794,729.4994 157.6106,729.6244 Q158.1419,729.7494 158.6106,729.9838 L158.6106,732.2338 Q158.095,731.7494 157.595,731.5306 Q157.1106,731.3119 156.595,731.3119 Q155.4856,731.3119 154.9231,732.1869 Q154.3606,733.0619 154.3606,734.7963 Q154.3606,736.515 154.9231,737.4056 Q155.4856,738.2806 156.595,738.2806 Q157.1106,738.2806 157.595,738.0619 Q158.095,737.8275 158.6106,737.3588 L158.6106,739.5931 Z " fill="#000000"/><text fill="#000000" font-family="sans-serif" font-size="14" lengthAdjust="spacing" textLength="89.5234" x="169.22" y="739.7367">PDSSPProfile</text><line style="stroke:#181818;stroke-width:0.5;" x1="143.22" x2="260.7434" y1="749.89" y2="749.89"/><g data-visibility-modifier="PUBLIC_FIELD"><ellipse cx="153.22" cy="763.5384" fill="none" rx="3" ry="3" style="stroke:#038048;stroke-width:1;"/></g><text fill="#000000" font-family="sans-serif" font-size="14" lengthAdjust="spacing" textLength="12.7764" x="161.22" y="766.8851">id</text><g data-visibility-modifier="PUBLIC_FIELD"><ellipse cx="153.22" cy="779.8353" fill="none" rx="3" ry="3" style="stroke:#038048;stroke-width:1;"/></g><text fill="#000000" font-family="sans-serif" font-size="14" lengthAdjust="spacing" textLength="27.3711" x="161.22" y="783.182">title</text><g data-visibility-modifier="PUBLIC_FIELD"><ellipse cx="153.22" cy="796.1322" fill="none" rx="3" ry="3" style="stroke:#038048;stroke-width:1;"/></g><text fill="#000000" font-family="sans-serif" font-size="14" lengthAdjust="spacing" textLength="87.3359" x="161.22" y="799.4789">stac_version</text><g data-visibility-modifier="PUBLIC_FIELD"><ellipse cx="153.22" cy="812.4291" fill="none" rx="3" ry="3" style="stroke:#038048;stroke-width:1;"/></g><text fill="#000000" font-family="sans-serif" font-size="14" lengthAdjust="spacing" textLength="82.4346" x="161.22" y="815.7757">conformsTo</text><line style="stroke:#181818;stroke-width:0.5;" x1="143.22" x2="260.7434" y1="823.0775" y2="823.0775"/></g><!--class SSYSExtension--><g class="entity" data-qualified-name="Mandatory Extensions.SSYSExtension" data-source-line="39" id="ent0009"><rect fill="#F1F1F1" height="78.5938" rx="2.5" ry="2.5" style="stroke:#181818;stroke-width:0.5;" width="253.7646" x="1099.45" y="898.18"/><ellipse cx="1170.3621" cy="913.18" fill="#ADD1B2" rx="10" ry="10" style="stroke:#181818;stroke-width:1;"/><path d="M1172.7527,917.8831 Q1172.2684,918.1331 1171.7371,918.2581 Q1171.2215,918.3831 1170.6434,918.3831 Q1168.5809,918.3831 1167.4871,917.0238 Q1166.409,915.6644 1166.409,913.0863 Q1166.409,910.5081 1167.4871,909.1488 Q1168.5809,907.7894 1170.6434,907.7894 Q1171.2215,907.7894 1171.7527,907.9144 Q1172.284,908.0394 1172.7527,908.2738 L1172.7527,910.5238 Q1172.2371,910.0394 1171.7371,909.8206 Q1171.2527,909.6019 1170.7371,909.6019 Q1169.6277,909.6019 1169.0652,910.4769 Q1168.5027,911.3519 1168.5027,913.0863 Q1168.5027,914.805 1169.0652,915.6956 Q1169.6277,916.5706 1170.7371,916.5706 Q1171.2527,916.5706 1171.7371,916.3519 Q1172.2371,916.1175 1172.7527,915.6488 L1172.7527,917.8831 Z " fill="#000000"/><text fill="#000000" font-family="sans-serif" font-size="14" lengthAdjust="spacing" textLength="103.9404" x="1189.3621" y="918.0267">SSYSExtension</text><line style="stroke:#181818;stroke-width:0.5;" x1="1100.45" x2="1352.2146" y1="928.18" y2="928.18"/><g data-visibility-modifier="PUBLIC_FIELD"><ellipse cx="1110.45" cy="941.8284" fill="none" rx="3" ry="3" style="stroke:#038048;stroke-width:1;"/></g><text fill="#000000" font-family="sans-serif" font-size="14" lengthAdjust="spacing" textLength="228.7646" x="1118.45" y="945.1751">targets: SolarSystemTarget[1..*]</text><g data-visibility-modifier="PUBLIC_FIELD"><ellipse cx="1110.45" cy="958.1253" fill="none" rx="3" ry="3" style="stroke:#038048;stroke-width:1;"/></g><text fill="#000000" font-family="sans-serif" font-size="14" lengthAdjust="spacing" textLength="176.4424" x="1118.45" y="961.472">target_class: TargetClass</text><line style="stroke:#181818;stroke-width:0.5;" x1="1100.45" x2="1352.2146" y1="968.7738" y2="968.7738"/></g><!--class ProductExtension--><g class="entity" data-qualified-name="Mandatory Extensions.ProductExtension" data-source-line="44" id="ent0010"><rect fill="#F1F1F1" height="62.2969" rx="2.5" ry="2.5" style="stroke:#181818;stroke-width:0.5;" width="153.4883" x="1149.59" y="1108.33"/><ellipse cx="1164.0624" cy="1123.33" fill="#ADD1B2" rx="10" ry="10" style="stroke:#181818;stroke-width:1;"/><path d="M1166.453,1128.0331 Q1165.9687,1128.2831 1165.4374,1128.4081 Q1164.9218,1128.5331 1164.3437,1128.5331 Q1162.2812,1128.5331 1161.1874,1127.1738 Q1160.1093,1125.8144 1160.1093,1123.2363 Q1160.1093,1120.6581 1161.1874,1119.2988 Q1162.2812,1117.9394 1164.3437,1117.9394 Q1164.9218,1117.9394 1165.453,1118.0644 Q1165.9843,1118.1894 1166.453,1118.4238 L1166.453,1120.6738 Q1165.9374,1120.1894 1165.4374,1119.9706 Q1164.953,1119.7519 1164.4374,1119.7519 Q1163.328,1119.7519 1162.7655,1120.6269 Q1162.203,1121.5019 1162.203,1123.2363 Q1162.203,1124.955 1162.7655,1125.8456 Q1163.328,1126.7206 1164.4374,1126.7206 Q1164.953,1126.7206 1165.4374,1126.5019 Q1165.9374,1126.2675 1166.453,1125.7988 L1166.453,1128.0331 Z " fill="#000000"/><text fill="#000000" font-family="sans-serif" font-size="14" lengthAdjust="spacing" textLength="122.4385" x="1177.1674" y="1128.1767">ProductExtension</text><line style="stroke:#181818;stroke-width:0.5;" x1="1150.59" x2="1302.0783" y1="1138.33" y2="1138.33"/><g data-visibility-modifier="PUBLIC_FIELD"><ellipse cx="1160.59" cy="1151.9784" fill="none" rx="3" ry="3" style="stroke:#038048;stroke-width:1;"/></g><text fill="#000000" font-family="sans-serif" font-size="14" lengthAdjust="spacing" textLength="128.4883" x="1168.59" y="1155.3251">type: ProductType</text><line style="stroke:#181818;stroke-width:0.5;" x1="1150.59" x2="1302.0783" y1="1162.6269" y2="1162.6269"/></g><!--class ProcessingExtension--><g class="entity" data-qualified-name="Mandatory Extensions.ProcessingExtension" data-source-line="48" id="ent0011"><rect fill="#F1F1F1" height="62.2969" rx="2.5" ry="2.5" style="stroke:#181818;stroke-width:0.5;" width="179.9707" x="1136.35" y="1011.33"/><ellipse cx="1153.0188" cy="1026.33" fill="#ADD1B2" rx="10" ry="10" style="stroke:#181818;stroke-width:1;"/><path d="M1155.4094,1031.0331 Q1154.925,1031.2831 1154.3938,1031.4081 Q1153.8782,1031.5331 1153.3,1031.5331 Q1151.2375,1031.5331 1150.1438,1030.1738 Q1149.0657,1028.8144 1149.0657,1026.2363 Q1149.0657,1023.6581 1150.1438,1022.2987 Q1151.2375,1020.9394 1153.3,1020.9394 Q1153.8782,1020.9394 1154.4094,1021.0644 Q1154.9407,1021.1894 1155.4094,1021.4237 L1155.4094,1023.6737 Q1154.8938,1023.1894 1154.3938,1022.9706 Q1153.9094,1022.7519 1153.3938,1022.7519 Q1152.2844,1022.7519 1151.7219,1023.6269 Q1151.1594,1024.5019 1151.1594,1026.2363 Q1151.1594,1027.955 1151.7219,1028.8456 Q1152.2844,1029.7206 1153.3938,1029.7206 Q1153.9094,1029.7206 1154.3938,1029.5019 Q1154.8938,1029.2675 1155.4094,1028.7988 L1155.4094,1031.0331 Z " fill="#000000"/><text fill="#000000" font-family="sans-serif" font-size="14" lengthAdjust="spacing" textLength="144.04" x="1166.6119" y="1031.1767">ProcessingExtension</text><line style="stroke:#181818;stroke-width:0.5;" x1="1137.35" x2="1315.3207" y1="1041.33" y2="1041.33"/><g data-visibility-modifier="PUBLIC_FIELD"><ellipse cx="1147.35" cy="1054.9784" fill="none" rx="3" ry="3" style="stroke:#038048;stroke-width:1;"/></g><text fill="#000000" font-family="sans-serif" font-size="14" lengthAdjust="spacing" textLength="154.9707" x="1155.35" y="1058.3251">level: ProcessingLevel</text><line style="stroke:#181818;stroke-width:0.5;" x1="1137.35" x2="1315.3207" y1="1065.6269" y2="1065.6269"/></g><!--class VersionExtension--><g class="entity" data-qualified-name="Mandatory Extensions.VersionExtension" data-source-line="52" id="ent0012"><rect fill="#F1F1F1" height="62.2969" rx="2.5" ry="2.5" style="stroke:#181818;stroke-width:0.5;" width="151.2969" x="1468.91" y="1108.33"/><ellipse cx="1482.91" cy="1123.33" fill="#ADD1B2" rx="10" ry="10" style="stroke:#181818;stroke-width:1;"/><path d="M1485.3006,1128.0331 Q1484.8163,1128.2831 1484.285,1128.4081 Q1483.7694,1128.5331 1483.1913,1128.5331 Q1481.1288,1128.5331 1480.035,1127.1738 Q1478.9569,1125.8144 1478.9569,1123.2363 Q1478.9569,1120.6581 1480.035,1119.2988 Q1481.1288,1117.9394 1483.1913,1117.9394 Q1483.7694,1117.9394 1484.3006,1118.0644 Q1484.8319,1118.1894 1485.3006,1118.4238 L1485.3006,1120.6738 Q1484.785,1120.1894 1484.285,1119.9706 Q1483.8006,1119.7519 1483.285,1119.7519 Q1482.1756,1119.7519 1481.6131,1120.6269 Q1481.0506,1121.5019 1481.0506,1123.2363 Q1481.0506,1124.955 1481.6131,1125.8456 Q1482.1756,1126.7206 1483.285,1126.7206 Q1483.8006,1126.7206 1484.285,1126.5019 Q1484.785,1126.2675 1485.3006,1125.7988 L1485.3006,1128.0331 Z " fill="#000000"/><text fill="#000000" font-family="sans-serif" font-size="14" lengthAdjust="spacing" textLength="121.2969" x="1495.91" y="1128.1767">VersionExtension</text><line style="stroke:#181818;stroke-width:0.5;" x1="1469.91" x2="1619.2069" y1="1138.33" y2="1138.33"/><g data-visibility-modifier="PUBLIC_FIELD"><ellipse cx="1479.91" cy="1151.9784" fill="none" rx="3" ry="3" style="stroke:#038048;stroke-width:1;"/></g><text fill="#000000" font-family="sans-serif" font-size="14" lengthAdjust="spacing" textLength="102.2246" x="1487.91" y="1155.3251">version: String</text><line style="stroke:#181818;stroke-width:0.5;" x1="1469.91" x2="1619.2069" y1="1162.6269" y2="1162.6269"/></g><!--class PDSSPExtension--><g class="entity" data-qualified-name="Mandatory Extensions.PDSSPExtension" data-source-line="56" id="ent0013"><rect fill="#F1F1F1" height="127.4844" rx="2.5" ry="2.5" style="stroke:#181818;stroke-width:0.5;" width="254.291" x="1417.41" y="945.74"/><ellipse cx="1483.472" cy="960.74" fill="#ADD1B2" rx="10" ry="10" style="stroke:#181818;stroke-width:1;"/><path d="M1485.8626,965.4431 Q1485.3783,965.6931 1484.847,965.8181 Q1484.3314,965.9431 1483.7533,965.9431 Q1481.6908,965.9431 1480.597,964.5838 Q1479.5189,963.2244 1479.5189,960.6463 Q1479.5189,958.0681 1480.597,956.7088 Q1481.6908,955.3494 1483.7533,955.3494 Q1484.3314,955.3494 1484.8626,955.4744 Q1485.3939,955.5994 1485.8626,955.8338 L1485.8626,958.0838 Q1485.347,957.5994 1484.847,957.3806 Q1484.3626,957.1619 1483.847,957.1619 Q1482.7376,957.1619 1482.1751,958.0369 Q1481.6126,958.9119 1481.6126,960.6463 Q1481.6126,962.365 1482.1751,963.2556 Q1482.7376,964.1306 1483.847,964.1306 Q1484.3626,964.1306 1484.847,963.9119 Q1485.347,963.6775 1485.8626,963.2088 L1485.8626,965.4431 Z " fill="#000000"/><text fill="#000000" font-family="sans-serif" font-size="14" lengthAdjust="spacing" textLength="114.167" x="1502.472" y="965.5867">PDSSPExtension</text><line style="stroke:#181818;stroke-width:0.5;" x1="1418.41" x2="1670.701" y1="975.74" y2="975.74"/><g data-visibility-modifier="PUBLIC_FIELD"><ellipse cx="1428.41" cy="989.3884" fill="none" rx="3" ry="3" style="stroke:#038048;stroke-width:1;"/></g><text fill="#000000" font-family="sans-serif" font-size="14" lengthAdjust="spacing" textLength="214.5459" x="1436.41" y="992.7351">solar_longitude: Number [0..1]</text><g data-visibility-modifier="PUBLIC_FIELD"><ellipse cx="1428.41" cy="1005.6853" fill="none" rx="3" ry="3" style="stroke:#038048;stroke-width:1;"/></g><text fill="#000000" font-family="sans-serif" font-size="14" lengthAdjust="spacing" textLength="207.9014" x="1436.41" y="1009.032">solar_distance: Number [0..1]</text><g data-visibility-modifier="PUBLIC_FIELD"><ellipse cx="1428.41" cy="1021.9822" fill="none" rx="3" ry="3" style="stroke:#038048;stroke-width:1;"/></g><text fill="#000000" font-family="sans-serif" font-size="14" lengthAdjust="spacing" textLength="229.291" x="1436.41" y="1025.3289">measurement_type: String [0..1]</text><g data-visibility-modifier="PUBLIC_FIELD"><ellipse cx="1428.41" cy="1038.2791" fill="none" rx="3" ry="3" style="stroke:#038048;stroke-width:1;"/></g><text fill="#000000" font-family="sans-serif" font-size="14" lengthAdjust="spacing" textLength="215.4072" x="1436.41" y="1041.6257">map_resolution: Number [0..1]</text><g data-visibility-modifier="PUBLIC_FIELD"><ellipse cx="1428.41" cy="1054.5759" fill="none" rx="3" ry="3" style="stroke:#038048;stroke-width:1;"/></g><text fill="#000000" font-family="sans-serif" font-size="14" lengthAdjust="spacing" textLength="181.6719" x="1436.41" y="1057.9226">map_scale: Number [0..1]</text><line style="stroke:#181818;stroke-width:0.5;" x1="1418.41" x2="1670.701" y1="1065.2244" y2="1065.2244"/></g><!--class TargetClass--><g class="entity" data-qualified-name="TargetClass" data-source-line="65" id="ent0014"><rect fill="#F1F1F1" height="94.8906" rx="2.5" ry="2.5" style="stroke:#181818;stroke-width:0.5;" width="112.708" x="145.62" y="64.03"/><ellipse cx="159.62" cy="79.03" fill="#EB937F" rx="10" ry="10" style="stroke:#181818;stroke-width:1;"/><path d="M162.62,84.03 L156.2763,84.03 L156.2763,73.8269 L162.62,73.8269 L162.62,75.6081 L158.2919,75.6081 L158.2919,77.7956 L162.2138,77.7956 L162.2138,79.5769 L158.2919,79.5769 L158.2919,82.2487 L162.62,82.2487 L162.62,84.03 Z " fill="#000000"/><text fill="#000000" font-family="sans-serif" font-size="14" lengthAdjust="spacing" textLength="82.708" x="172.62" y="83.8767">TargetClass</text><line style="stroke:#181818;stroke-width:0.5;" x1="146.62" x2="257.328" y1="94.03" y2="94.03"/><text fill="#000000" font-family="sans-serif" font-size="14" lengthAdjust="spacing" textLength="44.3311" x="151.62" y="111.0251">planet</text><text fill="#000000" font-family="sans-serif" font-size="14" lengthAdjust="spacing" textLength="55.7471" x="151.62" y="127.322">satellite</text><text fill="#000000" font-family="sans-serif" font-size="14" lengthAdjust="spacing" textLength="39.6416" x="151.62" y="143.6189">moon</text><line style="stroke:#181818;stroke-width:0.5;" x1="146.62" x2="257.328" y1="150.9206" y2="150.9206"/></g><!--class SolarSystemTarget--><g class="entity" data-qualified-name="SolarSystemTarget" data-source-line="71" id="ent0015"><rect fill="#F1F1F1" height="127.4844" rx="2.5" ry="2.5" style="stroke:#181818;stroke-width:0.5;" width="163.7588" x="120.1" y="193.74"/><ellipse cx="134.1" cy="208.74" fill="#EB937F" rx="10" ry="10" style="stroke:#181818;stroke-width:1;"/><path d="M137.1,213.74 L130.7563,213.74 L130.7563,203.5369 L137.1,203.5369 L137.1,205.3181 L132.7719,205.3181 L132.7719,207.5056 L136.6938,207.5056 L136.6938,209.2869 L132.7719,209.2869 L132.7719,211.9588 L137.1,211.9588 L137.1,213.74 Z " fill="#000000"/><text fill="#000000" font-family="sans-serif" font-size="14" lengthAdjust="spacing" textLength="133.7588" x="147.1" y="213.5867">SolarSystemTarget</text><line style="stroke:#181818;stroke-width:0.5;" x1="121.1" x2="282.8588" y1="223.74" y2="223.74"/><text fill="#000000" font-family="sans-serif" font-size="14" lengthAdjust="spacing" textLength="57.0596" x="126.1" y="240.7351">Mercury</text><text fill="#000000" font-family="sans-serif" font-size="14" lengthAdjust="spacing" textLength="43.2305" x="126.1" y="257.032">Venus</text><text fill="#000000" font-family="sans-serif" font-size="14" lengthAdjust="spacing" textLength="33.708" x="126.1" y="273.3289">Mars</text><text fill="#000000" font-family="sans-serif" font-size="14" lengthAdjust="spacing" textLength="38.083" x="126.1" y="289.6257">Moon</text><text fill="#000000" font-family="sans-serif" font-size="14" lengthAdjust="spacing" textLength="35.3828" x="126.1" y="305.9226">Titan</text><line style="stroke:#181818;stroke-width:0.5;" x1="121.1" x2="282.8588" y1="313.2244" y2="313.2244"/></g><!--class ProductType--><g class="entity" data-qualified-name="ProductType" data-source-line="79" id="ent0016"><rect fill="#F1F1F1" height="208.9688" rx="2.5" ry="2.5" style="stroke:#181818;stroke-width:0.5;" width="146.0322" x="699.19" y="7"/><ellipse cx="725.7834" cy="22" fill="#EB937F" rx="10" ry="10" style="stroke:#181818;stroke-width:1;"/><path d="M728.7834,27 L722.4397,27 L722.4397,16.7969 L728.7834,16.7969 L728.7834,18.5781 L724.4553,18.5781 L724.4553,20.7656 L728.3772,20.7656 L728.3772,22.5469 L724.4553,22.5469 L724.4553,25.2188 L728.7834,25.2188 L728.7834,27 Z " fill="#000000"/><text fill="#000000" font-family="sans-serif" font-size="14" lengthAdjust="spacing" textLength="88.0469" x="741.5819" y="26.8467">ProductType</text><line style="stroke:#181818;stroke-width:0.5;" x1="700.19" x2="844.2222" y1="37" y2="37"/><text fill="#000000" font-family="sans-serif" font-size="14" lengthAdjust="spacing" textLength="36.1484" x="705.19" y="53.9951">Cube</text><text fill="#000000" font-family="sans-serif" font-size="14" lengthAdjust="spacing" textLength="67.8398" x="705.19" y="70.292">Spectrum</text><text fill="#000000" font-family="sans-serif" font-size="14" lengthAdjust="spacing" textLength="98.3965" x="705.19" y="86.5889">Spectral Cube</text><text fill="#000000" font-family="sans-serif" font-size="14" lengthAdjust="spacing" textLength="43.8457" x="705.19" y="102.8857">Image</text><text fill="#000000" font-family="sans-serif" font-size="14" lengthAdjust="spacing" textLength="29.5449" x="705.19" y="119.1826">Map</text><text fill="#000000" font-family="sans-serif" font-size="14" lengthAdjust="spacing" textLength="53.1563" x="705.19" y="135.4795">Volume</text><text fill="#000000" font-family="sans-serif" font-size="14" lengthAdjust="spacing" textLength="82.1953" x="705.19" y="151.7764">Time Series</text><text fill="#000000" font-family="sans-serif" font-size="14" lengthAdjust="spacing" textLength="134.0322" x="705.19" y="168.0732">Dynamic Spectrum</text><text fill="#000000" font-family="sans-serif" font-size="14" lengthAdjust="spacing" textLength="53.7646" x="705.19" y="184.3701">Catalog</text><text fill="#000000" font-family="sans-serif" font-size="14" lengthAdjust="spacing" textLength="98.3486" x="705.19" y="200.667">Spatial Vector</text><line style="stroke:#181818;stroke-width:0.5;" x1="700.19" x2="844.2222" y1="207.9688" y2="207.9688"/></g><!--class ProcessingLevel--><g class="entity" data-qualified-name="ProcessingLevel" data-source-line="92" id="ent0017"><rect fill="#F1F1F1" height="111.1875" rx="2.5" ry="2.5" style="stroke:#181818;stroke-width:0.5;" width="142.5127" x="700.95" y="250.89"/><ellipse cx="714.95" cy="265.89" fill="#EB937F" rx="10" ry="10" style="stroke:#181818;stroke-width:1;"/><path d="M717.95,270.89 L711.6063,270.89 L711.6063,260.6869 L717.95,260.6869 L717.95,262.4681 L713.6219,262.4681 L713.6219,264.6556 L717.5438,264.6556 L717.5438,266.4369 L713.6219,266.4369 L713.6219,269.1088 L717.95,269.1088 L717.95,270.89 Z " fill="#000000"/><text fill="#000000" font-family="sans-serif" font-size="14" lengthAdjust="spacing" textLength="112.5127" x="727.95" y="270.7367">ProcessingLevel</text><line style="stroke:#181818;stroke-width:0.5;" x1="701.95" x2="842.4627" y1="280.89" y2="280.89"/><text fill="#000000" font-family="sans-serif" font-size="14" lengthAdjust="spacing" textLength="60.4365" x="706.95" y="297.8851">Ancillary</text><text fill="#000000" font-family="sans-serif" font-size="14" lengthAdjust="spacing" textLength="29.7568" x="706.95" y="314.182">Raw</text><text fill="#000000" font-family="sans-serif" font-size="14" lengthAdjust="spacing" textLength="72.3447" x="706.95" y="330.4789">Calibrated</text><text fill="#000000" font-family="sans-serif" font-size="14" lengthAdjust="spacing" textLength="54.8242" x="706.95" y="346.7757">Derived</text><line style="stroke:#181818;stroke-width:0.5;" x1="701.95" x2="842.4627" y1="354.0775" y2="354.0775"/></g><g class="entity" data-qualified-name="GMN21" data-source-line="106" id="ent0022"><path d="M6,865.74 L6,971.2244 A0,0 0 0 0 6,971.2244 L397.957,971.2244 A0,0 0 0 0 397.957,971.2244 L397.957,875.74 L387.957,865.74 L205.98,865.74 L201.98,831.34 L197.98,865.74 L6,865.74 A0,0 0 0 0 6,865.74" fill="#FEFFDD" style="stroke:#181818;stroke-width:0.5;"/><path d="M387.957,865.74 L387.957,875.74 L397.957,875.74 L387.957,865.74" fill="#FEFFDD" style="stroke:#181818;stroke-width:0.5;"/><text fill="#000000" font-family="sans-serif" font-size="14" font-weight="700" lengthAdjust="spacing" textLength="123.3818" x="12" y="883.7351">PDSSP PROFILE</text><text fill="#000000" font-family="sans-serif" font-size="14" lengthAdjust="spacing" textLength="364.957" x="12" y="910.032">&#8226; Adds planetary metadata to Items and Collections</text><text fill="#000000" font-family="sans-serif" font-size="14" lengthAdjust="spacing" textLength="249.0605" x="12" y="926.3289">&#8226; Requires 5 mandatory extensions</text><text fill="#000000" font-family="sans-serif" font-size="14" lengthAdjust="spacing" textLength="287.9297" x="12" y="942.6257">&#8226; Values are enumerated (controlled list)</text><text fill="#000000" font-family="sans-serif" font-size="14" lengthAdjust="spacing" textLength="13.5898" x="12" y="958.9226">\n</text><text fill="#000000" font-family="sans-serif" font-size="14" font-weight="700" lengthAdjust="spacing" textLength="55.665" x="34.4902" y="958.9226">Result:</text><text fill="#000000" font-family="sans-serif" font-size="14" lengthAdjust="spacing" textLength="255.541" x="94.6055" y="958.9226">Consistent, validated planetary data</text><line style="stroke:#181818;stroke-width:1;" x1="7" x2="196.9785" y1="892.0369" y2="892.0369"/><line style="stroke:#181818;stroke-width:1;" x1="7" x2="196.9785" y1="894.0369" y2="894.0369"/><line style="stroke:#181818;stroke-width:1;" x1="196.9785" x2="206.9785" y1="891.5369" y2="891.5369"/><line style="stroke:#181818;stroke-width:1;" x1="196.9785" x2="206.9785" y1="893.5369" y2="893.5369"/><line style="stroke:#181818;stroke-width:1;" x1="206.9785" x2="396.957" y1="892.0369" y2="892.0369"/><line style="stroke:#181818;stroke-width:1;" x1="206.9785" x2="396.957" y1="894.0369" y2="894.0369"/></g><g class="entity" data-qualified-name="GMN24" data-source-line="115" id="ent0025"><path d="M583.96,903.55 L583.96,1139.4094 A0,0 0 0 0 583.96,1139.4094 L960.4541,1139.4094 A0,0 0 0 0 960.4541,1139.4094 L960.4541,990.65 L1099.05,960.94 L960.4541,982.65 L960.4541,913.55 L950.4541,903.55 L583.96,903.55 A0,0 0 0 0 583.96,903.55" fill="#FEFFDD" style="stroke:#181818;stroke-width:0.5;"/><path d="M950.4541,903.55 L950.4541,913.55 L960.4541,913.55 L950.4541,903.55" fill="#FEFFDD" style="stroke:#181818;stroke-width:0.5;"/><text fill="#000000" font-family="sans-serif" font-size="14" font-weight="700" lengthAdjust="spacing" textLength="220.9785" x="589.96" y="921.5451">5 MANDATORY EXTENSIONS</text><text fill="#000000" font-family="sans-serif" font-size="14" lengthAdjust="spacing" textLength="35.8477" x="589.96" y="947.842">\n  1.</text><text fill="#000000" font-family="sans-serif" font-size="14" font-weight="700" lengthAdjust="spacing" textLength="109.6416" x="630.2579" y="947.842">Solar System:</text><text fill="#000000" font-family="sans-serif" font-size="14" lengthAdjust="spacing" textLength="282.8711" x="603.3106" y="964.1389">targets &#8594; Mercury, Venus, Mars, Moon...</text><text fill="#000000" font-family="sans-serif" font-size="14" lengthAdjust="spacing" textLength="262.7188" x="603.3106" y="980.4357">target_class &#8594; planet, satellite, moon</text><text fill="#000000" font-family="sans-serif" font-size="14" lengthAdjust="spacing" textLength="35.8477" x="589.96" y="996.7326">\n  2.</text><text fill="#000000" font-family="sans-serif" font-size="14" font-weight="700" lengthAdjust="spacing" textLength="67.3613" x="630.2579" y="996.7326">Product:</text><text fill="#000000" font-family="sans-serif" font-size="14" lengthAdjust="spacing" textLength="269.3359" x="603.3106" y="1013.0295">type &#8594; Image, Spectrum, Cube, Map...</text><text fill="#000000" font-family="sans-serif" font-size="14" lengthAdjust="spacing" textLength="35.8477" x="589.96" y="1029.3264">\n  3.</text><text fill="#000000" font-family="sans-serif" font-size="14" font-weight="700" lengthAdjust="spacing" textLength="91.6289" x="630.2579" y="1029.3264">Processing:</text><text fill="#000000" font-family="sans-serif" font-size="14" lengthAdjust="spacing" textLength="297.9854" x="603.3106" y="1045.6232">level &#8594; Ancillary, Raw, Calibrated, Derived</text><text fill="#000000" font-family="sans-serif" font-size="14" lengthAdjust="spacing" textLength="35.8477" x="589.96" y="1061.9201">\n  4.</text><text fill="#000000" font-family="sans-serif" font-size="14" font-weight="700" lengthAdjust="spacing" textLength="65.5498" x="630.2579" y="1061.9201">Version:</text><text fill="#000000" font-family="sans-serif" font-size="14" lengthAdjust="spacing" textLength="180.9678" x="603.3106" y="1078.217">version &#8594; String identifier</text><text fill="#000000" font-family="sans-serif" font-size="14" lengthAdjust="spacing" textLength="35.8477" x="589.96" y="1094.5139">\n  5.</text><text fill="#000000" font-family="sans-serif" font-size="14" font-weight="700" lengthAdjust="spacing" textLength="57.9072" x="630.2579" y="1094.5139">PDSSP:</text><text fill="#000000" font-family="sans-serif" font-size="14" lengthAdjust="spacing" textLength="220.8076" x="603.3106" y="1110.8107">solar_longitude, solar_distance,</text><text fill="#000000" font-family="sans-serif" font-size="14" lengthAdjust="spacing" textLength="336.1436" x="603.3106" y="1127.1076">measurement_type, map_resolution, map_scale</text><line style="stroke:#181818;stroke-width:1;" x1="584.96" x2="767.2071" y1="929.8469" y2="929.8469"/><line style="stroke:#181818;stroke-width:1;" x1="584.96" x2="767.2071" y1="931.8469" y2="931.8469"/><line style="stroke:#181818;stroke-width:1;" x1="767.2071" x2="777.2071" y1="929.3469" y2="929.3469"/><line style="stroke:#181818;stroke-width:1;" x1="767.2071" x2="777.2071" y1="931.3469" y2="931.3469"/><line style="stroke:#181818;stroke-width:1;" x1="777.2071" x2="959.4541" y1="929.8469" y2="929.8469"/><line style="stroke:#181818;stroke-width:1;" x1="777.2071" x2="959.4541" y1="931.8469" y2="931.8469"/></g><g class="entity" data-qualified-name="GMN27" data-source-line="132" id="ent0028"><path d="M1096.26,721.89 L1096.26,811.0775 L1356.4133,811.0775 L1356.4133,731.89 L1346.4133,721.89 L1096.26,721.89" fill="#FEFFDD" style="stroke:#181818;stroke-width:0.5;"/><path d="M1346.4133,721.89 L1346.4133,731.89 L1356.4133,731.89 L1346.4133,721.89" fill="#FEFFDD" style="stroke:#181818;stroke-width:1;"/><text fill="#000000" font-family="sans-serif" font-size="14" font-weight="700" lengthAdjust="spacing" textLength="112.8682" x="1102.26" y="739.8851">STAC OBJECTS</text><text fill="#000000" font-family="sans-serif" font-size="14" lengthAdjust="spacing" textLength="215.2705" x="1102.26" y="766.182">Item = Individual data product</text><text fill="#000000" font-family="sans-serif" font-size="14" lengthAdjust="spacing" textLength="194.3662" x="1102.26" y="782.4789">Collection = Group of Items</text><text fill="#000000" font-family="sans-serif" font-size="14" lengthAdjust="spacing" textLength="233.1533" x="1102.26" y="798.7757">Asset = File associated with Item</text><line style="stroke:#181818;stroke-width:1;" x1="1097.26" x2="1221.3367" y1="748.1869" y2="748.1869"/><line style="stroke:#181818;stroke-width:1;" x1="1097.26" x2="1221.3367" y1="750.1869" y2="750.1869"/><line style="stroke:#181818;stroke-width:1;" x1="1221.3367" x2="1231.3367" y1="747.6869" y2="747.6869"/><line style="stroke:#181818;stroke-width:1;" x1="1221.3367" x2="1231.3367" y1="749.6869" y2="749.6869"/><line style="stroke:#181818;stroke-width:1;" x1="1231.3367" x2="1355.4133" y1="748.1869" y2="748.1869"/><line style="stroke:#181818;stroke-width:1;" x1="1231.3367" x2="1355.4133" y1="750.1869" y2="750.1869"/></g><!--reverse link Item to Asset--><g class="link" data-entity-1="ent0002" data-entity-2="ent0004" data-link-type="composition" data-source-line="26" id="lnk5"><path codeLine="26" d="M832.74,606.48 C924.56,606.48 1112.27,606.48 1191.74,606.48" fill="none" id="Item-backto-Asset" style="stroke:#181818;stroke-width:1;"/><polygon fill="#181818" points="820.74,606.48,826.74,610.48,832.74,606.48,826.74,602.48,820.74,606.48" style="stroke:#181818;stroke-width:1;stroke-linejoin:miter;stroke-miterlimit:10;"/><text fill="#000000" font-family="sans-serif" font-size="14" lengthAdjust="spacing" textLength="59.2607" x="991.45" y="602.4751">contains</text><text fill="#000000" font-family="sans-serif" font-size="14" lengthAdjust="spacing" textLength="8.9072" x="828.5227" y="620.6726">1</text><text fill="#000000" font-family="sans-serif" font-size="14" lengthAdjust="spacing" textLength="7" x="1177.2403" y="621.0803">*</text></g><!--link PDSSPProfile to Mandatory Extensions--><g class="link" data-entity-1="ent0007" data-entity-2="ent0008" data-link-type="dependency" data-source-line="100" id="lnk18"><path codeLine="100" d="M261.99,780.5 C370,789.69 607.9325,809.9375 820.2975,828.01 C873.3887,832.5281 924.882,836.9103 972.3478,840.9498 C996.0807,842.9696 1018.8067,844.9036 1040.2222,846.7262 C1050.9299,847.6375 1061.31,848.5209 1071.3245,849.3731 C1072.5763,849.4797 1068.8404,849.1617 1070.0807,849.2673" fill="none" id="PDSSPProfile-to-Mandatory Extensions" style="stroke:#181818;stroke-width:1;stroke-dasharray:7,7;"/><polygon fill="#181818" points="1075.0627,849.6913,1066.4343,844.9425,1070.0807,849.2673,1065.7559,852.9137,1075.0627,849.6913" style="stroke:#181818;stroke-width:1;stroke-linejoin:miter;stroke-miterlimit:10;"/><text fill="#000000" font-family="sans-serif" font-size="14" lengthAdjust="spacing" textLength="78.4902" x="733.2" y="804.9051">requires all</text></g><!--link PDSSPProfile to STAC Core--><g class="link" data-entity-1="ent0007" data-entity-2="ent0001" data-link-type="dependency" data-source-line="101" id="lnk19"><path codeLine="101" d="M262.18,766.52 C334.38,755.595 460.22,736.55 568.71,720.13 C622.955,711.92 672.8625,704.3663 709.5587,698.8119 C711.8523,698.4647 714.0942,698.1254 716.2823,697.7942 C716.8293,697.7114 712.4293,698.3774 712.9696,698.2956" fill="none" id="PDSSPProfile-to-STAC Core" style="stroke:#181818;stroke-width:1;stroke-dasharray:7,7;"/><polygon fill="#181818" points="717.9133,697.5473,708.416,694.9393,712.9696,698.2956,709.6133,702.8492,717.9133,697.5473" style="stroke:#181818;stroke-width:1;stroke-linejoin:miter;stroke-miterlimit:10;"/><text fill="#000000" font-family="sans-serif" font-size="14" lengthAdjust="spacing" textLength="124.4551" x="428.96" y="720.7751">adds metadata to</text></g><!--link STAC Core to Mandatory Extensions--><g class="link" data-entity-1="ent0001" data-entity-2="ent0008" data-link-type="dependency" data-source-line="102" id="lnk20"><path codeLine="102" d="M807.8326,697.5452 C808.133,697.6231 808.4351,697.7017 808.7387,697.7808 C809.9533,698.0973 811.1932,698.4233 812.4574,698.759 C814.986,699.4304 817.6123,700.1403 820.3287,700.8893 C825.7616,702.3875 831.5552,704.0425 837.6503,705.8598 C849.8404,709.4943 863.2359,713.7778 877.3612,718.7538 C933.8625,738.6575 1002.04,769.64 1051.45,814.48 C1056.76,819.3 1053.65,824.28 1059.45,828.48 C1063.2,831.1963 1067.1165,833.707 1071.1648,836.0271 C1072.1768,836.6072 1073.1972,837.1753 1074.2252,837.7318 C1074.4822,837.8709 1070.3285,835.6552 1070.5864,835.7929" fill="none" id="STAC Core-to-Mandatory Extensions" style="stroke:#181818;stroke-width:1;stroke-dasharray:7,7;"/><polygon fill="#181818" points="1074.9976,838.1469,1068.9407,830.3807,1070.5864,835.7929,1065.1742,837.4386,1074.9976,838.1469" style="stroke:#181818;stroke-width:1;stroke-linejoin:miter;stroke-miterlimit:10;"/><text fill="#000000" font-family="sans-serif" font-size="14" lengthAdjust="spacing" textLength="32.0742" x="1004.95" y="766.7051">uses</text></g><!--link Item to GMN27--><g class="link" data-entity-1="ent0002" data-entity-2="ent0028" data-link-type="association" data-source-line="132" id="lnk29"><path d="M821.03,617.76 C859.16,627.17 913.73,641.57 960.45,657.48 C1015.41,676.19 1075.33,700.51 1124.26,721.42" fill="none" id="Item-GMN27" style="stroke:#181818;stroke-width:1;stroke-dasharray:7,7;"/></g><g class="legend" data-source-line="139"><rect fill="#DDDDDD" height="58.8906" rx="7.5" ry="7.5" style="stroke:#000000;stroke-width:1;" width="402.4922" x="12" y="1215.48"/><text fill="#000000" font-family="sans-serif" font-size="14" font-weight="700" lengthAdjust="spacing" textLength="108.999" x="17" y="1233.4751">Key Message:</text><text fill="#000000" font-family="sans-serif" font-size="14" lengthAdjust="spacing" textLength="93.9736" x="17" y="1249.772">PDSSP Profile</text><text fill="#000000" font-family="sans-serif" font-size="14" font-weight="700" lengthAdjust="spacing" textLength="74.9697" x="115.4238" y="1249.772">enhances</text><text fill="#000000" font-family="sans-serif" font-size="14" lengthAdjust="spacing" textLength="214.6484" x="194.8438" y="1249.772">STAC with planetary metadata</text><text fill="#000000" font-family="sans-serif" font-size="14" lengthAdjust="spacing" textLength="26.3389" x="17" y="1266.0689">and</text><text fill="#000000" font-family="sans-serif" font-size="14" font-weight="700" lengthAdjust="spacing" textLength="68.2021" x="47.7891" y="1266.0689">enforces</text><text fill="#000000" font-family="sans-serif" font-size="14" lengthAdjust="spacing" textLength="218.7568" x="120.4414" y="1266.0689">standard values across all data</text></g><?plantuml-src VLRRRkD637tNLmpSXxQfeZRjviLO1_0wpY9jReYCe8lj8XXBj3tOaKQT6INh5WlqgH_GJ-YdxPUKv4YoV4dzObt8G_AGXnhtKPMLjB8GXIbDjhAc0B6Gsa7akbTk9NFphChbtfiS5hBM_iAKFbL_W3Xv5MbOUE6Di6gvyY9N5ZAlJ1b5bSm-oYM8GJeRJyJ4M1Y8FoCXCYsT4vSU2huLuZkXykPY2PYFj-lcjhAc0kiLE7pmEUgS9qRh46OV0ZvvA7rpu-gYa7RFV-mS-CvrPM7HNFfr1SsbDNhZnjaEJWRYwFXO38u63S9GPCY4LAMBFlSAlZjFqpjnPyr2QIpwgokYveskeLS_spGc-qLuvNMRYFCoUtm2wuZLy0YZBemjtCnmWltOrxBCfJTsBQP413cvDeMt5g3ivP2cxzBEgal2Ixi4xuOYDLhQTEsmzXa_Ut-I94SVjimU6MaeWi64RhQfnXBpElC7mY3Lm_RrBF2-xPU1SpY4-wuQda0FUoPNz63R_o4Gjk_SC8dbUOkkEr6fA_i-ZfXurAPSAb_dcFPDNSp1YlS_9Cd9XosZN66_okm5cmAagoqKEA6FWO2GnOwLh1uj85xjETE3I6ZZCgaF1EA1WB8k-btXMYejIo1jEEb1Q-M9zCBWNBKUUprdlskmMSsgV40hwl2rjFndU2Pd2clkC7ezPUz9FQSuQOMIjNNHNKhTlheiS7OPjQ8OM7W138lBAOL6l-VhKXOgw-DCf9VQB1bHUeM03_ZEs7ug_H7XTCPbfZHMIUNSosU6qMfkaHAItpd6Uy8hXFXQZEWdxeAuZddkX0KjgIzkfIeNBA8jDIV9sKiw7ABtxpNkI2UarWVSUhjoA6IUEnmPBn59uewD-g__DqhjaB8k_-adQdn8kacuD1uGiH9ciRMAa83NyxDcWTtVNbnUJLz_Fp_3nwFT7pxxyjU_Oan9Xi52JllfyjR4Gikyjx1TutRVyd2AezmM0LqHZTM3nAs941O4zHEuIU8RshgM87EXKM_VelLl9MT-3mw_JqFA6OCYbgElGIoUiCKvEszIfJHnJ791P4I14lwQ8ITRgp6GSYgknpVduzdj_Jin_NKslKalRs_IbzZPa4IPdII4mE8IGLt3nX5_pS8LN_x-frLQ78GMiyvYbbcI97tpi7ZP9rGKRqGT1qs7q3zow4QJ_QWaJt9dySMTh68M9KMkGaW2-Qa5QTJKmmcY8A1EM37fAkx9AkvK5U1UCLopedjOpMvcj6OngXpxfnOAREDxcdGJslFSsT3npZQEWzNk-ertLcsyMQkxWn6EDpWPDDHX85YCjsz-davcXyUWFJYCn6MPgoULrxYXM1nLQ0VjdirHPYJUMbDNRH3IG3XcZCG5BGZijyaK3_6pygkGoIPD3KkwcHllJS63766Ily0QXyevx76WQ-jmGcL0kIAA76k6QsBqVKb7f6HsmCD7wq3yvjBcf32MQcQDu-tMwIia5lq7?></g></svg>