<svg xmlns="http://www.w3.org/2000/svg" xmlns:xlink="http://www.w3.org/1999/xlink" contentStyleType="text/css" data-diagram-type="DESCRIPTION" height="283px" preserveAspectRatio="none" style="width:771px;height:283px;background:#FEFEFE;" version="1.1" viewBox="0 0 771 283" width="771px" zoomAndPan="magnify"><?plantuml 1.2026.6?><defs/><g><rect fill="#FEFEFE" height="283" style="stroke:none;stroke-width:1;" width="771" x="0" y="0"/><!--cluster SOURCES--><g class="cluster" data-qualified-name="SOURCES" data-source-line="11" id="ent0001"><rect fill="#FFF3CD" height="262" rx="2.5" ry="2.5" style="stroke:#555555;stroke-width:1.5;" width="144.76" x="7" y="7"/><text fill="#000000" font-family="sans-serif" font-size="12" font-weight="700" lengthAdjust="spacing" textLength="53.7422" x="52.5089" y="20.1387">Sources</text></g><!--cluster OUTPUTS--><g class="cluster" data-qualified-name="OUTPUTS" data-source-line="19" id="ent0006"><rect fill="#D4EDDA" height="262" rx="2.5" ry="2.5" style="stroke:#555555;stroke-width:1.5;" width="176.44" x="580.7" y="7"/><text fill="#000000" font-family="sans-serif" font-size="12" font-weight="700" lengthAdjust="spacing" textLength="54.4922" x="641.6739" y="20.1387">Outputs</text></g><!--entity ODE--><g class="entity" data-qualified-name="SOURCES.ODE" data-source-line="12" id="ent0002"><rect fill="#FFEEBA" height="47.9375" rx="2.5" ry="2.5" style="stroke:#555555;stroke-width:1.5;" width="104.4922" x="27.13" y="39.03"/><text fill="#000000" font-family="sans-serif" font-size="12" lengthAdjust="spacing" textLength="63.0938" x="37.13" y="60.1687">NASA ODE</text><text fill="#000000" font-family="sans-serif" font-size="12" lengthAdjust="spacing" textLength="84.4922" x="37.13" y="74.1374">(PDS3 / PDS4)</text></g><!--entity LABO--><g class="entity" data-qualified-name="SOURCES.LABO" data-source-line="13" id="ent0003"><rect fill="#FFEEBA" height="47.9375" rx="2.5" ry="2.5" style="stroke:#555555;stroke-width:1.5;" width="112.7598" x="23" y="122.03"/><text fill="#000000" font-family="sans-serif" font-size="12" lengthAdjust="spacing" textLength="72.2754" x="33" y="143.1687">PDSSP-Labo</text><text fill="#000000" font-family="sans-serif" font-size="12" lengthAdjust="spacing" textLength="92.7598" x="33" y="157.1374">(local datasets)</text></g><!--entity ESA--><g class="entity" data-qualified-name="SOURCES.ESA" data-source-line="14" id="ent0004"><rect fill="#FFF9C4" height="47.9375" rx="2.5" ry="2.5" style="stroke:#555555;stroke-width:1.5;" width="79.7246" x="39.52" y="205.03"/><text fill="#000000" font-family="sans-serif" font-size="12" lengthAdjust="spacing" textLength="59.7246" x="49.52" y="226.1687">ESA / ESO</text><text fill="#000000" font-family="sans-serif" font-size="12" lengthAdjust="spacing" textLength="57.8789" x="49.52" y="240.1374">(planned)</text></g><!--entity STACAPI--><g class="entity" data-qualified-name="OUTPUTS.STACAPI" data-source-line="20" id="ent0007"><rect fill="#C3E6CB" height="47.9375" rx="2.5" ry="2.5" style="stroke:#555555;stroke-width:1.5;" width="144.4473" x="596.7" y="39.03"/><text fill="#000000" font-family="sans-serif" font-size="12" lengthAdjust="spacing" textLength="54.334" x="606.7" y="60.1687">STAC API</text><text fill="#000000" font-family="sans-serif" font-size="12" lengthAdjust="spacing" textLength="124.4473" x="606.7" y="74.1374">(discovery &amp; access)</text></g><!--entity EPNTAP--><g class="entity" data-qualified-name="OUTPUTS.EPNTAP" data-source-line="21" id="ent0008"><rect fill="#C3E6CB" height="47.9375" rx="2.5" ry="2.5" style="stroke:#555555;stroke-width:1.5;" width="135.8984" x="600.97" y="122.03"/><text fill="#000000" font-family="sans-serif" font-size="12" lengthAdjust="spacing" textLength="50.9004" x="610.97" y="143.1687">EPN-TAP</text><text fill="#000000" font-family="sans-serif" font-size="12" lengthAdjust="spacing" textLength="115.8984" x="610.97" y="157.1374">(IVOA / Europlanet)</text></g><!--entity DOI--><g class="entity" data-qualified-name="OUTPUTS.DOI" data-source-line="22" id="ent0009"><rect fill="#C3E6CB" height="47.9375" rx="2.5" ry="2.5" style="stroke:#555555;stroke-width:1.5;" width="141.1602" x="598.34" y="205.03"/><text fill="#000000" font-family="sans-serif" font-size="12" lengthAdjust="spacing" textLength="86.3496" x="608.34" y="226.1687">DOI / DataCite</text><text fill="#000000" font-family="sans-serif" font-size="12" lengthAdjust="spacing" textLength="121.1602" x="608.34" y="240.1374">(citation &amp; FAIR IDs)</text></g><!--entity PIVOT--><g class="entity" data-qualified-name="PIVOT" data-source-line="17" id="ent0005"><rect fill="#CCE5FF" height="47.9375" rx="2.5" ry="2.5" style="stroke:#555555;stroke-width:1.5;" width="177.752" x="278.35" y="122.03"/><text fill="#000000" font-family="sans-serif" font-size="12" font-weight="700" lengthAdjust="spacing" textLength="143.5371" x="288.35" y="143.1687">PDSSP &#8212; STACPlanet</text><text fill="#000000" font-family="sans-serif" font-size="12" lengthAdjust="spacing" textLength="157.752" x="288.35" y="157.1374">&#8212;&#8212; pivot data model &#8212;&#8212;</text></g><g class="entity" data-qualified-name="GMN10" data-source-line="26" id="ent0011"><path d="M243.76,205.03 L243.76,242.9675 A0,0 0 0 0 243.76,242.9675 L490.6975,242.9675 A0,0 0 0 0 490.6975,242.9675 L490.6975,215.03 L480.6975,205.03 L371.23,205.03 L367.23,170.35 L363.23,205.03 L243.76,205.03 A0,0 0 0 0 243.76,205.03" fill="#FEFFDD" style="stroke:#181818;stroke-width:0.5;"/><path d="M480.6975,205.03 L480.6975,215.03 L490.6975,215.03 L480.6975,205.03" fill="#FEFFDD" style="stroke:#181818;stroke-width:0.5;"/><text fill="#000000" font-family="sans-serif" font-size="12" lengthAdjust="spacing" textLength="225.9375" x="249.76" y="221.1687">O&amp;M (ISO 19156) semantic backbone</text><text fill="#000000" font-family="sans-serif" font-size="12" lengthAdjust="spacing" textLength="192.9082" x="249.76" y="235.1374">FAIR-compliant &#8212; Open Science</text></g><!--link ODE to PIVOT--><g class="link" data-entity-1="ent0002" data-entity-2="ent0005" data-link-type="dependency" data-source-line="30" id="lnk13"><path d="M131.81,77.93 C173.61,90.07 228.5983,106.036 277.3383,120.186" fill="none" id="ODE-to-PIVOT" style="stroke:#444444;stroke-width:1;"/><polygon fill="#444444" points="282.14,121.58,274.6121,115.2294,277.3383,120.186,272.3817,122.9122,282.14,121.58" style="stroke:#444444;stroke-width:1;stroke-linejoin:miter;stroke-miterlimit:10;"/><text fill="#000000" font-family="sans-serif" font-size="11" lengthAdjust="spacing" textLength="41.5562" x="170.26" y="87.0604">harvest</text></g><!--link LABO to PIVOT--><g class="link" data-entity-1="ent0003" data-entity-2="ent0005" data-link-type="dependency" data-source-line="31" id="lnk14"><path d="M136.17,146 C176.47,146 226.7,146 272.95,146" fill="none" id="LABO-to-PIVOT" style="stroke:#444444;stroke-width:1;"/><polygon fill="#444444" points="277.95,146,268.95,142,272.95,146,268.95,150,277.95,146" style="stroke:#444444;stroke-width:1;stroke-linejoin:miter;stroke-miterlimit:10;"/><text fill="#000000" font-family="sans-serif" font-size="11" lengthAdjust="spacing" textLength="33.8218" x="174.26" y="143.2104">ingest</text></g><!--link ESA to PIVOT--><g class="link" data-entity-1="ent0004" data-entity-2="ent0005" data-link-type="dependency" data-source-line="32" id="lnk15"><path d="M119.53,217.63 C161.19,205.53 223.5882,187.4137 277.3382,171.8137" fill="none" id="ESA-to-PIVOT" style="stroke:#444444;stroke-width:1;stroke-dasharray:7,7;"/><polygon fill="#444444" points="282.14,170.42,272.3818,169.0871,277.3382,171.8137,274.6116,176.7701,282.14,170.42" style="stroke:#444444;stroke-width:1;stroke-linejoin:miter;stroke-miterlimit:10;"/><text fill="#000000" font-family="sans-serif" font-size="11" lengthAdjust="spacing" textLength="44.4727" x="168.76" y="189.6804">planned</text></g><!--link PIVOT to STACAPI--><g class="link" data-entity-1="ent0005" data-entity-2="ent0007" data-link-type="dependency" data-source-line="33" id="lnk16"><path d="M456.53,121.55 C501.07,109.21 549.5814,95.7747 591.5314,84.1547" fill="none" id="PIVOT-to-STACAPI" style="stroke:#444444;stroke-width:1;"/><polygon fill="#444444" points="596.35,82.82,586.6088,81.3677,591.5314,84.1547,588.7444,89.0773,596.35,82.82" style="stroke:#444444;stroke-width:1;stroke-linejoin:miter;stroke-miterlimit:10;"/><text fill="#000000" font-family="sans-serif" font-size="11" lengthAdjust="spacing" textLength="30.2983" x="527.7" y="89.4304">serve</text></g><!--link PIVOT to EPNTAP--><g class="link" data-entity-1="ent0005" data-entity-2="ent0008" data-link-type="dependency" data-source-line="34" id="lnk17"><path d="M456.53,146 C502.63,146 553.13,146 595.7,146" fill="none" id="PIVOT-to-EPNTAP" style="stroke:#444444;stroke-width:1;"/><polygon fill="#444444" points="600.7,146,591.7,142,595.7,146,591.7,150,600.7,146" style="stroke:#444444;stroke-width:1;stroke-linejoin:miter;stroke-miterlimit:10;"/><text fill="#000000" font-family="sans-serif" font-size="11" lengthAdjust="spacing" textLength="35.8252" x="525.2" y="143.2104">export</text></g><!--link PIVOT to DOI--><g class="link" data-entity-1="ent0005" data-entity-2="ent0009" data-link-type="dependency" data-source-line="35" id="lnk18"><path d="M456.53,170.45 C501.76,182.98 551.2415,196.685 593.4715,208.385" fill="none" id="PIVOT-to-DOI" style="stroke:#444444;stroke-width:1;"/><polygon fill="#444444" points="598.29,209.72,590.6847,203.4622,593.4715,208.385,588.5487,211.1718,598.29,209.72" style="stroke:#444444;stroke-width:1;stroke-linejoin:miter;stroke-miterlimit:10;"/><text fill="#000000" font-family="sans-serif" font-size="11" lengthAdjust="spacing" textLength="42.6626" x="521.7" y="187.2004">register</text></g><?plantuml-src RLBRQjj047tNLmm9X4HW1zTs87ueoBg088r49FSfB-lLs5uixuhLshqHw4Vq2_ibdLtBjUfczI0qPyxPCqTJuyg0KQ35UcEW4Xgv4KfwxLR8XccsWoNZsxLMUrc5gbOQhfFOFhsE2bTiNvj4ILE8xmYZ3pqmq5fzwPWJTox1Cs_KWwmH9jSrmWyFOAvqXRgJcRhpjrfk1DzAR5iO3QVUc-UTgLU-NwYzvjZw_XMm5efiyHB61GsH9ECmSjgzzkUW222BubTvcqV56Ew1NfCxHwMofSNnFFYNH2r5FdXYIqMqMd5MGyKCQz6qH-PJCC_UfyPqtJt4HKRCfcPIOdMaMC1wV0md_qtaxeFVFtz1KGPXJZGqllyggMABZJWeunp0JbLOmx7kPFFqSrR2THZ6qoIvaCtsfjcRKr3PeimN9GKLJU8e2Yw3iZT3aAVakn8jLmVKt-066AUekwbj2tNGRUFu8PnV39u_3yeW9pevSXdijMhSA5q0-JFXxvEZB2L6H1E6mY1fS66OtLfoa0Jf2wHHvy5sdYGeHgaCmb8PetQWLiSqI3gx-GItQP71w74qVRY35dTC6i7TwY-LHEgnkWEkTaqj27FfPmrAABX0oT53MO6Lzpox9uF1noxh6MoOFc1hFBS5VK38jQtRNpqSdilT7dZ7Rqiu9JaZPwJLGxgKPe1V6wLD3x6JpoYqjMWDwZy0?></g></svg>