<?plantuml 1.2026.1?><svg xmlns="http://www.w3.org/2000/svg" xmlns:xlink="http://www.w3.org/1999/xlink" contentStyleType="text/css" data-diagram-type="CLASS" height="970px" preserveAspectRatio="none" style="width:984px;height:970px;background:#FFFFFF;" version="1.1" viewBox="0 0 984 970" width="984px" zoomAndPan="magnify"><defs/><g><!--class AbstractObservation--><g class="entity" data-qualified-name="AbstractObservation" data-source-line="1" id="ent0002"><rect fill="#F1F1F1" height="96.8906" rx="2.5" ry="2.5" style="stroke:#181818;stroke-width:0.5;" width="176.0195" x="363.97" y="7"/><ellipse cx="378.97" cy="23" fill="#B4A7E5" rx="11" ry="11" style="stroke:#181818;stroke-width:1;"/><path d="M374.8919,18.7656 L374.8919,16.6094 L382.2825,16.6094 L382.2825,18.7656 L379.8138,18.7656 L379.8138,26.8438 L382.2825,26.8438 L382.2825,29 L374.8919,29 L374.8919,26.8438 L377.3606,26.8438 L377.3606,18.7656 L374.8919,18.7656 Z " fill="#000000"/><text fill="#000000" font-family="sans-serif" font-size="14" font-style="italic" lengthAdjust="spacing" textLength="144.0195" x="392.97" y="27.8467">AbstractObservation</text><line style="stroke:#181818;stroke-width:0.5;" x1="364.97" x2="538.9895" y1="39" y2="39"/><g data-visibility-modifier="PUBLIC_FIELD"><ellipse cx="374.97" cy="52.6484" fill="none" rx="3" ry="3" style="stroke:#038048;stroke-width:1;"/></g><text fill="#000000" font-family="sans-serif" font-size="14" lengthAdjust="spacing" textLength="127.0664" x="383.97" y="55.9951">phenomenonTime</text><g data-visibility-modifier="PUBLIC_FIELD"><ellipse cx="374.97" cy="68.9453" fill="none" rx="3" ry="3" style="stroke:#038048;stroke-width:1;"/></g><text fill="#000000" font-family="sans-serif" font-size="14" lengthAdjust="spacing" textLength="74.6074" x="383.97" y="72.292">resultTime</text><g data-visibility-modifier="PUBLIC_FIELD"><ellipse cx="374.97" cy="85.2422" fill="none" rx="3" ry="3" style="stroke:#038048;stroke-width:1;"/></g><text fill="#000000" font-family="sans-serif" font-size="14" lengthAdjust="spacing" textLength="108.4043" x="383.97" y="88.5889">validTime [0..*]</text><line style="stroke:#181818;stroke-width:0.5;" x1="364.97" x2="538.9895" y1="95.8906" y2="95.8906"/></g><!--class STACObservation--><g class="entity" data-qualified-name="STACObservation" data-source-line="7" id="ent0003"><rect fill="#F1F1F1" height="48" rx="2.5" ry="2.5" style="stroke:#181818;stroke-width:0.5;" width="154.042" x="374.96" y="164.89"/><ellipse cx="389.96" cy="180.89" fill="#ADD1B2" rx="11" ry="11" style="stroke:#181818;stroke-width:1;"/><path d="M392.9288,186.5306 Q392.3506,186.8275 391.71,186.9681 Q391.0694,187.1244 390.3663,187.1244 Q387.8663,187.1244 386.5381,185.4838 Q385.2256,183.8275 385.2256,180.7025 Q385.2256,177.5775 386.5381,175.9213 Q387.8663,174.265 390.3663,174.265 Q391.0694,174.265 391.71,174.4213 Q392.3663,174.5775 392.9288,174.8744 L392.9288,177.5931 Q392.3038,177.015 391.71,176.7494 Q391.1163,176.4681 390.4913,176.4681 Q389.1475,176.4681 388.46,177.5463 Q387.7725,178.6088 387.7725,180.7025 Q387.7725,182.7963 388.46,183.8744 Q389.1475,184.9369 390.4913,184.9369 Q391.1163,184.9369 391.71,184.6713 Q392.3038,184.39 392.9288,183.8119 L392.9288,186.5306 Z " fill="#000000"/><text fill="#000000" font-family="sans-serif" font-size="14" lengthAdjust="spacing" textLength="122.042" x="403.96" y="185.7367">STACObservation</text><line style="stroke:#181818;stroke-width:0.5;" x1="375.96" x2="528.002" y1="196.89" y2="196.89"/><line style="stroke:#181818;stroke-width:0.5;" x1="375.96" x2="528.002" y1="204.89" y2="204.89"/></g><!--class Item--><g class="entity" data-qualified-name="Item" data-source-line="9" id="ent0004"><rect fill="#F1F1F1" height="178.375" rx="2.5" ry="2.5" style="stroke:#181818;stroke-width:0.5;" width="305.8701" x="299.04" y="273.89"/><ellipse cx="431.7905" cy="289.89" fill="#ADD1B2" rx="11" ry="11" style="stroke:#181818;stroke-width:1;"/><path d="M434.7592,295.5306 Q434.1811,295.8275 433.5405,295.9681 Q432.8999,296.1244 432.1967,296.1244 Q429.6967,296.1244 428.3686,294.4838 Q427.0561,292.8275 427.0561,289.7025 Q427.0561,286.5775 428.3686,284.9213 Q429.6967,283.265 432.1967,283.265 Q432.8999,283.265 433.5405,283.4213 Q434.1967,283.5775 434.7592,283.8744 L434.7592,286.5931 Q434.1342,286.015 433.5405,285.7494 Q432.9467,285.4681 432.3217,285.4681 Q430.978,285.4681 430.2905,286.5463 Q429.603,287.6088 429.603,289.7025 Q429.603,291.7963 430.2905,292.8744 Q430.978,293.9369 432.3217,293.9369 Q432.9467,293.9369 433.5405,293.6713 Q434.1342,293.39 434.7592,292.8119 L434.7592,295.5306 Z " fill="#000000"/><text fill="#000000" font-family="sans-serif" font-size="14" lengthAdjust="spacing" textLength="31.8691" x="452.2905" y="294.7367">Item</text><line style="stroke:#181818;stroke-width:0.5;" x1="300.04" x2="603.9101" y1="305.89" y2="305.89"/><g data-visibility-modifier="PUBLIC_FIELD"><ellipse cx="310.04" cy="319.5384" fill="none" rx="3" ry="3" style="stroke:#038048;stroke-width:1;"/></g><text fill="#000000" font-family="sans-serif" font-size="14" lengthAdjust="spacing" textLength="138.2842" x="319.04" y="322.8851">stac_version: String</text><g data-visibility-modifier="PUBLIC_FIELD"><ellipse cx="310.04" cy="335.8353" fill="none" rx="3" ry="3" style="stroke:#038048;stroke-width:1;"/></g><text fill="#000000" font-family="sans-serif" font-size="14" lengthAdjust="spacing" textLength="266.7178" x="319.04" y="339.182">stac_extensions : STACExtension[0..*]</text><g data-visibility-modifier="PUBLIC_FIELD"><ellipse cx="310.04" cy="352.1322" fill="none" rx="3" ry="3" style="stroke:#038048;stroke-width:1;"/></g><text fill="#000000" font-family="sans-serif" font-size="14" lengthAdjust="spacing" textLength="63.7246" x="319.04" y="355.4789">id: String</text><g data-visibility-modifier="PUBLIC_FIELD"><ellipse cx="310.04" cy="368.4291" fill="none" rx="3" ry="3" style="stroke:#038048;stroke-width:1;"/></g><text fill="#000000" font-family="sans-serif" font-size="14" lengthAdjust="spacing" textLength="86.6729" x="319.04" y="371.7757">type : String</text><g data-visibility-modifier="PUBLIC_FIELD"><ellipse cx="310.04" cy="384.7259" fill="none" rx="3" ry="3" style="stroke:#038048;stroke-width:1;"/></g><text fill="#000000" font-family="sans-serif" font-size="14" lengthAdjust="spacing" textLength="155.7568" x="319.04" y="388.0726">collection: String[0..1]</text><g data-visibility-modifier="PUBLIC_FIELD"><ellipse cx="310.04" cy="401.0228" fill="none" rx="3" ry="3" style="stroke:#038048;stroke-width:1;"/></g><text fill="#000000" font-family="sans-serif" font-size="14" lengthAdjust="spacing" textLength="279.8701" x="319.04" y="404.3695">assets: Map&lt;string, Asset Object&gt;[0..*]</text><g data-visibility-modifier="PUBLIC_FIELD"><ellipse cx="310.04" cy="417.3197" fill="none" rx="3" ry="3" style="stroke:#038048;stroke-width:1;"/></g><text fill="#000000" font-family="sans-serif" font-size="14" lengthAdjust="spacing" textLength="152.2227" x="319.04" y="420.6664">properties: Properties</text><g data-visibility-modifier="PUBLIC_FIELD"><ellipse cx="310.04" cy="433.6166" fill="none" rx="3" ry="3" style="stroke:#038048;stroke-width:1;"/></g><text fill="#000000" font-family="sans-serif" font-size="14" lengthAdjust="spacing" textLength="105.6221" x="319.04" y="436.9632">links: Link[0..*]</text><line style="stroke:#181818;stroke-width:0.5;" x1="300.04" x2="603.9101" y1="444.265" y2="444.265"/></g><!--class STACExtension--><g class="entity" data-qualified-name="STACExtension" data-source-line="20" id="ent0005"><rect fill="#F1F1F1" height="48" rx="2.5" ry="2.5" style="stroke:#181818;stroke-width:0.5;" width="137.5195" x="90.22" y="578.15"/><ellipse cx="105.22" cy="594.15" fill="#ADD1B2" rx="11" ry="11" style="stroke:#181818;stroke-width:1;"/><path d="M108.1888,599.7906 Q107.6106,600.0875 106.97,600.2281 Q106.3294,600.3844 105.6263,600.3844 Q103.1263,600.3844 101.7981,598.7437 Q100.4856,597.0875 100.4856,593.9625 Q100.4856,590.8375 101.7981,589.1812 Q103.1263,587.525 105.6263,587.525 Q106.3294,587.525 106.97,587.6812 Q107.6263,587.8375 108.1888,588.1344 L108.1888,590.8531 Q107.5638,590.275 106.97,590.0094 Q106.3763,589.7281 105.7513,589.7281 Q104.4075,589.7281 103.72,590.8062 Q103.0325,591.8687 103.0325,593.9625 Q103.0325,596.0562 103.72,597.1344 Q104.4075,598.1969 105.7513,598.1969 Q106.3763,598.1969 106.97,597.9312 Q107.5638,597.65 108.1888,597.0719 L108.1888,599.7906 Z " fill="#000000"/><text fill="#000000" font-family="sans-serif" font-size="14" lengthAdjust="spacing" textLength="105.5195" x="119.22" y="598.9967">STACExtension</text><line style="stroke:#181818;stroke-width:0.5;" x1="91.22" x2="226.7395" y1="610.15" y2="610.15"/><line style="stroke:#181818;stroke-width:0.5;" x1="91.22" x2="226.7395" y1="618.15" y2="618.15"/></g><!--class Properties--><g class="entity" data-qualified-name="Properties" data-source-line="22" id="ent0006"><rect fill="#F1F1F1" height="48" rx="2.5" ry="2.5" style="stroke:#181818;stroke-width:0.5;" width="103.3057" x="262.33" y="578.15"/><ellipse cx="277.33" cy="594.15" fill="#ADD1B2" rx="11" ry="11" style="stroke:#181818;stroke-width:1;"/><path d="M280.2988,599.7906 Q279.7206,600.0875 279.08,600.2281 Q278.4394,600.3844 277.7363,600.3844 Q275.2363,600.3844 273.9081,598.7437 Q272.5956,597.0875 272.5956,593.9625 Q272.5956,590.8375 273.9081,589.1812 Q275.2363,587.525 277.7363,587.525 Q278.4394,587.525 279.08,587.6812 Q279.7363,587.8375 280.2988,588.1344 L280.2988,590.8531 Q279.6738,590.275 279.08,590.0094 Q278.4863,589.7281 277.8613,589.7281 Q276.5175,589.7281 275.83,590.8062 Q275.1425,591.8687 275.1425,593.9625 Q275.1425,596.0562 275.83,597.1344 Q276.5175,598.1969 277.8613,598.1969 Q278.4863,598.1969 279.08,597.9312 Q279.6738,597.65 280.2988,597.0719 L280.2988,599.7906 Z " fill="#000000"/><text fill="#000000" font-family="sans-serif" font-size="14" lengthAdjust="spacing" textLength="71.3057" x="291.33" y="598.9967">Properties</text><line style="stroke:#181818;stroke-width:0.5;" x1="263.33" x2="364.6357" y1="610.15" y2="610.15"/><line style="stroke:#181818;stroke-width:0.5;" x1="263.33" x2="364.6357" y1="618.15" y2="618.15"/></g><!--class StandardExtensions--><g class="entity" data-qualified-name="StandardExtensions" data-source-line="24" id="ent0007"><rect fill="#F1F1F1" height="48" rx="2.5" ry="2.5" style="stroke:#181818;stroke-width:0.5;" width="171.959" x="7" y="825.68"/><ellipse cx="22" cy="841.68" fill="#ADD1B2" rx="11" ry="11" style="stroke:#181818;stroke-width:1;"/><path d="M24.9688,847.3206 Q24.3906,847.6175 23.75,847.7581 Q23.1094,847.9144 22.4063,847.9144 Q19.9063,847.9144 18.5781,846.2738 Q17.2656,844.6175 17.2656,841.4925 Q17.2656,838.3675 18.5781,836.7113 Q19.9063,835.055 22.4063,835.055 Q23.1094,835.055 23.75,835.2113 Q24.4063,835.3675 24.9688,835.6644 L24.9688,838.3831 Q24.3438,837.805 23.75,837.5394 Q23.1563,837.2581 22.5313,837.2581 Q21.1875,837.2581 20.5,838.3363 Q19.8125,839.3988 19.8125,841.4925 Q19.8125,843.5863 20.5,844.6644 Q21.1875,845.7269 22.5313,845.7269 Q23.1563,845.7269 23.75,845.4613 Q24.3438,845.18 24.9688,844.6019 L24.9688,847.3206 Z " fill="#000000"/><text fill="#000000" font-family="sans-serif" font-size="14" lengthAdjust="spacing" textLength="139.959" x="36" y="846.5267">StandardExtensions</text><line style="stroke:#181818;stroke-width:0.5;" x1="8" x2="177.959" y1="857.68" y2="857.68"/><line style="stroke:#181818;stroke-width:0.5;" x1="8" x2="177.959" y1="865.68" y2="865.68"/></g><!--class NonStandardExtensions--><g class="entity" data-qualified-name="NonStandardExtensions" data-source-line="26" id="ent0008"><rect fill="#F1F1F1" height="48" rx="2.5" ry="2.5" style="stroke:#181818;stroke-width:0.5;" width="199.8701" x="214.04" y="825.68"/><ellipse cx="229.04" cy="841.68" fill="#ADD1B2" rx="11" ry="11" style="stroke:#181818;stroke-width:1;"/><path d="M232.0088,847.3206 Q231.4306,847.6175 230.79,847.7581 Q230.1494,847.9144 229.4463,847.9144 Q226.9463,847.9144 225.6181,846.2738 Q224.3056,844.6175 224.3056,841.4925 Q224.3056,838.3675 225.6181,836.7113 Q226.9463,835.055 229.4463,835.055 Q230.1494,835.055 230.79,835.2113 Q231.4463,835.3675 232.0088,835.6644 L232.0088,838.3831 Q231.3838,837.805 230.79,837.5394 Q230.1963,837.2581 229.5713,837.2581 Q228.2275,837.2581 227.54,838.3363 Q226.8525,839.3988 226.8525,841.4925 Q226.8525,843.5863 227.54,844.6644 Q228.2275,845.7269 229.5713,845.7269 Q230.1963,845.7269 230.79,845.4613 Q231.3838,845.18 232.0088,844.6019 L232.0088,847.3206 Z " fill="#000000"/><text fill="#000000" font-family="sans-serif" font-size="14" lengthAdjust="spacing" textLength="167.8701" x="243.04" y="846.5267">NonStandardExtensions</text><line style="stroke:#181818;stroke-width:0.5;" x1="215.04" x2="412.9101" y1="857.68" y2="857.68"/><line style="stroke:#181818;stroke-width:0.5;" x1="215.04" x2="412.9101" y1="865.68" y2="865.68"/></g><!--class CommonMetadata--><g class="entity" data-qualified-name="CommonMetadata" data-source-line="28" id="ent0009"><rect fill="#F1F1F1" height="227.2656" rx="2.5" ry="2.5" style="stroke:#181818;stroke-width:0.5;" width="221.8428" x="449.06" y="736.04"/><ellipse cx="491.2819" cy="752.04" fill="#ADD1B2" rx="11" ry="11" style="stroke:#181818;stroke-width:1;"/><path d="M494.2507,757.6806 Q493.6725,757.9775 493.0319,758.1181 Q492.3913,758.2744 491.6882,758.2744 Q489.1882,758.2744 487.86,756.6338 Q486.5475,754.9775 486.5475,751.8525 Q486.5475,748.7275 487.86,747.0713 Q489.1882,745.415 491.6882,745.415 Q492.3913,745.415 493.0319,745.5713 Q493.6882,745.7275 494.2507,746.0244 L494.2507,748.7431 Q493.6257,748.165 493.0319,747.8994 Q492.4382,747.6181 491.8132,747.6181 Q490.4694,747.6181 489.7819,748.6963 Q489.0944,749.7588 489.0944,751.8525 Q489.0944,753.9463 489.7819,755.0244 Q490.4694,756.0869 491.8132,756.0869 Q492.4382,756.0869 493.0319,755.8213 Q493.6257,755.54 494.2507,754.9619 L494.2507,757.6806 Z " fill="#000000"/><text fill="#000000" font-family="sans-serif" font-size="14" lengthAdjust="spacing" textLength="129.3496" x="511.3312" y="756.8867">CommonMetadata</text><line style="stroke:#181818;stroke-width:0.5;" x1="450.06" x2="669.9028" y1="768.04" y2="768.04"/><g data-visibility-modifier="PUBLIC_FIELD"><ellipse cx="460.06" cy="781.6884" fill="none" rx="3" ry="3" style="stroke:#038048;stroke-width:1;"/></g><text fill="#000000" font-family="sans-serif" font-size="14" lengthAdjust="spacing" textLength="115.958" x="469.06" y="785.0351">title: String[0..1]</text><g data-visibility-modifier="PUBLIC_FIELD"><ellipse cx="460.06" cy="797.9853" fill="none" rx="3" ry="3" style="stroke:#038048;stroke-width:1;"/></g><text fill="#000000" font-family="sans-serif" font-size="14" lengthAdjust="spacing" textLength="166.4277" x="469.06" y="801.332">description: String[0..1]</text><g data-visibility-modifier="PUBLIC_FIELD"><ellipse cx="460.06" cy="814.2822" fill="none" rx="3" ry="3" style="stroke:#038048;stroke-width:1;"/></g><text fill="#000000" font-family="sans-serif" font-size="14" lengthAdjust="spacing" textLength="158.0879" x="469.06" y="817.6289">keywords: String [0..*]</text><g data-visibility-modifier="PUBLIC_FIELD"><ellipse cx="460.06" cy="830.5791" fill="none" rx="3" ry="3" style="stroke:#038048;stroke-width:1;"/></g><text fill="#000000" font-family="sans-serif" font-size="14" lengthAdjust="spacing" textLength="120.7979" x="469.06" y="833.9257">roles: String[0..*]</text><g data-visibility-modifier="PUBLIC_FIELD"><ellipse cx="460.06" cy="846.8759" fill="none" rx="3" ry="3" style="stroke:#038048;stroke-width:1;"/></g><text fill="#000000" font-family="sans-serif" font-size="14" lengthAdjust="spacing" textLength="193.4912" x="469.06" y="850.2226">datetime: String[0.1] = null</text><g data-visibility-modifier="PUBLIC_FIELD"><ellipse cx="460.06" cy="863.1728" fill="none" rx="3" ry="3" style="stroke:#038048;stroke-width:1;"/></g><text fill="#000000" font-family="sans-serif" font-size="14" lengthAdjust="spacing" textLength="146.6719" x="469.06" y="866.5195">created : String[0..1]</text><g data-visibility-modifier="PUBLIC_FIELD"><ellipse cx="460.06" cy="879.4697" fill="none" rx="3" ry="3" style="stroke:#038048;stroke-width:1;"/></g><text fill="#000000" font-family="sans-serif" font-size="14" lengthAdjust="spacing" textLength="151.252" x="469.06" y="882.8164">updated : String[0..1]</text><g data-visibility-modifier="PUBLIC_FIELD"><ellipse cx="460.06" cy="895.7666" fill="none" rx="3" ry="3" style="stroke:#038048;stroke-width:1;"/></g><text fill="#000000" font-family="sans-serif" font-size="14" lengthAdjust="spacing" textLength="195.8428" x="469.06" y="899.1132">start_datetime : String[0..1]</text><g data-visibility-modifier="PUBLIC_FIELD"><ellipse cx="460.06" cy="912.0634" fill="none" rx="3" ry="3" style="stroke:#038048;stroke-width:1;"/></g><text fill="#000000" font-family="sans-serif" font-size="14" lengthAdjust="spacing" textLength="176.251" x="469.06" y="915.4101">end_datetime: String[0..]</text><g data-visibility-modifier="PUBLIC_FIELD"><ellipse cx="460.06" cy="928.3603" fill="none" rx="3" ry="3" style="stroke:#038048;stroke-width:1;"/></g><text fill="#000000" font-family="sans-serif" font-size="14" lengthAdjust="spacing" textLength="137.457" x="469.06" y="931.707">license: String[0..1]</text><g data-visibility-modifier="PUBLIC_FIELD"><ellipse cx="460.06" cy="944.6572" fill="none" rx="3" ry="3" style="stroke:#038048;stroke-width:1;"/></g><text fill="#000000" font-family="sans-serif" font-size="14" lengthAdjust="spacing" textLength="142.0303" x="469.06" y="948.0039">mission: String[0..1]</text><line style="stroke:#181818;stroke-width:0.5;" x1="450.06" x2="669.9028" y1="955.3056" y2="955.3056"/></g><!--class Asset--><g class="entity" data-qualified-name="Asset" data-source-line="42" id="ent0010"><rect fill="#F1F1F1" height="129.4844" rx="2.5" ry="2.5" style="stroke:#181818;stroke-width:0.5;" width="196.8779" x="400.54" y="537.41"/><ellipse cx="475.5952" cy="553.41" fill="#ADD1B2" rx="11" ry="11" style="stroke:#181818;stroke-width:1;"/><path d="M478.5639,559.0506 Q477.9858,559.3475 477.3452,559.4881 Q476.7046,559.6444 476.0014,559.6444 Q473.5014,559.6444 472.1733,558.0038 Q470.8608,556.3475 470.8608,553.2225 Q470.8608,550.0975 472.1733,548.4413 Q473.5014,546.785 476.0014,546.785 Q476.7046,546.785 477.3452,546.9413 Q478.0014,547.0975 478.5639,547.3944 L478.5639,550.1131 Q477.9389,549.535 477.3452,549.2694 Q476.7514,548.9881 476.1264,548.9881 Q474.7827,548.9881 474.0952,550.0663 Q473.4077,551.1288 473.4077,553.2225 Q473.4077,555.3163 474.0952,556.3944 Q474.7827,557.4569 476.1264,557.4569 Q476.7514,557.4569 477.3452,557.1913 Q477.9389,556.91 478.5639,556.3319 L478.5639,559.0506 Z " fill="#000000"/><text fill="#000000" font-family="sans-serif" font-size="14" lengthAdjust="spacing" textLength="38.2676" x="496.0952" y="558.2567">Asset</text><line style="stroke:#181818;stroke-width:0.5;" x1="401.54" x2="596.4179" y1="569.41" y2="569.41"/><g data-visibility-modifier="PUBLIC_FIELD"><ellipse cx="411.54" cy="583.0584" fill="none" rx="3" ry="3" style="stroke:#038048;stroke-width:1;"/></g><text fill="#000000" font-family="sans-serif" font-size="14" lengthAdjust="spacing" textLength="83.5693" x="420.54" y="586.4051">href : String</text><g data-visibility-modifier="PUBLIC_FIELD"><ellipse cx="411.54" cy="599.3553" fill="none" rx="3" ry="3" style="stroke:#038048;stroke-width:1;"/></g><text fill="#000000" font-family="sans-serif" font-size="14" lengthAdjust="spacing" textLength="120.4082" x="420.54" y="602.702">title : String[0..1]</text><g data-visibility-modifier="PUBLIC_FIELD"><ellipse cx="411.54" cy="615.6522" fill="none" rx="3" ry="3" style="stroke:#038048;stroke-width:1;"/></g><text fill="#000000" font-family="sans-serif" font-size="14" lengthAdjust="spacing" textLength="170.8779" x="420.54" y="618.9989">description : String[0..1]</text><g data-visibility-modifier="PUBLIC_FIELD"><ellipse cx="411.54" cy="631.9491" fill="none" rx="3" ry="3" style="stroke:#038048;stroke-width:1;"/></g><text fill="#000000" font-family="sans-serif" font-size="14" lengthAdjust="spacing" textLength="124.3115" x="420.54" y="635.2957">type : String[0..1]</text><g data-visibility-modifier="PUBLIC_FIELD"><ellipse cx="411.54" cy="648.2459" fill="none" rx="3" ry="3" style="stroke:#038048;stroke-width:1;"/></g><text fill="#000000" font-family="sans-serif" font-size="14" lengthAdjust="spacing" textLength="125.248" x="420.54" y="651.5926">roles : String[0..*]</text><line style="stroke:#181818;stroke-width:0.5;" x1="401.54" x2="596.4179" y1="658.8944" y2="658.8944"/></g><!--class Link--><g class="entity" data-qualified-name="Link" data-source-line="50" id="ent0011"><rect fill="#F1F1F1" height="145.7813" rx="2.5" ry="2.5" style="stroke:#181818;stroke-width:0.5;" width="345.6621" x="632.15" y="529.26"/><ellipse cx="786.3961" cy="545.26" fill="#ADD1B2" rx="11" ry="11" style="stroke:#181818;stroke-width:1;"/><path d="M789.3648,550.9006 Q788.7867,551.1975 788.1461,551.3381 Q787.5055,551.4944 786.8023,551.4944 Q784.3023,551.4944 782.9742,549.8538 Q781.6617,548.1975 781.6617,545.0725 Q781.6617,541.9475 782.9742,540.2913 Q784.3023,538.635 786.8023,538.635 Q787.5055,538.635 788.1461,538.7913 Q788.8023,538.9475 789.3648,539.2444 L789.3648,541.9631 Q788.7398,541.385 788.1461,541.1194 Q787.5523,540.8381 786.9273,540.8381 Q785.5836,540.8381 784.8961,541.9163 Q784.2086,542.9788 784.2086,545.0725 Q784.2086,547.1663 784.8961,548.2444 Q785.5836,549.3069 786.9273,549.3069 Q787.5523,549.3069 788.1461,549.0413 Q788.7398,548.76 789.3648,548.1819 L789.3648,550.9006 Z " fill="#000000"/><text fill="#000000" font-family="sans-serif" font-size="14" lengthAdjust="spacing" textLength="28.6699" x="806.8961" y="550.1067">Link</text><line style="stroke:#181818;stroke-width:0.5;" x1="633.15" x2="976.8121" y1="561.26" y2="561.26"/><g data-visibility-modifier="PUBLIC_FIELD"><ellipse cx="643.15" cy="574.9084" fill="none" rx="3" ry="3" style="stroke:#038048;stroke-width:1;"/></g><text fill="#000000" font-family="sans-serif" font-size="14" lengthAdjust="spacing" textLength="83.5693" x="652.15" y="578.2551">href : String</text><g data-visibility-modifier="PUBLIC_FIELD"><ellipse cx="643.15" cy="591.2053" fill="none" rx="3" ry="3" style="stroke:#038048;stroke-width:1;"/></g><text fill="#000000" font-family="sans-serif" font-size="14" lengthAdjust="spacing" textLength="73.6572" x="652.15" y="594.552">rel : String</text><g data-visibility-modifier="PUBLIC_FIELD"><ellipse cx="643.15" cy="607.5022" fill="none" rx="3" ry="3" style="stroke:#038048;stroke-width:1;"/></g><text fill="#000000" font-family="sans-serif" font-size="14" lengthAdjust="spacing" textLength="124.3115" x="652.15" y="610.8489">type : String[0..1]</text><g data-visibility-modifier="PUBLIC_FIELD"><ellipse cx="643.15" cy="623.7991" fill="none" rx="3" ry="3" style="stroke:#038048;stroke-width:1;"/></g><text fill="#000000" font-family="sans-serif" font-size="14" lengthAdjust="spacing" textLength="120.4082" x="652.15" y="627.1457">title : String[0..1]</text><g data-visibility-modifier="PUBLIC_FIELD"><ellipse cx="643.15" cy="640.0959" fill="none" rx="3" ry="3" style="stroke:#038048;stroke-width:1;"/></g><text fill="#000000" font-family="sans-serif" font-size="14" lengthAdjust="spacing" textLength="319.6621" x="652.15" y="643.4426">headers : Map&lt;String, String | [String]&gt;[0..1]</text><g data-visibility-modifier="PUBLIC_FIELD"><ellipse cx="643.15" cy="656.3928" fill="none" rx="3" ry="3" style="stroke:#038048;stroke-width:1;"/></g><text fill="#000000" font-family="sans-serif" font-size="14" lengthAdjust="spacing" textLength="112.6152" x="652.15" y="659.7395">body : Any[0..1]</text><line style="stroke:#181818;stroke-width:0.5;" x1="633.15" x2="976.8121" y1="667.0413" y2="667.0413"/></g><!--reverse link AbstractObservation to STACObservation--><g class="link" data-entity-1="ent0002" data-entity-2="ent0003" data-link-type="extension" data-source-line="59" id="lnk12"><path codeLine="59" d="M451.98,122.27 C451.98,142.82 451.98,147.9 451.98,164.6" fill="none" id="AbstractObservation-backto-STACObservation" style="stroke:#181818;stroke-width:1;"/><polygon fill="none" points="451.98,104.27,445.98,122.27,457.98,122.27,451.98,104.27" style="stroke:#181818;stroke-width:1;"/></g><!--link STACObservation to Item--><g class="link" data-entity-1="ent0003" data-entity-2="ent0004" data-link-type="association" data-source-line="60" id="lnk13"><path codeLine="60" d="M451.98,213.11 C451.98,228.99 451.98,251.15 451.98,273.52" fill="none" id="STACObservation-Item" style="stroke:#181818;stroke-width:1;"/></g><!--link Item to Properties--><g class="link" data-entity-1="ent0004" data-entity-2="ent0006" data-link-type="association" data-source-line="61" id="lnk14"><path codeLine="61" d="M400.4,452.69 C374.21,497.67 344.45,548.8 327.57,577.8" fill="none" id="Item-Properties" style="stroke:#181818;stroke-width:1;"/></g><!--reverse link Item to Asset--><g class="link" data-entity-1="ent0004" data-entity-2="ent0010" data-link-type="aggregation" data-source-line="62" id="lnk15"><path codeLine="62" d="M471.8816,464.4613 C477.4316,492.4813 481.13,511.11 486.27,537.06" fill="none" id="Item-backto-Asset" style="stroke:#181818;stroke-width:1;"/><polygon fill="none" points="469.55,452.69,466.792,459.3528,471.8816,464.4613,474.6396,457.7985,469.55,452.69" style="stroke:#181818;stroke-width:1;"/><text fill="#000000" font-family="sans-serif" font-size="13" lengthAdjust="spacing" textLength="23.0356" x="479.98" y="495.3269">0..*</text></g><!--reverse link Properties to CommonMetadata--><g class="link" data-entity-1="ent0006" data-entity-2="ent0009" data-link-type="extension" data-source-line="63" id="lnk16"><path codeLine="63" d="M348.5855,639.6824 C362.0255,653.8124 367.16,659.06 382.98,675.04 C404.17,696.47 427.01,719.16 449,740.82" fill="none" id="Properties-backto-CommonMetadata" style="stroke:#181818;stroke-width:1;"/><polygon fill="none" points="336.18,626.64,344.238,643.8175,352.933,635.5472,336.18,626.64" style="stroke:#181818;stroke-width:1;"/></g><!--link Properties to StandardExtensions--><g class="link" data-entity-1="ent0006" data-entity-2="ent0007" data-link-type="association" data-source-line="64" id="lnk17"><path codeLine="64" d="M293.19,626.25 C251.07,673.05 156.09,778.57 113.88,825.46" fill="none" id="Properties-StandardExtensions" style="stroke:#181818;stroke-width:1;"/></g><!--link Properties to NonStandardExtensions--><g class="link" data-entity-1="ent0006" data-entity-2="ent0008" data-link-type="association" data-source-line="65" id="lnk18"><path codeLine="65" d="M313.98,626.25 C313.98,673.05 313.98,778.57 313.98,825.46" fill="none" id="Properties-NonStandardExtensions" style="stroke:#181818;stroke-width:1;"/></g><!--reverse link Item to STACExtension--><g class="link" data-entity-1="ent0004" data-entity-2="ent0005" data-link-type="aggregation" data-source-line="66" id="lnk19"><path codeLine="66" d="M330.7689,460.043 C299.8289,484.723 275.69,504.18 244.98,529.26 C225.39,545.27 203.52,563.56 186.73,577.68" fill="none" id="Item-backto-STACExtension" style="stroke:#181818;stroke-width:1;"/><polygon fill="none" points="340.15,452.56,332.9651,453.1745,330.7689,460.043,337.9538,459.4285,340.15,452.56" style="stroke:#181818;stroke-width:1;"/><text fill="#000000" font-family="sans-serif" font-size="13" lengthAdjust="spacing" textLength="23.0356" x="302.98" y="495.3269">0..*</text></g><!--reverse link Item to Link--><g class="link" data-entity-1="ent0004" data-entity-2="ent0011" data-link-type="aggregation" data-source-line="67" id="lnk20"><path codeLine="67" d="M593.8916,459.3808 C631.2916,484.5008 661.59,504.85 697.37,528.88" fill="none" id="Item-backto-Link" style="stroke:#181818;stroke-width:1;"/><polygon fill="none" points="583.93,452.69,586.6805,459.3559,593.8916,459.3808,591.1411,452.7149,583.93,452.69" style="stroke:#181818;stroke-width:1;"/><text fill="#000000" font-family="sans-serif" font-size="13" lengthAdjust="spacing" textLength="23.0356" x="650.98" y="495.3269">0..*</text></g><?plantuml-src VLJ1Rjim3BtxAtXUrw2z1cs1eDXXGBiEI6z542WMiwYL9KDYiWRh_dsKR2jo8-zWM7gF5Ab7KieGkgse4HORJqxKzBJnw0w2b3NmfmAuW7Q7nZRycMVLO8GS-hscj3q8hMJOmSlLRFPbLVsjgbeBxs7vlBZFJXpWxuHDVxedKQyFw3pJSrYIK-RNYS1tGXCe3_DusBS1w2C5IoL7ZdHi4KP8RRN6ch88mVkwy-PyaFmS7aLxuoFv5HO1WwVDAtlTPP5QPrjqf93jVwPrfBGoRum-yAyaGifx03FtmOo4aSB9P9gO7zPCa_UsQQnvH19IaEXL9KKQ2vULw6kdsWaftl3usphf1mgogpkhqUS-FSv1aRZq6NMzWbimUwqxyHsoYOH2l7qhfoYklgFrS7Z90erS5uBFLdqvQjQf946Zl3-_VYfML_fEnPt3xRYJegxmVs5BzAWdCpog2fzaJRc4PffCnQ66wRxFOq_bl4CXUV2Ww_rbt_jzwJ_WfLkjxZANZPL7jb-Ouqctqijnyt5vUJRyd_R09k4XgE9hm9ji929a6UlACOUWJ7Kow0ACMp-dG_JpYHaRbASgHHvDxP11OcDfUl0V?></g></svg>